{
DisplayStrings = (
Q
);
copyright = "Copyright (c) 2014 by Steven Ng with Reserved Font Name \"Aitu\". Licensed under the SIL Open Font License, Version 1.1. ";
customParameters = (
{
name = vendorID;
value = tyPL;
}
);
date = "2014-08-18 18:15:39 +0000";
designer = "Steven Ng";
designerURL = "http://www.assignittous.com";
familyName = "Aitu Neue";
featurePrefixes = (
{
automatic = 1;
code = "languagesystem DFLT dflt;\012languagesystem latn dflt;\012languagesystem math dflt;\012";
name = Languagesystems;
}
);
features = (
{
automatic = 1;
code = "feature frac;\012";
name = aalt;
},
{
automatic = 1;
code = "sub one slash four by onequarter;\012sub one slash two by onehalf;\012sub three slash four by threequarters;\012";
name = frac;
},
{
automatic = 1;
code = "sub f f i by f_f_i;\012sub f f l by f_f_l;\012sub f i by fi;\012sub f l by fl;\012";
name = liga;
}
);
fontMaster = (
{
alignmentZones = (
"{1432, 21}",
"{1013, 16}",
"{0, -15}",
"{-342, -7}"
);
ascender = 1610;
capHeight = 1433;
customParameters = (
{
name = typoAscender;
value = 1610;
},
{
name = typoDescender;
value = "-390";
},
{
name = typoLineGap;
value = 400;
},
{
name = underlinePosition;
value = "-6";
}
);
descender = "-390";
id = "84BF924C-12BE-451A-A75C-68D6DFA13EBD";
weightValue = 400;
widthValue = 5;
xHeight = 1013;
}
);
glyphs = (
{
glyphname = A;
lastChange = "2014-08-21 05:33:48 -0500";
layers = (
{
layerId = "84BF924C-12BE-451A-A75C-68D6DFA13EBD";
name = Regular;
paths = (
{
closed = 1;
nodes = (
"1348 0 LINE",
"775 1433 LINE",
"579 1433 LINE",
"6 0 LINE",
"203 1 LINE",
"355 392 LINE",
"998 392 LINE",
"1147 0 LINE"
);
},
{
closed = 1;
nodes = (
"409 532 LINE",
"676 1248 LINE",
"944 532 LINE"
);
}
);
width = 1354;
}
);
leftKerningGroup = A;
rightKerningGroup = A;
unicode = 0041;
},
{
glyphname = Aacute;
lastChange = "2014-08-21 05:34:21 -0500";
layers = (
{
layerId = "84BF924C-12BE-451A-A75C-68D6DFA13EBD";
name = Regular;
paths = (
{
closed = 1;
nodes = (
"1055 1852 LINE",
"854 1852 LINE SMOOTH",
"832 1852 OFFCURVE",
"815.167 1850.33 OFFCURVE",
"803.5 1847 CURVE SMOOTH",
"791.833 1843.67 OFFCURVE",
"780.333 1834.67 OFFCURVE",
"769 1820 CURVE",
"538 1546 LINE",
"666 1546 LINE SMOOTH",
"679.333 1546 OFFCURVE",
"690.667 1547 OFFCURVE",
"700 1549 CURVE SMOOTH",
"709.333 1551 OFFCURVE",
"719 1556.67 OFFCURVE",
"729 1566 CURVE SMOOTH"
);
},
{
closed = 1;
nodes = (
"1348 0 LINE",
"775 1433 LINE",
"579 1433 LINE",
"6 0 LINE",
"203 1 LINE",
"355 392 LINE",
"998 392 LINE",
"1147 0 LINE"
);
},
{
closed = 1;
nodes = (
"409 532 LINE",
"676 1248 LINE",
"944 532 LINE"
);
}
);
width = 1354;
}
);
leftKerningGroup = A;
rightKerningGroup = A;
unicode = 00C1;
},
{
glyphname = Acircumflex;
lastChange = "2014-08-21 05:34:37 -0500";
layers = (
{
layerId = "84BF924C-12BE-451A-A75C-68D6DFA13EBD";
name = Regular;
paths = (
{
closed = 1;
nodes = (
"997 1546 LINE",
"759 1817 LINE",
"599 1817 LINE",
"360 1546 LINE",
"485 1546 LINE SMOOTH",
"493 1546 OFFCURVE",
"502.5 1547.5 OFFCURVE",
"513.5 1550.5 CURVE SMOOTH",
"524.5 1553.5 OFFCURVE",
"535.667 1561.67 OFFCURVE",
"547 1575 CURVE SMOOTH",
"664 1716 LINE",
"676 1733 LINE",
"680 1727 OFFCURVE",
"684 1721.33 OFFCURVE",
"688 1716 CURVE",
"805 1575 LINE SMOOTH",
"816.333 1561.67 OFFCURVE",
"827.5 1553.5 OFFCURVE",
"838.5 1550.5 CURVE SMOOTH",
"849.5 1547.5 OFFCURVE",
"859 1546 OFFCURVE",
"867 1546 CURVE SMOOTH"
);
},
{
closed = 1;
nodes = (
"1348 0 LINE",
"775 1433 LINE",
"579 1433 LINE",
"6 0 LINE",
"203 1 LINE",
"355 392 LINE",
"998 392 LINE",
"1147 0 LINE"
);
},
{
closed = 1;
nodes = (
"409 532 LINE",
"676 1248 LINE",
"944 532 LINE"
);
}
);
width = 1354;
}
);
leftKerningGroup = A;
rightKerningGroup = A;
unicode = 00C2;
},
{
glyphname = Adieresis;
lastChange = "2014-08-21 05:34:45 -0500";
layers = (
{
layerId = "84BF924C-12BE-451A-A75C-68D6DFA13EBD";
name = Regular;
paths = (
{
closed = 1;
nodes = (
"577 1681.33 OFFCURVE",
"574 1695.83 OFFCURVE",
"568 1709.5 CURVE SMOOTH",
"562 1723.17 OFFCURVE",
"553.833 1735 OFFCURVE",
"543.5 1745 CURVE SMOOTH",
"533.167 1755 OFFCURVE",
"521.167 1763 OFFCURVE",
"507.5 1769 CURVE SMOOTH",
"493.833 1775 OFFCURVE",
"479.667 1778 OFFCURVE",
"465 1778 CURVE SMOOTH",
"451 1778 OFFCURVE",
"437.5 1775 OFFCURVE",
"424.5 1769 CURVE SMOOTH",
"411.5 1763 OFFCURVE",
"400 1755 OFFCURVE",
"390 1745 CURVE SMOOTH",
"380 1735 OFFCURVE",
"372 1723.17 OFFCURVE",
"366 1709.5 CURVE SMOOTH",
"360 1695.83 OFFCURVE",
"357 1681.33 OFFCURVE",
"357 1666 CURVE SMOOTH",
"357 1651.33 OFFCURVE",
"360 1637.5 OFFCURVE",
"366 1624.5 CURVE SMOOTH",
"372 1611.5 OFFCURVE",
"380 1600 OFFCURVE",
"390 1590 CURVE SMOOTH",
"400 1580 OFFCURVE",
"411.5 1572.17 OFFCURVE",
"424.5 1566.5 CURVE SMOOTH",
"437.5 1560.83 OFFCURVE",
"451 1558 OFFCURVE",
"465 1558 CURVE SMOOTH",
"479.667 1558 OFFCURVE",
"493.833 1560.83 OFFCURVE",
"507.5 1566.5 CURVE SMOOTH",
"521.167 1572.17 OFFCURVE",
"533.167 1580 OFFCURVE",
"543.5 1590 CURVE SMOOTH",
"553.833 1600 OFFCURVE",
"562 1611.5 OFFCURVE",
"568 1624.5 CURVE SMOOTH",
"574 1637.5 OFFCURVE",
"577 1651.33 OFFCURVE",
"577 1666 CURVE SMOOTH"
);
},
{
closed = 1;
nodes = (
"995 1681.33 OFFCURVE",
"992 1695.83 OFFCURVE",
"986 1709.5 CURVE SMOOTH",
"980 1723.17 OFFCURVE",
"972 1735 OFFCURVE",
"962 1745 CURVE SMOOTH",
"952 1755 OFFCURVE",
"940.333 1763 OFFCURVE",
"927 1769 CURVE SMOOTH",
"913.667 1775 OFFCURVE",
"899.667 1778 OFFCURVE",
"885 1778 CURVE SMOOTH",
"869.667 1778 OFFCURVE",
"855.333 1775 OFFCURVE",
"842 1769 CURVE SMOOTH",
"828.667 1763 OFFCURVE",
"817 1755 OFFCURVE",
"807 1745 CURVE SMOOTH",
"797 1735 OFFCURVE",
"789.167 1723.17 OFFCURVE",
"783.5 1709.5 CURVE SMOOTH",
"777.833 1695.83 OFFCURVE",
"775 1681.33 OFFCURVE",
"775 1666 CURVE SMOOTH",
"775 1651.33 OFFCURVE",
"777.833 1637.5 OFFCURVE",
"783.5 1624.5 CURVE SMOOTH",
"789.167 1611.5 OFFCURVE",
"797 1600 OFFCURVE",
"807 1590 CURVE SMOOTH",
"817 1580 OFFCURVE",
"828.667 1572.17 OFFCURVE",
"842 1566.5 CURVE SMOOTH",
"855.333 1560.83 OFFCURVE",
"869.667 1558 OFFCURVE",
"885 1558 CURVE SMOOTH",
"899.667 1558 OFFCURVE",
"913.667 1560.83 OFFCURVE",
"927 1566.5 CURVE SMOOTH",
"940.333 1572.17 OFFCURVE",
"952 1580 OFFCURVE",
"962 1590 CURVE SMOOTH",
"972 1600 OFFCURVE",
"980 1611.5 OFFCURVE",
"986 1624.5 CURVE SMOOTH",
"992 1637.5 OFFCURVE",
"995 1651.33 OFFCURVE",
"995 1666 CURVE SMOOTH"
);
},
{
closed = 1;
nodes = (
"1348 0 LINE",
"775 1433 LINE",
"579 1433 LINE",
"6 0 LINE",
"203 1 LINE",
"355 392 LINE",
"998 392 LINE",
"1147 0 LINE"
);
},
{
closed = 1;
nodes = (
"409 532 LINE",
"676 1248 LINE",
"944 532 LINE"
);
}
);
width = 1354;
}
);
leftKerningGroup = A;
rightKerningGroup = A;
unicode = 00C4;
},
{
glyphname = Agrave;
lastChange = "2014-08-21 05:35:09 -0500";
layers = (
{
layerId = "84BF924C-12BE-451A-A75C-68D6DFA13EBD";
name = Regular;
paths = (
{
closed = 1;
nodes = (
"310 1852 LINE",
"622 1565 LINE SMOOTH",
"632 1555.67 OFFCURVE",
"641.167 1550.17 OFFCURVE",
"649.5 1548.5 CURVE SMOOTH",
"657.833 1546.83 OFFCURVE",
"669.333 1546 OFFCURVE",
"684 1546 CURVE SMOOTH",
"812 1546 LINE",
"584 1820 LINE",
"572.667 1834.67 OFFCURVE",
"561.333 1843.67 OFFCURVE",
"550 1847 CURVE SMOOTH",
"538.667 1850.33 OFFCURVE",
"522 1852 OFFCURVE",
"500 1852 CURVE SMOOTH"
);
},
{
closed = 1;
nodes = (
"1348 0 LINE",
"775 1433 LINE",
"579 1433 LINE",
"6 0 LINE",
"203 1 LINE",
"355 392 LINE",
"998 392 LINE",
"1147 0 LINE"
);
},
{
closed = 1;
nodes = (
"409 532 LINE",
"676 1248 LINE",
"944 532 LINE"
);
}
);
width = 1354;
}
);
leftKerningGroup = A;
rightKerningGroup = A;
unicode = 00C0;
},
{
glyphname = Aring;
lastChange = "2014-08-21 05:35:17 -0500";
layers = (
{
layerId = "84BF924C-12BE-451A-A75C-68D6DFA13EBD";
name = Regular;
paths = (
{
closed = 1;
nodes = (
"487 1671 OFFCURVE",
"492.167 1647.33 OFFCURVE",
"502.5 1626 CURVE SMOOTH",
"512.833 1604.67 OFFCURVE",
"526.5 1586.33 OFFCURVE",
"543.5 1571 CURVE SMOOTH",
"560.5 1555.67 OFFCURVE",
"580.333 1543.67 OFFCURVE",
"603 1535 CURVE SMOOTH",
"625.667 1526.33 OFFCURVE",
"649.667 1522 OFFCURVE",
"675 1522 CURVE SMOOTH",
"701 1522 OFFCURVE",
"725.667 1526.33 OFFCURVE",
"749 1535 CURVE SMOOTH",
"772.333 1543.67 OFFCURVE",
"792.667 1555.67 OFFCURVE",
"810 1571 CURVE SMOOTH",
"827.333 1586.33 OFFCURVE",
"841.167 1604.67 OFFCURVE",
"851.5 1626 CURVE SMOOTH",
"861.833 1647.33 OFFCURVE",
"867 1671 OFFCURVE",
"867 1697 CURVE SMOOTH",
"867 1723 OFFCURVE",
"861.833 1747 OFFCURVE",
"851.5 1769 CURVE SMOOTH",
"841.167 1791 OFFCURVE",
"827.333 1809.67 OFFCURVE",
"810 1825 CURVE SMOOTH",
"792.667 1840.33 OFFCURVE",
"772.333 1852.33 OFFCURVE",
"749 1861 CURVE SMOOTH",
"725.667 1869.67 OFFCURVE",
"701 1874 OFFCURVE",
"675 1874 CURVE SMOOTH",
"649.667 1874 OFFCURVE",
"625.667 1869.67 OFFCURVE",
"603 1861 CURVE SMOOTH",
"580.333 1852.33 OFFCURVE",
"560.5 1840.33 OFFCURVE",
"543.5 1825 CURVE SMOOTH",
"526.5 1809.67 OFFCURVE",
"512.833 1791 OFFCURVE",
"502.5 1769 CURVE SMOOTH",
"492.167 1747 OFFCURVE",
"487 1723 OFFCURVE",
"487 1697 CURVE SMOOTH"
);
},
{
closed = 1;
nodes = (
"576 1727 OFFCURVE",
"585 1751.33 OFFCURVE",
"603 1770 CURVE SMOOTH",
"621 1788.67 OFFCURVE",
"646 1798 OFFCURVE",
"678 1798 CURVE SMOOTH",
"708 1798 OFFCURVE",
"732.167 1788.67 OFFCURVE",
"750.5 1770 CURVE SMOOTH",
"768.833 1751.33 OFFCURVE",
"778 1727 OFFCURVE",
"778 1697 CURVE SMOOTH",
"778 1667.67 OFFCURVE",
"768.833 1643.67 OFFCURVE",
"750.5 1625 CURVE SMOOTH",
"732.167 1606.33 OFFCURVE",
"708 1597 OFFCURVE",
"678 1597 CURVE SMOOTH",
"646 1597 OFFCURVE",
"621 1606.33 OFFCURVE",
"603 1625 CURVE SMOOTH",
"585 1643.67 OFFCURVE",
"576 1667.67 OFFCURVE",
"576 1697 CURVE SMOOTH"
);
},
{
closed = 1;
nodes = (
"1348 0 LINE",
"775 1433 LINE",
"579 1433 LINE",
"6 0 LINE",
"203 1 LINE",
"355 392 LINE",
"998 392 LINE",
"1147 0 LINE"
);
},
{
closed = 1;
nodes = (
"409 532 LINE",
"676 1248 LINE",
"944 532 LINE"
);
}
);
width = 1354;
}
);
leftKerningGroup = A;
rightKerningGroup = A;
unicode = 00C5;
},
{
glyphname = Atilde;
lastChange = "2014-08-21 05:35:31 -0500";
layers = (
{
layerId = "84BF924C-12BE-451A-A75C-68D6DFA13EBD";
name = Regular;
paths = (
{
closed = 1;
nodes = (
"783.333 1663 OFFCURVE",
"765 1668.5 OFFCURVE",
"747 1679.5 CURVE SMOOTH",
"729 1690.5 OFFCURVE",
"710 1702.5 OFFCURVE",
"690 1715.5 CURVE SMOOTH",
"670 1728.5 OFFCURVE",
"648 1740.5 OFFCURVE",
"624 1751.5 CURVE SMOOTH",
"600 1762.5 OFFCURVE",
"573 1768 OFFCURVE",
"543 1768 CURVE SMOOTH",
"513.667 1768 OFFCURVE",
"487.667 1762 OFFCURVE",
"465 1750 CURVE SMOOTH",
"442.333 1738 OFFCURVE",
"423.333 1721.83 OFFCURVE",
"408 1701.5 CURVE SMOOTH",
"392.667 1681.17 OFFCURVE",
"380.833 1657.67 OFFCURVE",
"372.5 1631 CURVE SMOOTH",
"364.167 1604.33 OFFCURVE",
"360 1576.67 OFFCURVE",
"360 1548 CURVE",
"471 1548 LINE",
"471 1560 OFFCURVE",
"473 1572 OFFCURVE",
"477 1584 CURVE SMOOTH",
"481 1596 OFFCURVE",
"486.833 1606.83 OFFCURVE",
"494.5 1616.5 CURVE SMOOTH",
"502.167 1626.17 OFFCURVE",
"511.667 1634 OFFCURVE",
"523 1640 CURVE SMOOTH",
"534.333 1646 OFFCURVE",
"547.667 1649 OFFCURVE",
"563 1649 CURVE SMOOTH",
"581.667 1649 OFFCURVE",
"600 1643.5 OFFCURVE",
"618 1632.5 CURVE SMOOTH",
"636 1621.5 OFFCURVE",
"655.167 1609.5 OFFCURVE",
"675.5 1596.5 CURVE SMOOTH",
"695.833 1583.5 OFFCURVE",
"717.833 1571.5 OFFCURVE",
"741.5 1560.5 CURVE SMOOTH",
"765.167 1549.5 OFFCURVE",
"792 1544 OFFCURVE",
"822 1544 CURVE SMOOTH",
"851.333 1544 OFFCURVE",
"877.333 1550 OFFCURVE",
"900 1562 CURVE SMOOTH",
"922.667 1574 OFFCURVE",
"941.833 1590.17 OFFCURVE",
"957.5 1610.5 CURVE SMOOTH",
"973.167 1630.83 OFFCURVE",
"985 1654.17 OFFCURVE",
"993 1680.5 CURVE SMOOTH",
"1001 1706.83 OFFCURVE",
"1005 1734.33 OFFCURVE",
"1005 1763 CURVE",
"896 1763 LINE",
"896 1751 OFFCURVE",
"894 1739 OFFCURVE",
"890 1727 CURVE SMOOTH",
"886 1715 OFFCURVE",
"880 1704.17 OFFCURVE",
"872 1694.5 CURVE SMOOTH",
"864 1684.83 OFFCURVE",
"854.167 1677.17 OFFCURVE",
"842.5 1671.5 CURVE SMOOTH",
"830.833 1665.83 OFFCURVE",
"817.333 1663 OFFCURVE",
"802 1663 CURVE SMOOTH"
);
},
{
closed = 1;
nodes = (
"1348 0 LINE",
"775 1433 LINE",
"579 1433 LINE",
"6 0 LINE",
"203 1 LINE",
"355 392 LINE",
"998 392 LINE",
"1147 0 LINE"
);
},
{
closed = 1;
nodes = (
"409 532 LINE",
"676 1248 LINE",
"944 532 LINE"
);
}
);
width = 1354;
}
);
leftKerningGroup = A;
rightKerningGroup = A;
unicode = 00C3;
},
{
glyphname = AE;
lastChange = "2014-08-21 05:36:14 -0500";
layers = (
{
layerId = "84BF924C-12BE-451A-A75C-68D6DFA13EBD";
name = Regular;
paths = (
{
closed = 1;
nodes = (
"750 1433 LINE",
"-6 0 LINE",
"141 0 LINE",
"191 0 LINE",
"394 392 LINE",
"951 392 LINE",
"1000 0 LINE",
"1772 0 LINE",
"1773 158 LINE",
"1162 158 LINE",
"1101 647 LINE",
"1641 647 LINE",
"1641 799 LINE",
"1082 799 LINE",
"1023 1275 LINE",
"1772 1275 LINE",
"1772 1433 LINE"
);
},
{
closed = 1;
nodes = (
"467 532 LINE",
"839 1287 LINE",
"933 532 LINE"
);
}
);
width = 1861;
}
);
leftKerningGroup = AE;
rightKerningGroup = E;
unicode = 00C6;
},
{
glyphname = B;
layers = (
{
layerId = "84BF924C-12BE-451A-A75C-68D6DFA13EBD";
name = Regular;
paths = (
{
closed = 1;
nodes = (
"183 0 LINE",
"689 0 LINE SMOOTH",
"769 0 OFFCURVE",
"840.333 9.83333 OFFCURVE",
"903 29.5 CURVE SMOOTH",
"965.667 49.1667 OFFCURVE",
"1018.5 77 OFFCURVE",
"1061.5 113 CURVE SMOOTH",
"1104.5 149 OFFCURVE",
"1137.17 192 OFFCURVE",
"1159.5 242 CURVE SMOOTH",
"1181.83 292 OFFCURVE",
"1193 347.333 OFFCURVE",
"1193 408 CURVE SMOOTH",
"1193 497.333 OFFCURVE",
"1166.33 569.333 OFFCURVE",
"1113 624 CURVE SMOOTH",
"1059.67 678.667 OFFCURVE",
"980.667 716.333 OFFCURVE",
"876 737 CURVE",
"921.333 751 OFFCURVE",
"960.833 769 OFFCURVE",
"994.5 791 CURVE SMOOTH",
"1028.17 813 OFFCURVE",
"1056 838 OFFCURVE",
"1078 866 CURVE SMOOTH",
"1100 894 OFFCURVE",
"1116.5 924.333 OFFCURVE",
"1127.5 957 CURVE SMOOTH",
"1138.5 989.667 OFFCURVE",
"1144 1023.67 OFFCURVE",
"1144 1059 CURVE SMOOTH",
"1144 1117 OFFCURVE",
"1134.33 1169.17 OFFCURVE",
"1115 1215.5 CURVE SMOOTH",
"1095.67 1261.83 OFFCURVE",
"1065.5 1301 OFFCURVE",
"1024.5 1333 CURVE SMOOTH",
"983.5 1365 OFFCURVE",
"931.167 1389.67 OFFCURVE",
"867.5 1407 CURVE SMOOTH",
"803.833 1424.33 OFFCURVE",
"728 1433 OFFCURVE",
"640 1433 CURVE SMOOTH",
"183 1433 LINE"
);
},
{
closed = 1;
nodes = (
"376 653 LINE",
"686 653 LINE SMOOTH",
"791.333 653 OFFCURVE",
"870.333 631.5 OFFCURVE",
"923 588.5 CURVE SMOOTH",
"975.667 545.5 OFFCURVE",
"1002 487 OFFCURVE",
"1002 413 CURVE SMOOTH",
"1002 375 OFFCURVE",
"996 340.167 OFFCURVE",
"984 308.5 CURVE SMOOTH",
"972 276.833 OFFCURVE",
"953.167 249.5 OFFCURVE",
"927.5 226.5 CURVE SMOOTH",
"901.833 203.5 OFFCURVE",
"869 185.667 OFFCURVE",
"829 173 CURVE SMOOTH",
"789 160.333 OFFCURVE",
"741.333 154 OFFCURVE",
"686 154 CURVE SMOOTH",
"376 154 LINE"
);
},
{
closed = 1;
nodes = (
"376 791 LINE",
"376 1280 LINE",
"640 1280 LINE SMOOTH",
"746.667 1280 OFFCURVE",
"825.333 1260.5 OFFCURVE",
"876 1221.5 CURVE SMOOTH",
"926.667 1182.5 OFFCURVE",
"952 1120.67 OFFCURVE",
"952 1036 CURVE SMOOTH",
"952 1000 OFFCURVE",
"945.667 966.833 OFFCURVE",
"933 936.5 CURVE SMOOTH",
"920.333 906.167 OFFCURVE",
"900.833 880.333 OFFCURVE",
"874.5 859 CURVE SMOOTH",
"848.167 837.667 OFFCURVE",
"814.833 821 OFFCURVE",
"774.5 809 CURVE SMOOTH",
"734.167 797 OFFCURVE",
"686.667 791 OFFCURVE",
"632 791 CURVE SMOOTH"
);
}
);
width = 1293;
}
);
leftKerningGroup = B;
rightKerningGroup = B;
unicode = 0042;
},
{
glyphname = C;
lastChange = "2014-08-21 05:37:46 -0500";
layers = (
{
layerId = "84BF924C-12BE-451A-A75C-68D6DFA13EBD";
name = Regular;
paths = (
{
closed = 1;
nodes = (
"1164 279 LINE",
"1139 256 OFFCURVE",
"1105.5 238.833 OFFCURVE",
"1080.5 222.5 CURVE SMOOTH",
"1055.5 206.167 OFFCURVE",
"1028.5 192.667 OFFCURVE",
"999.5 182 CURVE SMOOTH",
"970.5 171.333 OFFCURVE",
"938.833 163.5 OFFCURVE",
"904.5 158.5 CURVE SMOOTH",
"870.167 153.5 OFFCURVE",
"831.667 151 OFFCURVE",
"789 151 CURVE SMOOTH",
"719 151 OFFCURVE",
"653.833 163.667 OFFCURVE",
"593.5 189 CURVE SMOOTH",
"533.167 214.333 OFFCURVE",
"480.833 251.167 OFFCURVE",
"436.5 299.5 CURVE SMOOTH",
"392.167 347.833 OFFCURVE",
"357.167 407 OFFCURVE",
"331.5 477 CURVE SMOOTH",
"305.833 547 OFFCURVE",
"293 626.667 OFFCURVE",
"293 716 CURVE SMOOTH",
"293 804 OFFCURVE",
"305.333 883 OFFCURVE",
"330 953 CURVE SMOOTH",
"354.667 1023 OFFCURVE",
"389.167 1082.33 OFFCURVE",
"433.5 1131 CURVE SMOOTH",
"477.833 1179.67 OFFCURVE",
"530.667 1216.83 OFFCURVE",
"592 1242.5 CURVE SMOOTH",
"653.333 1268.17 OFFCURVE",
"721 1281 OFFCURVE",
"795 1281 CURVE SMOOTH",
"856.333 1281 OFFCURVE",
"908 1274.5 OFFCURVE",
"950 1261.5 CURVE SMOOTH",
"992 1248.5 OFFCURVE",
"1027 1234 OFFCURVE",
"1055 1218 CURVE SMOOTH",
"1083 1202 OFFCURVE",
"1118 1186 OFFCURVE",
"1135 1173 CURVE",
"1175 1140 LINE",
"1272 1267 LINE",
"1212.67 1323 OFFCURVE",
"1144 1367.33 OFFCURVE",
"1066 1400 CURVE SMOOTH",
"988 1432.67 OFFCURVE",
"898 1449 OFFCURVE",
"796 1449 CURVE SMOOTH",
"692 1449 OFFCURVE",
"597 1431.17 OFFCURVE",
"511 1395.5 CURVE SMOOTH",
"425 1359.83 OFFCURVE",
"351.166 1309.67 OFFCURVE",
"289.5 1245 CURVE SMOOTH",
"227.833 1180.33 OFFCURVE",
"180 1103 OFFCURVE",
"146 1013 CURVE SMOOTH",
"112 923 OFFCURVE",
"94.9998 824 OFFCURVE",
"94.9998 716 CURVE SMOOTH",
"94.9998 608 OFFCURVE",
"111.333 509 OFFCURVE",
"144 419 CURVE SMOOTH",
"176.666 329 OFFCURVE",
"222.666 251.833 OFFCURVE",
"282 187.5 CURVE SMOOTH",
"341.333 123.167 OFFCURVE",
"413 73.1667 OFFCURVE",
"497 37.5 CURVE SMOOTH",
"581 1.83333 OFFCURVE",
"674.333 -16 OFFCURVE",
"777 -16 CURVE SMOOTH",
"895.666 -16 OFFCURVE",
"996.833 3 OFFCURVE",
"1080.5 41 CURVE SMOOTH",
"1164.17 79 OFFCURVE",
"1235.33 132 OFFCURVE",
"1294 200 CURVE",
"1192 306 LINE"
);
}
);
width = 1336;
}
);
leftKerningGroup = C;
rightKerningGroup = C;
unicode = 0043;
},
{
glyphname = Ccedilla;
lastChange = "2014-08-21 05:38:31 -0500";
layers = (
{
layerId = "84BF924C-12BE-451A-A75C-68D6DFA13EBD";
name = Regular;
paths = (
{
closed = 1;
nodes = (
"1192 306 LINE",
"1164 279 LINE SMOOTH",
"1139 256 OFFCURVE",
"1106 239 OFFCURVE",
"1081 223 CURVE SMOOTH",
"1056 206 OFFCURVE",
"1029 193 OFFCURVE",
"1000 182 CURVE SMOOTH",
"971 171 OFFCURVE",
"939 164 OFFCURVE",
"905 159 CURVE SMOOTH",
"870 154 OFFCURVE",
"832 151 OFFCURVE",
"789 151 CURVE SMOOTH",
"719 151 OFFCURVE",
"654 164 OFFCURVE",
"594 189 CURVE SMOOTH",
"533 214 OFFCURVE",
"481 251 OFFCURVE",
"437 300 CURVE SMOOTH",
"392 348 OFFCURVE",
"357 407 OFFCURVE",
"332 477 CURVE SMOOTH",
"306 547 OFFCURVE",
"293 627 OFFCURVE",
"293 716 CURVE SMOOTH",
"293 804 OFFCURVE",
"305 883 OFFCURVE",
"330 953 CURVE SMOOTH",
"355 1023 OFFCURVE",
"389 1082 OFFCURVE",
"434 1131 CURVE SMOOTH",
"478 1180 OFFCURVE",
"531 1217 OFFCURVE",
"592 1243 CURVE SMOOTH",
"653 1268 OFFCURVE",
"721 1281 OFFCURVE",
"795 1281 CURVE SMOOTH",
"856 1281 OFFCURVE",
"908 1275 OFFCURVE",
"950 1262 CURVE SMOOTH",
"992 1249 OFFCURVE",
"1027 1234 OFFCURVE",
"1055 1218 CURVE SMOOTH",
"1083 1202 OFFCURVE",
"1118 1186 OFFCURVE",
"1135 1173 CURVE",
"1175 1140 LINE",
"1272 1267 LINE",
"1213 1323 OFFCURVE",
"1144 1367 OFFCURVE",
"1066 1400 CURVE SMOOTH",
"988 1433 OFFCURVE",
"898 1449 OFFCURVE",
"796 1449 CURVE SMOOTH",
"692 1449 OFFCURVE",
"597 1431 OFFCURVE",
"511 1396 CURVE SMOOTH",
"425 1360 OFFCURVE",
"351 1310 OFFCURVE",
"290 1245 CURVE SMOOTH",
"228 1180 OFFCURVE",
"180 1103 OFFCURVE",
"146 1013 CURVE SMOOTH",
"112 923 OFFCURVE",
"95 824 OFFCURVE",
"95 716 CURVE SMOOTH",
"95 608 OFFCURVE",
"111 509 OFFCURVE",
"144 419 CURVE SMOOTH",
"177 329 OFFCURVE",
"223 252 OFFCURVE",
"282 188 CURVE SMOOTH",
"341 123 OFFCURVE",
"413 73 OFFCURVE",
"497 38 CURVE SMOOTH",
"566.49 8.2186 OFFCURVE",
"642.139 -9 OFFCURVE",
"724.514 -14 CURVE",
"683 -137 LINE",
"734 -144 OFFCURVE",
"774 -152 OFFCURVE",
"802 -163 CURVE SMOOTH",
"830 -173 OFFCURVE",
"844 -191 OFFCURVE",
"844 -216 CURVE SMOOTH",
"844 -233 OFFCURVE",
"837 -248 OFFCURVE",
"823 -259 CURVE SMOOTH",
"808 -270 OFFCURVE",
"787 -276 OFFCURVE",
"759 -276 CURVE SMOOTH",
"745 -276 OFFCURVE",
"733 -275 OFFCURVE",
"723 -273 CURVE",
"712 -270 OFFCURVE",
"703 -268 OFFCURVE",
"696 -265 CURVE SMOOTH",
"676 -257 LINE",
"671 -254 OFFCURVE",
"666 -253 OFFCURVE",
"662 -253 CURVE SMOOTH",
"651 -253 OFFCURVE",
"643 -259 OFFCURVE",
"639 -271 CURVE SMOOTH",
"622 -326 LINE",
"643 -335 OFFCURVE",
"665 -343 OFFCURVE",
"690 -349 CURVE",
"715 -354 OFFCURVE",
"741 -357 OFFCURVE",
"768 -357 CURVE SMOOTH",
"800 -357 OFFCURVE",
"829 -354 OFFCURVE",
"856 -348 CURVE",
"883 -341 OFFCURVE",
"906 -332 OFFCURVE",
"925 -320 CURVE SMOOTH",
"944 -308 OFFCURVE",
"958 -293 OFFCURVE",
"969 -276 CURVE SMOOTH",
"980 -259 OFFCURVE",
"985 -239 OFFCURVE",
"985 -218 CURVE SMOOTH",
"985 -182 OFFCURVE",
"971 -152 OFFCURVE",
"944 -129 CURVE SMOOTH",
"916 -106 OFFCURVE",
"871 -88 OFFCURVE",
"809 -75 CURVE",
"827.521 -15 LINE",
"924.868 -10 OFFCURVE",
"1009.15 8.4976 OFFCURVE",
"1081 40.9999 CURVE SMOOTH",
"1164 78.9999 OFFCURVE",
"1235 132 OFFCURVE",
"1294 200 CURVE"
);
}
);
width = 1336;
}
);
leftKerningGroup = C;
rightKerningGroup = C;
unicode = 00C7;
},
{
glyphname = D;
layers = (
{
layerId = "84BF924C-12BE-451A-A75C-68D6DFA13EBD";
name = Regular;
paths = (
{
closed = 1;
nodes = (
"1425 823.333 OFFCURVE",
"1408 921 OFFCURVE",
"1374 1009 CURVE SMOOTH",
"1340 1097 OFFCURVE",
"1292 1172.5 OFFCURVE",
"1230 1235.5 CURVE SMOOTH",
"1168 1298.5 OFFCURVE",
"1093.5 1347.17 OFFCURVE",
"1006.5 1381.5 CURVE SMOOTH",
"919.5 1415.83 OFFCURVE",
"823.333 1433 OFFCURVE",
"718 1433 CURVE SMOOTH",
"183 1433 LINE",
"183 0 LINE",
"718 0 LINE SMOOTH",
"823.333 0 OFFCURVE",
"919.5 17.1667 OFFCURVE",
"1006.5 51.5 CURVE SMOOTH",
"1093.5 85.8333 OFFCURVE",
"1168 134.333 OFFCURVE",
"1230 197 CURVE SMOOTH",
"1292 259.667 OFFCURVE",
"1340 335 OFFCURVE",
"1374 423 CURVE SMOOTH",
"1408 511 OFFCURVE",
"1425 608.667 OFFCURVE",
"1425 716 CURVE SMOOTH"
);
},
{
closed = 1;
nodes = (
"1226 628 OFFCURVE",
"1214 549.333 OFFCURVE",
"1190 480 CURVE SMOOTH",
"1166 410.667 OFFCURVE",
"1132 352.167 OFFCURVE",
"1088 304.5 CURVE SMOOTH",
"1044 256.833 OFFCURVE",
"990.667 220.333 OFFCURVE",
"928 195 CURVE SMOOTH",
"865.333 169.667 OFFCURVE",
"795.333 157 OFFCURVE",
"718 157 CURVE SMOOTH",
"377 157 LINE",
"377 1276 LINE",
"718 1276 LINE SMOOTH",
"795.333 1276 OFFCURVE",
"865.333 1263.33 OFFCURVE",
"928 1238 CURVE SMOOTH",
"990.667 1212.67 OFFCURVE",
"1044 1176 OFFCURVE",
"1088 1128 CURVE SMOOTH",
"1132 1080 OFFCURVE",
"1166 1021.33 OFFCURVE",
"1190 952 CURVE SMOOTH",
"1214 882.667 OFFCURVE",
"1226 804 OFFCURVE",
"1226 716 CURVE SMOOTH"
);
}
);
width = 1521;
}
);
leftKerningGroup = B;
rightKerningGroup = D;
unicode = 0044;
},
{
glyphname = Eth;
layers = (
{
layerId = "84BF924C-12BE-451A-A75C-68D6DFA13EBD";
name = Regular;
paths = (
{
closed = 1;
nodes = (
"3 780 LINE",
"3 666 LINE",
"199 666 LINE",
"199 0 LINE",
"735 0 LINE SMOOTH",
"840.333 0 OFFCURVE",
"936.333 17.1667 OFFCURVE",
"1023 51.5 CURVE SMOOTH",
"1109.67 85.8333 OFFCURVE",
"1184 134.333 OFFCURVE",
"1246 197 CURVE SMOOTH",
"1308 259.667 OFFCURVE",
"1356 335 OFFCURVE",
"1390 423 CURVE SMOOTH",
"1424 511 OFFCURVE",
"1441 608.667 OFFCURVE",
"1441 716 CURVE SMOOTH",
"1441 823.333 OFFCURVE",
"1424 921 OFFCURVE",
"1390 1009 CURVE SMOOTH",
"1356 1097 OFFCURVE",
"1308 1172.5 OFFCURVE",
"1246 1235.5 CURVE SMOOTH",
"1184 1298.5 OFFCURVE",
"1109.67 1347.17 OFFCURVE",
"1023 1381.5 CURVE SMOOTH",
"936.333 1415.83 OFFCURVE",
"840.333 1433 OFFCURVE",
"735 1433 CURVE SMOOTH",
"199 1433 LINE",
"199 780 LINE"
);
},
{
closed = 1;
nodes = (
"1242 628 OFFCURVE",
"1230 549.333 OFFCURVE",
"1206 480 CURVE SMOOTH",
"1182 410.667 OFFCURVE",
"1148 352.167 OFFCURVE",
"1104 304.5 CURVE SMOOTH",
"1060 256.833 OFFCURVE",
"1006.67 220.333 OFFCURVE",
"944 195 CURVE SMOOTH",
"881.333 169.667 OFFCURVE",
"811.667 157 OFFCURVE",
"735 157 CURVE SMOOTH",
"394 157 LINE",
"394 666 LINE",
"684 666 LINE",
"684 780 LINE",
"394 780 LINE",
"394 1276 LINE",
"735 1276 LINE SMOOTH",
"811.667 1276 OFFCURVE",
"881.333 1263.33 OFFCURVE",
"944 1238 CURVE SMOOTH",
"1006.67 1212.67 OFFCURVE",
"1060 1176 OFFCURVE",
"1104 1128 CURVE SMOOTH",
"1148 1080 OFFCURVE",
"1182 1021.33 OFFCURVE",
"1206 952 CURVE SMOOTH",
"1230 882.667 OFFCURVE",
"1242 804 OFFCURVE",
"1242 716 CURVE SMOOTH"
);
}
);
width = 1537;
}
);
leftKerningGroup = B;
rightKerningGroup = D;
unicode = 00D0;
},
{
glyphname = E;
lastChange = "2014-08-24 06:26:23 -0500";
layers = (
{
layerId = "84BF924C-12BE-451A-A75C-68D6DFA13EBD";
name = Regular;
paths = (
{
closed = 1;
nodes = (
"1066 1433 LINE",
"183 1433 LINE",
"183 0 LINE",
"1066 0 LINE",
"1067 158 LINE",
"377 158 LINE",
"377 647 LINE",
"1067 647 LINE",
"1067 799 LINE",
"377 799 LINE",
"377 1275 LINE",
"1066 1275 LINE"
);
}
);
width = 1155;
}
);
leftKerningGroup = B;
rightKerningGroup = E;
unicode = 0045;
},
{
glyphname = Eacute;
lastChange = "2014-08-24 06:26:32 -0500";
layers = (
{
layerId = "84BF924C-12BE-451A-A75C-68D6DFA13EBD";
name = Regular;
paths = (
{
closed = 1;
nodes = (
"1015 1852 LINE",
"814 1852 LINE SMOOTH",
"792 1852 OFFCURVE",
"775.167 1850.33 OFFCURVE",
"763.5 1847 CURVE SMOOTH",
"751.833 1843.67 OFFCURVE",
"740.333 1834.67 OFFCURVE",
"729 1820 CURVE",
"498 1546 LINE",
"626 1546 LINE SMOOTH",
"639.333 1546 OFFCURVE",
"650.667 1547 OFFCURVE",
"660 1549 CURVE SMOOTH",
"669.333 1551 OFFCURVE",
"679 1556.67 OFFCURVE",
"689 1566 CURVE SMOOTH"
);
},
{
closed = 1;
nodes = (
"1066 1433 LINE",
"183 1433 LINE",
"183 0 LINE",
"1066 0 LINE",
"1067 158 LINE",
"377 158 LINE",
"377 647 LINE",
"1067 647 LINE",
"1067 799 LINE",
"377 799 LINE",
"377 1275 LINE",
"1066 1275 LINE"
);
}
);
width = 1155;
}
);
leftKerningGroup = B;
rightKerningGroup = E;
unicode = 00C9;
},
{
glyphname = Ecircumflex;
lastChange = "2014-08-24 06:26:38 -0500";
layers = (
{
layerId = "84BF924C-12BE-451A-A75C-68D6DFA13EBD";
name = Regular;
paths = (
{
closed = 1;
nodes = (
"958 1546 LINE",
"720 1817 LINE",
"560 1817 LINE",
"321 1546 LINE",
"446 1546 LINE SMOOTH",
"454 1546 OFFCURVE",
"463.5 1547.5 OFFCURVE",
"474.5 1550.5 CURVE SMOOTH",
"485.5 1553.5 OFFCURVE",
"496.667 1561.67 OFFCURVE",
"508 1575 CURVE SMOOTH",
"625 1716 LINE",
"637 1733 LINE",
"641 1727 OFFCURVE",
"645 1721.33 OFFCURVE",
"649 1716 CURVE",
"766 1575 LINE SMOOTH",
"777.333 1561.67 OFFCURVE",
"788.5 1553.5 OFFCURVE",
"799.5 1550.5 CURVE SMOOTH",
"810.5 1547.5 OFFCURVE",
"820 1546 OFFCURVE",
"828 1546 CURVE SMOOTH"
);
},
{
closed = 1;
nodes = (
"1066 1433 LINE",
"183 1433 LINE",
"183 0 LINE",
"1066 0 LINE",
"1067 158 LINE",
"377 158 LINE",
"377 647 LINE",
"1067 647 LINE",
"1067 799 LINE",
"377 799 LINE",
"377 1275 LINE",
"1066 1275 LINE"
);
}
);
width = 1155;
}
);
leftKerningGroup = B;
rightKerningGroup = E;
unicode = 00CA;
},
{
glyphname = Edieresis;
lastChange = "2014-08-24 06:26:43 -0500";
layers = (
{
layerId = "84BF924C-12BE-451A-A75C-68D6DFA13EBD";
name = Regular;
paths = (
{
closed = 1;
nodes = (
"538 1681.33 OFFCURVE",
"535 1695.83 OFFCURVE",
"529 1709.5 CURVE SMOOTH",
"523 1723.17 OFFCURVE",
"514.833 1735 OFFCURVE",
"504.5 1745 CURVE SMOOTH",
"494.167 1755 OFFCURVE",
"482.167 1763 OFFCURVE",
"468.5 1769 CURVE SMOOTH",
"454.833 1775 OFFCURVE",
"440.667 1778 OFFCURVE",
"426 1778 CURVE SMOOTH",
"412 1778 OFFCURVE",
"398.5 1775 OFFCURVE",
"385.5 1769 CURVE SMOOTH",
"372.5 1763 OFFCURVE",
"361 1755 OFFCURVE",
"351 1745 CURVE SMOOTH",
"341 1735 OFFCURVE",
"333 1723.17 OFFCURVE",
"327 1709.5 CURVE SMOOTH",
"321 1695.83 OFFCURVE",
"318 1681.33 OFFCURVE",
"318 1666 CURVE SMOOTH",
"318 1651.33 OFFCURVE",
"321 1637.5 OFFCURVE",
"327 1624.5 CURVE SMOOTH",
"333 1611.5 OFFCURVE",
"341 1600 OFFCURVE",
"351 1590 CURVE SMOOTH",
"361 1580 OFFCURVE",
"372.5 1572.17 OFFCURVE",
"385.5 1566.5 CURVE SMOOTH",
"398.5 1560.83 OFFCURVE",
"412 1558 OFFCURVE",
"426 1558 CURVE SMOOTH",
"440.667 1558 OFFCURVE",
"454.833 1560.83 OFFCURVE",
"468.5 1566.5 CURVE SMOOTH",
"482.167 1572.17 OFFCURVE",
"494.167 1580 OFFCURVE",
"504.5 1590 CURVE SMOOTH",
"514.833 1600 OFFCURVE",
"523 1611.5 OFFCURVE",
"529 1624.5 CURVE SMOOTH",
"535 1637.5 OFFCURVE",
"538 1651.33 OFFCURVE",
"538 1666 CURVE SMOOTH"
);
},
{
closed = 1;
nodes = (
"956 1681.33 OFFCURVE",
"953 1695.83 OFFCURVE",
"947 1709.5 CURVE SMOOTH",
"941 1723.17 OFFCURVE",
"933 1735 OFFCURVE",
"923 1745 CURVE SMOOTH",
"913 1755 OFFCURVE",
"901.333 1763 OFFCURVE",
"888 1769 CURVE SMOOTH",
"874.667 1775 OFFCURVE",
"860.667 1778 OFFCURVE",
"846 1778 CURVE SMOOTH",
"830.667 1778 OFFCURVE",
"816.333 1775 OFFCURVE",
"803 1769 CURVE SMOOTH",
"789.667 1763 OFFCURVE",
"778 1755 OFFCURVE",
"768 1745 CURVE SMOOTH",
"758 1735 OFFCURVE",
"750.167 1723.17 OFFCURVE",
"744.5 1709.5 CURVE SMOOTH",
"738.833 1695.83 OFFCURVE",
"736 1681.33 OFFCURVE",
"736 1666 CURVE SMOOTH",
"736 1651.33 OFFCURVE",
"738.833 1637.5 OFFCURVE",
"744.5 1624.5 CURVE SMOOTH",
"750.167 1611.5 OFFCURVE",
"758 1600 OFFCURVE",
"768 1590 CURVE SMOOTH",
"778 1580 OFFCURVE",
"789.667 1572.17 OFFCURVE",
"803 1566.5 CURVE SMOOTH",
"816.333 1560.83 OFFCURVE",
"830.667 1558 OFFCURVE",
"846 1558 CURVE SMOOTH",
"860.667 1558 OFFCURVE",
"874.667 1560.83 OFFCURVE",
"888 1566.5 CURVE SMOOTH",
"901.333 1572.17 OFFCURVE",
"913 1580 OFFCURVE",
"923 1590 CURVE SMOOTH",
"933 1600 OFFCURVE",
"941 1611.5 OFFCURVE",
"947 1624.5 CURVE SMOOTH",
"953 1637.5 OFFCURVE",
"956 1651.33 OFFCURVE",
"956 1666 CURVE SMOOTH"
);
},
{
closed = 1;
nodes = (
"1066 1433 LINE",
"183 1433 LINE",
"183 0 LINE",
"1066 0 LINE",
"1067 158 LINE",
"377 158 LINE",
"377 647 LINE",
"1067 647 LINE",
"1067 799 LINE",
"377 799 LINE",
"377 1275 LINE",
"1066 1275 LINE"
);
}
);
width = 1155;
}
);
leftKerningGroup = B;
rightKerningGroup = E;
unicode = 00CB;
},
{
glyphname = Egrave;
lastChange = "2014-08-24 06:26:52 -0500";
layers = (
{
layerId = "84BF924C-12BE-451A-A75C-68D6DFA13EBD";
name = Regular;
paths = (
{
closed = 1;
nodes = (
"270 1852 LINE",
"582 1565 LINE SMOOTH",
"592 1555.67 OFFCURVE",
"601.167 1550.17 OFFCURVE",
"609.5 1548.5 CURVE SMOOTH",
"617.833 1546.83 OFFCURVE",
"629.333 1546 OFFCURVE",
"644 1546 CURVE SMOOTH",
"772 1546 LINE",
"544 1820 LINE",
"532.667 1834.67 OFFCURVE",
"521.333 1843.67 OFFCURVE",
"510 1847 CURVE SMOOTH",
"498.667 1850.33 OFFCURVE",
"482 1852 OFFCURVE",
"460 1852 CURVE SMOOTH"
);
},
{
closed = 1;
nodes = (
"1066 1433 LINE",
"183 1433 LINE",
"183 0 LINE",
"1066 0 LINE",
"1067 158 LINE",
"377 158 LINE",
"377 647 LINE",
"1067 647 LINE",
"1067 799 LINE",
"377 799 LINE",
"377 1275 LINE",
"1066 1275 LINE"
);
}
);
width = 1155;
}
);
leftKerningGroup = B;
rightKerningGroup = E;
unicode = 00C8;
},
{
glyphname = F;
lastChange = "2014-08-24 06:27:10 -0500";
layers = (
{
layerId = "84BF924C-12BE-451A-A75C-68D6DFA13EBD";
name = Regular;
paths = (
{
closed = 1;
nodes = (
"1066 1433 LINE",
"183 1433 LINE",
"183 0 LINE",
"377 0 LINE",
"377 616 LINE",
"1066 616 LINE",
"1066 774 LINE",
"377 774 LINE",
"377 1275 LINE",
"1066 1275 LINE"
);
}
);
width = 1131;
}
);
leftKerningGroup = B;
rightKerningGroup = F;
unicode = 0046;
},
{
glyphname = G;
lastChange = "2014-08-21 05:24:36 -0500";
layers = (
{
layerId = "84BF924C-12BE-451A-A75C-68D6DFA13EBD";
name = Regular;
paths = (
{
closed = 1;
nodes = (
"1347 139 LINE",
"1347 689 LINE",
"772 689 LINE",
"772 541 LINE",
"1172 541 LINE",
"1172 225 LINE",
"1146.67 211.667 OFFCURVE",
"1121.67 199.833 OFFCURVE",
"1097 189.5 CURVE SMOOTH",
"1072.33 179.167 OFFCURVE",
"1046.67 170.5 OFFCURVE",
"1020 163.5 CURVE SMOOTH",
"993.333 156.5 OFFCURVE",
"965.5 151 OFFCURVE",
"936.5 147 CURVE SMOOTH",
"907.5 143 OFFCURVE",
"876.333 141 OFFCURVE",
"843 141 CURVE SMOOTH",
"758.333 141 OFFCURVE",
"682 154 OFFCURVE",
"614 180 CURVE SMOOTH",
"546 206 OFFCURVE",
"488.167 243.833 OFFCURVE",
"440.5 293.5 CURVE SMOOTH",
"392.833 343.167 OFFCURVE",
"356.167 403.5 OFFCURVE",
"330.5 474.5 CURVE SMOOTH",
"304.833 545.5 OFFCURVE",
"292 626 OFFCURVE",
"292 716 CURVE SMOOTH",
"292 802.667 OFFCURVE",
"304.333 880.833 OFFCURVE",
"329 950.5 CURVE SMOOTH",
"353.667 1020.17 OFFCURVE",
"389 1079.5 OFFCURVE",
"435 1128.5 CURVE SMOOTH",
"481 1177.5 OFFCURVE",
"536.667 1215.17 OFFCURVE",
"602 1241.5 CURVE SMOOTH",
"667.333 1267.83 OFFCURVE",
"740.333 1281 OFFCURVE",
"821 1281 CURVE SMOOTH",
"876.333 1281 OFFCURVE",
"924.167 1276.67 OFFCURVE",
"964.5 1268 CURVE SMOOTH",
"1004.83 1259.33 OFFCURVE",
"1039.83 1248.83 OFFCURVE",
"1069.5 1236.5 CURVE SMOOTH",
"1099.17 1224.17 OFFCURVE",
"1124.33 1211.33 OFFCURVE",
"1145 1198 CURVE SMOOTH",
"1165.67 1184.67 OFFCURVE",
"1189 1172 OFFCURVE",
"1205 1160 CURVE",
"1236 1139 LINE",
"1334 1268 LINE",
"1303.33 1296 OFFCURVE",
"1270.33 1321.17 OFFCURVE",
"1235 1343.5 CURVE SMOOTH",
"1199.67 1365.83 OFFCURVE",
"1161.33 1384.83 OFFCURVE",
"1120 1400.5 CURVE SMOOTH",
"1078.67 1416.17 OFFCURVE",
"1033.67 1428.17 OFFCURVE",
"984.999 1436.5 CURVE SMOOTH",
"936.333 1444.83 OFFCURVE",
"883.666 1449 OFFCURVE",
"826.999 1449 CURVE SMOOTH",
"714.999 1449 OFFCURVE",
"613.666 1431.33 OFFCURVE",
"522.999 1396 CURVE SMOOTH",
"432.333 1360.67 OFFCURVE",
"355.333 1310.83 OFFCURVE",
"291.999 1246.5 CURVE SMOOTH",
"228.666 1182.17 OFFCURVE",
"179.833 1105 OFFCURVE",
"145.499 1015 CURVE SMOOTH",
"111.166 925 OFFCURVE",
"93.9995 825.333 OFFCURVE",
"93.9995 716 CURVE SMOOTH",
"93.9995 608 OFFCURVE",
"111.666 509 OFFCURVE",
"146.999 419 CURVE SMOOTH",
"182.333 329 OFFCURVE",
"232.833 251.833 OFFCURVE",
"298.499 187.5 CURVE SMOOTH",
"364.166 123.166 OFFCURVE",
"443.333 73.1664 OFFCURVE",
"535.999 37.4998 CURVE SMOOTH",
"628.666 1.83308 OFFCURVE",
"732.666 -16 OFFCURVE",
"847.999 -16 CURVE SMOOTH",
"945.333 -16 OFFCURVE",
"1034.83 -3 OFFCURVE",
"1116.5 22.4998 CURVE SMOOTH",
"1198.17 48.1664 OFFCURVE",
"1275 86.9998 OFFCURVE",
"1347 139 CURVE"
);
}
);
width = 1461;
}
);
leftKerningGroup = C;
rightKerningGroup = G;
unicode = 0047;
},
{
glyphname = H;
layers = (
{
layerId = "84BF924C-12BE-451A-A75C-68D6DFA13EBD";
name = Regular;
paths = (
{
closed = 1;
nodes = (
"1344 0 LINE",
"1344 1433 LINE",
"1150 1433 LINE",
"1150 794 LINE",
"377 794 LINE",
"377 1433 LINE",
"183 1433 LINE",
"183 0 LINE",
"377 0 LINE",
"377 652 LINE",
"1150 652 LINE",
"1150 0 LINE"
);
}
);
width = 1527;
}
);
leftKerningGroup = B;
rightKerningGroup = H;
unicode = 0048;
},
{
glyphname = I;
layers = (
{
layerId = "84BF924C-12BE-451A-A75C-68D6DFA13EBD";
name = Regular;
paths = (
{
closed = 1;
nodes = (
"377 0 LINE",
"377 1433 LINE",
"183 1433 LINE",
"183 0 LINE"
);
}
);
width = 560;
}
);
leftKerningGroup = B;
rightKerningGroup = H;
unicode = 0049;
},
{
glyphname = Iacute;
layers = (
{
layerId = "84BF924C-12BE-451A-A75C-68D6DFA13EBD";
name = Regular;
paths = (
{
closed = 1;
nodes = (
"144 0 LINE"
);
},
{
closed = 1;
nodes = (
"377 0 LINE",
"377 1433 LINE",
"183 1433 LINE",
"183 0 LINE"
);
},
{
closed = 1;
nodes = (
"661 1852 LINE",
"460 1852 LINE SMOOTH",
"438 1852 OFFCURVE",
"421.167 1850.33 OFFCURVE",
"409.5 1847 CURVE SMOOTH",
"397.833 1843.67 OFFCURVE",
"386.333 1834.67 OFFCURVE",
"375 1820 CURVE",
"144 1546 LINE",
"272 1546 LINE SMOOTH",
"285.333 1546 OFFCURVE",
"296.667 1547 OFFCURVE",
"306 1549 CURVE SMOOTH",
"315.333 1551 OFFCURVE",
"325 1556.67 OFFCURVE",
"335 1566 CURVE SMOOTH"
);
}
);
width = 560;
}
);
leftKerningGroup = B;
rightKerningGroup = H;
unicode = 00CD;
},
{
glyphname = Icircumflex;
layers = (
{
layerId = "84BF924C-12BE-451A-A75C-68D6DFA13EBD";
name = Regular;
paths = (
{
closed = 1;
nodes = (
"0 0 LINE"
);
},
{
closed = 1;
nodes = (
"377 0 LINE",
"377 1433 LINE",
"183 1433 LINE",
"183 0 LINE"
);
},
{
closed = 1;
nodes = (
"604 1546 LINE",
"366 1817 LINE",
"206 1817 LINE",
"-33 1546 LINE",
"92 1546 LINE SMOOTH",
"100 1546 OFFCURVE",
"109.5 1547.5 OFFCURVE",
"120.5 1550.5 CURVE SMOOTH",
"131.5 1553.5 OFFCURVE",
"142.667 1561.67 OFFCURVE",
"154 1575 CURVE SMOOTH",
"271 1716 LINE",
"283 1733 LINE",
"287 1727 OFFCURVE",
"291 1721.33 OFFCURVE",
"295 1716 CURVE",
"412 1575 LINE SMOOTH",
"423.333 1561.67 OFFCURVE",
"434.5 1553.5 OFFCURVE",
"445.5 1550.5 CURVE SMOOTH",
"456.5 1547.5 OFFCURVE",
"466 1546 OFFCURVE",
"474 1546 CURVE SMOOTH"
);
}
);
width = 560;
}
);
leftKerningGroup = B;
rightKerningGroup = H;
unicode = 00CE;
},
{
glyphname = Idieresis;
layers = (
{
layerId = "84BF924C-12BE-451A-A75C-68D6DFA13EBD";
name = Regular;
paths = (
{
closed = 1;
nodes = (
"0 0 LINE"
);
},
{
closed = 1;
nodes = (
"377 0 LINE",
"377 1433 LINE",
"183 1433 LINE",
"183 0 LINE"
);
},
{
closed = 1;
nodes = (
"184 1681.33 OFFCURVE",
"181 1695.83 OFFCURVE",
"175 1709.5 CURVE SMOOTH",
"169 1723.17 OFFCURVE",
"160.833 1735 OFFCURVE",
"150.5 1745 CURVE SMOOTH",
"140.167 1755 OFFCURVE",
"128.167 1763 OFFCURVE",
"114.5 1769 CURVE SMOOTH",
"100.833 1775 OFFCURVE",
"86.6667 1778 OFFCURVE",
"72 1778 CURVE SMOOTH",
"58 1778 OFFCURVE",
"44.5 1775 OFFCURVE",
"31.5 1769 CURVE SMOOTH",
"18.5 1763 OFFCURVE",
"7 1755 OFFCURVE",
"-3 1745 CURVE SMOOTH",
"-13 1735 OFFCURVE",
"-21 1723.17 OFFCURVE",
"-27 1709.5 CURVE SMOOTH",
"-33 1695.83 OFFCURVE",
"-36 1681.33 OFFCURVE",
"-36 1666 CURVE SMOOTH",
"-36 1651.33 OFFCURVE",
"-33 1637.5 OFFCURVE",
"-27 1624.5 CURVE SMOOTH",
"-21 1611.5 OFFCURVE",
"-13 1600 OFFCURVE",
"-3 1590 CURVE SMOOTH",
"7 1580 OFFCURVE",
"18.5 1572.17 OFFCURVE",
"31.5 1566.5 CURVE SMOOTH",
"44.5 1560.83 OFFCURVE",
"58 1558 OFFCURVE",
"72 1558 CURVE SMOOTH",
"86.6667 1558 OFFCURVE",
"100.833 1560.83 OFFCURVE",
"114.5 1566.5 CURVE SMOOTH",
"128.167 1572.17 OFFCURVE",
"140.167 1580 OFFCURVE",
"150.5 1590 CURVE SMOOTH",
"160.833 1600 OFFCURVE",
"169 1611.5 OFFCURVE",
"175 1624.5 CURVE SMOOTH",
"181 1637.5 OFFCURVE",
"184 1651.33 OFFCURVE",
"184 1666 CURVE SMOOTH"
);
},
{
closed = 1;
nodes = (
"602 1681.33 OFFCURVE",
"599 1695.83 OFFCURVE",
"593 1709.5 CURVE SMOOTH",
"587 1723.17 OFFCURVE",
"579 1735 OFFCURVE",
"569 1745 CURVE SMOOTH",
"559 1755 OFFCURVE",
"547.333 1763 OFFCURVE",
"534 1769 CURVE SMOOTH",
"520.667 1775 OFFCURVE",
"506.667 1778 OFFCURVE",
"492 1778 CURVE SMOOTH",
"476.667 1778 OFFCURVE",
"462.333 1775 OFFCURVE",
"449 1769 CURVE SMOOTH",
"435.667 1763 OFFCURVE",
"424 1755 OFFCURVE",
"414 1745 CURVE SMOOTH",
"404 1735 OFFCURVE",
"396.167 1723.17 OFFCURVE",
"390.5 1709.5 CURVE SMOOTH",
"384.833 1695.83 OFFCURVE",
"382 1681.33 OFFCURVE",
"382 1666 CURVE SMOOTH",
"382 1651.33 OFFCURVE",
"384.833 1637.5 OFFCURVE",
"390.5 1624.5 CURVE SMOOTH",
"396.167 1611.5 OFFCURVE",
"404 1600 OFFCURVE",
"414 1590 CURVE SMOOTH",
"424 1580 OFFCURVE",
"435.667 1572.17 OFFCURVE",
"449 1566.5 CURVE SMOOTH",
"462.333 1560.83 OFFCURVE",
"476.667 1558 OFFCURVE",
"492 1558 CURVE SMOOTH",
"506.667 1558 OFFCURVE",
"520.667 1560.83 OFFCURVE",
"534 1566.5 CURVE SMOOTH",
"547.333 1572.17 OFFCURVE",
"559 1580 OFFCURVE",
"569 1590 CURVE SMOOTH",
"579 1600 OFFCURVE",
"587 1611.5 OFFCURVE",
"593 1624.5 CURVE SMOOTH",
"599 1637.5 OFFCURVE",
"602 1651.33 OFFCURVE",
"602 1666 CURVE SMOOTH"
);
}
);
width = 560;
}
);
leftKerningGroup = B;
rightKerningGroup = H;
unicode = 00CF;
},
{
glyphname = Igrave;
layers = (
{
layerId = "84BF924C-12BE-451A-A75C-68D6DFA13EBD";
name = Regular;
paths = (
{
closed = 1;
nodes = (
"0 0 LINE"
);
},
{
closed = 1;
nodes = (
"377 0 LINE",
"377 1433 LINE",
"183 1433 LINE",
"183 0 LINE"
);
},
{
closed = 1;
nodes = (
"-84 1852 LINE",
"228 1565 LINE SMOOTH",
"238 1555.67 OFFCURVE",
"247.167 1550.17 OFFCURVE",
"255.5 1548.5 CURVE SMOOTH",
"263.833 1546.83 OFFCURVE",
"275.333 1546 OFFCURVE",
"290 1546 CURVE SMOOTH",
"418 1546 LINE",
"190 1820 LINE",
"178.667 1834.67 OFFCURVE",
"167.333 1843.67 OFFCURVE",
"156 1847 CURVE SMOOTH",
"144.667 1850.33 OFFCURVE",
"128 1852 OFFCURVE",
"106 1852 CURVE SMOOTH"
);
}
);
width = 560;
}
);
leftKerningGroup = B;
rightKerningGroup = H;
unicode = 00CC;
},
{
glyphname = J;
lastChange = "2014-08-21 05:39:53 -0500";
layers = (
{
anchors = (
{
name = top;
position = "{641, 1433}";
}
);
background = {
paths = (
{
closed = 1;
nodes = (
"677 1433 LINE",
"483 1433 LINE",
"483 491 LINE SMOOTH",
"483 431 OFFCURVE",
"477 379 OFFCURVE",
"465 336 CURVE SMOOTH",
"452 292 OFFCURVE",
"434 256 OFFCURVE",
"411 228 CURVE SMOOTH",
"388 200 OFFCURVE",
"359 179 OFFCURVE",
"324 166 CURVE SMOOTH",
"289 153 OFFCURVE",
"250 146 OFFCURVE",
"206 146 CURVE SMOOTH",
"173 146 OFFCURVE",
"146 149 OFFCURVE",
"127 155 CURVE",
"226 -16 LINE",
"299 -16 OFFCURVE",
"363 -4 OFFCURVE",
"419 19 CURVE SMOOTH",
"475 42 OFFCURVE",
"522 76 OFFCURVE",
"561 120 CURVE SMOOTH",
"599 163 OFFCURVE",
"628 217 OFFCURVE",
"648 280 CURVE SMOOTH",
"667 343 OFFCURVE",
"677 415 OFFCURVE",
"677 495 CURVE SMOOTH"
);
},
{
closed = 0;
nodes = (
"184 473 LINE",
"147 473 OFFCURVE",
"114 476 OFFCURVE",
"85 483 CURVE SMOOTH",
"56 490 OFFCURVE",
"30 499 OFFCURVE",
"7 510 CURVE SMOOTH",
"-16 520 OFFCURVE",
"-37 532 OFFCURVE",
"-55 545 CURVE SMOOTH",
"-73 557 OFFCURVE",
"-89 569 OFFCURVE",
"-103 580 CURVE SMOOTH",
"-117 590 OFFCURVE",
"-129 599 OFFCURVE",
"-140 606 CURVE SMOOTH",
"-151 613 OFFCURVE",
"-161 617 OFFCURVE",
"-170 617 CURVE SMOOTH",
"-179 617 OFFCURVE",
"-188 614 OFFCURVE",
"-195 609 CURVE SMOOTH",
"-203 604 OFFCURVE",
"-210 598 OFFCURVE",
"-215 591 CURVE",
"-271 499 LINE",
"-217 441 OFFCURVE",
"-152 396 OFFCURVE",
"-76 362 CURVE SMOOTH",
"0 328 OFFCURVE",
"85 312 OFFCURVE",
"178 312 CURVE SMOOTH"
);
}
);
};
layerId = "84BF924C-12BE-451A-A75C-68D6DFA13EBD";
name = Regular;
paths = (
{
closed = 1;
nodes = (
"701 1433 LINE",
"701 491 LINE SMOOTH",
"701 431 OFFCURVE",
"695 379 OFFCURVE",
"683 336 CURVE SMOOTH",
"670 292 OFFCURVE",
"652 256 OFFCURVE",
"629 228 CURVE SMOOTH",
"606 200 OFFCURVE",
"577 179 OFFCURVE",
"542 166 CURVE SMOOTH",
"510.039 154.378 OFFCURVE",
"475.264 147.446 OFFCURVE",
"436.766 146.112 CURVE",
"415.215 148.076 OFFCURVE",
"394.644 150.094 OFFCURVE",
"376 155 CURVE SMOOTH",
"347 162 OFFCURVE",
"321 171 OFFCURVE",
"298 182 CURVE",
"275 192 OFFCURVE",
"254 204 OFFCURVE",
"236 217 CURVE",
"218 229 OFFCURVE",
"202 237 OFFCURVE",
"188 248 CURVE",
"174 258 OFFCURVE",
"162 268 OFFCURVE",
"151 275 CURVE",
"111 305 LINE",
"19.9999 171 LINE",
"73.9999 113 OFFCURVE",
"139 68 OFFCURVE",
"215 34 CURVE SMOOTH",
"286 2 OFFCURVE",
"365 -14 OFFCURVE",
"448 -16 CURVE",
"464 -16 LINE",
"529 -14 OFFCURVE",
"586 -2 OFFCURVE",
"637 19 CURVE SMOOTH",
"692 42 OFFCURVE",
"739 75 OFFCURVE",
"779 120 CURVE SMOOTH",
"817 163 OFFCURVE",
"846 217 OFFCURVE",
"866 280 CURVE SMOOTH",
"885 343 OFFCURVE",
"895 415 OFFCURVE",
"895 495 CURVE SMOOTH",
"895 1433 LINE"
);
},
{
closed = 1;
nodes = (
"433 146 LINE SMOOTH",
"433.071 146 OFFCURVE",
"433.136 145.93 OFFCURVE",
"433.199 145.79 CURVE",
"429 146 LINE"
);
}
);
width = 1063;
}
);
leftKerningGroup = J;
rightKerningGroup = J;
unicode = 004A;
},
{
glyphname = K;
lastChange = "2014-08-24 05:31:11 -0500";
layers = (
{
layerId = "84BF924C-12BE-451A-A75C-68D6DFA13EBD";
name = Regular;
paths = (
{
closed = 1;
nodes = (
"1270 1433 LINE",
"1051 1433 LINE",
"376 822 LINE",
"376 1433 LINE",
"183 1433 LINE",
"183 0 LINE",
"376 0 LINE",
"376 559 LINE",
"484.807 665.373 LINE",
"1051 0 LINE",
"1270 0 LINE",
"605.05 782.926 LINE"
);
}
);
width = 1325;
}
);
leftKerningGroup = B;
rightKerningGroup = K;
unicode = 004B;
},
{
glyphname = L;
layers = (
{
layerId = "84BF924C-12BE-451A-A75C-68D6DFA13EBD";
name = Regular;
paths = (
{
closed = 1;
nodes = (
"376 163 LINE",
"376 1433 LINE",
"183 1433 LINE",
"183 0 LINE",
"996 0 LINE",
"996 163 LINE"
);
}
);
width = 1027;
}
);
leftKerningGroup = B;
rightKerningGroup = L;
unicode = 004C;
},
{
glyphname = M;
lastChange = "2014-08-24 06:21:37 -0500";
layers = (
{
layerId = "84BF924C-12BE-451A-A75C-68D6DFA13EBD";
name = Regular;
paths = (
{
closed = 1;
nodes = (
"375 1433 LINE",
"183 1433 LINE",
"183 0 LINE",
"353 0 LINE",
"353 1129 LINE",
"934 100 LINE SMOOTH",
"1504 1129 LINE",
"1504 0 LINE",
"1674 0 LINE",
"1674 1433 LINE",
"1484 1433 LINE",
"933 439 LINE"
);
}
);
width = 1857;
}
);
leftKerningGroup = B;
rightKerningGroup = H;
unicode = 004D;
},
{
glyphname = N;
lastChange = "2014-08-24 06:19:25 -0500";
layers = (
{
layerId = "84BF924C-12BE-451A-A75C-68D6DFA13EBD";
name = Regular;
paths = (
{
closed = 1;
nodes = (
"183 1433 LINE",
"183 0 LINE",
"353 0 LINE",
"349 1114 LINE",
"1203 0 LINE",
"1344 0 LINE",
"1344 1433 LINE",
"1174 1433 LINE",
"1179 321 LINE",
"328 1433 LINE"
);
}
);
width = 1527;
}
);
leftKerningGroup = B;
rightKerningGroup = H;
unicode = 004E;
},
{
glyphname = Ntilde;
lastChange = "2014-08-24 06:19:41 -0500";
layers = (
{
layerId = "84BF924C-12BE-451A-A75C-68D6DFA13EBD";
name = Regular;
paths = (
{
closed = 1;
nodes = (
"885.333 1662 OFFCURVE",
"867 1667.5 OFFCURVE",
"849 1678.5 CURVE SMOOTH",
"831 1689.5 OFFCURVE",
"812 1701.5 OFFCURVE",
"792 1714.5 CURVE SMOOTH",
"772 1727.5 OFFCURVE",
"750 1739.5 OFFCURVE",
"726 1750.5 CURVE SMOOTH",
"702 1761.5 OFFCURVE",
"675 1767 OFFCURVE",
"645 1767 CURVE SMOOTH",
"615.667 1767 OFFCURVE",
"589.667 1761 OFFCURVE",
"567 1749 CURVE SMOOTH",
"544.333 1737 OFFCURVE",
"525.333 1720.83 OFFCURVE",
"510 1700.5 CURVE SMOOTH",
"494.667 1680.17 OFFCURVE",
"482.833 1656.67 OFFCURVE",
"474.5 1630 CURVE SMOOTH",
"466.167 1603.33 OFFCURVE",
"462 1575.67 OFFCURVE",
"462 1547 CURVE",
"573 1547 LINE",
"573 1559 OFFCURVE",
"575 1571 OFFCURVE",
"579 1583 CURVE SMOOTH",
"583 1595 OFFCURVE",
"588.833 1605.83 OFFCURVE",
"596.5 1615.5 CURVE SMOOTH",
"604.167 1625.17 OFFCURVE",
"613.667 1633 OFFCURVE",
"625 1639 CURVE SMOOTH",
"636.333 1645 OFFCURVE",
"649.667 1648 OFFCURVE",
"665 1648 CURVE SMOOTH",
"683.667 1648 OFFCURVE",
"702 1642.5 OFFCURVE",
"720 1631.5 CURVE SMOOTH",
"738 1620.5 OFFCURVE",
"757.167 1608.5 OFFCURVE",
"777.5 1595.5 CURVE SMOOTH",
"797.833 1582.5 OFFCURVE",
"819.833 1570.5 OFFCURVE",
"843.5 1559.5 CURVE SMOOTH",
"867.167 1548.5 OFFCURVE",
"894 1543 OFFCURVE",
"924 1543 CURVE SMOOTH",
"953.333 1543 OFFCURVE",
"979.333 1549 OFFCURVE",
"1002 1561 CURVE SMOOTH",
"1024.67 1573 OFFCURVE",
"1043.83 1589.17 OFFCURVE",
"1059.5 1609.5 CURVE SMOOTH",
"1075.17 1629.83 OFFCURVE",
"1087 1653.17 OFFCURVE",
"1095 1679.5 CURVE SMOOTH",
"1103 1705.83 OFFCURVE",
"1107 1733.33 OFFCURVE",
"1107 1762 CURVE",
"998 1762 LINE",
"998 1750 OFFCURVE",
"996 1738 OFFCURVE",
"992 1726 CURVE SMOOTH",
"988 1714 OFFCURVE",
"982 1703.17 OFFCURVE",
"974 1693.5 CURVE SMOOTH",
"966 1683.83 OFFCURVE",
"956.167 1676.17 OFFCURVE",
"944.5 1670.5 CURVE SMOOTH",
"932.833 1664.83 OFFCURVE",
"919.333 1662 OFFCURVE",
"904 1662 CURVE SMOOTH"
);
},
{
closed = 1;
nodes = (
"183 1433 LINE",
"183 0 LINE",
"353 0 LINE",
"349 1114 LINE",
"1203 0 LINE",
"1344 0 LINE",
"1344 1433 LINE",
"1174 1433 LINE",
"1179 321 LINE",
"328 1433 LINE"
);
}
);
width = 1527;
}
);
leftKerningGroup = B;
rightKerningGroup = H;
unicode = 00D1;
},
{
glyphname = O;
layers = (
{
layerId = "84BF924C-12BE-451A-A75C-68D6DFA13EBD";
name = Regular;
paths = (
{
closed = 1;
nodes = (
"1507 823.333 OFFCURVE",
"1490 921.833 OFFCURVE",
"1456 1011.5 CURVE SMOOTH",
"1422 1101.17 OFFCURVE",
"1374 1178.5 OFFCURVE",
"1312 1243.5 CURVE SMOOTH",
"1250 1308.5 OFFCURVE",
"1175.5 1359 OFFCURVE",
"1088.5 1395 CURVE SMOOTH",
"1001.5 1431 OFFCURVE",
"905.333 1449 OFFCURVE",
"800 1449 CURVE SMOOTH",
"694.667 1449 OFFCURVE",
"598.667 1431 OFFCURVE",
"512 1395 CURVE SMOOTH",
"425.333 1359 OFFCURVE",
"351 1308.5 OFFCURVE",
"289 1243.5 CURVE SMOOTH",
"227 1178.5 OFFCURVE",
"179 1101.17 OFFCURVE",
"145 1011.5 CURVE SMOOTH",
"111 921.833 OFFCURVE",
"94 823.333 OFFCURVE",
"94 716 CURVE SMOOTH",
"94 608.667 OFFCURVE",
"111 510.167 OFFCURVE",
"145 420.5 CURVE SMOOTH",
"179 330.833 OFFCURVE",
"227 253.667 OFFCURVE",
"289 189 CURVE SMOOTH",
"351 124.333 OFFCURVE",
"425.333 74.1666 OFFCURVE",
"512 38.4999 CURVE SMOOTH",
"598.667 2.83325 OFFCURVE",
"694.667 -15 OFFCURVE",
"800 -15 CURVE SMOOTH",
"905.333 -15 OFFCURVE",
"1001.5 2.83325 OFFCURVE",
"1088.5 38.4999 CURVE SMOOTH",
"1175.5 74.1666 OFFCURVE",
"1250 124.333 OFFCURVE",
"1312 189 CURVE SMOOTH",
"1374 253.667 OFFCURVE",
"1422 330.833 OFFCURVE",
"1456 420.5 CURVE SMOOTH",
"1490 510.167 OFFCURVE",
"1507 608.667 OFFCURVE",
"1507 716 CURVE SMOOTH"
);
},
{
closed = 1;
nodes = (
"1308 628 OFFCURVE",
"1296 549.167 OFFCURVE",
"1272 479.5 CURVE SMOOTH",
"1248 409.833 OFFCURVE",
"1214 350.833 OFFCURVE",
"1170 302.5 CURVE SMOOTH",
"1126 254.167 OFFCURVE",
"1072.67 217.167 OFFCURVE",
"1010 191.5 CURVE SMOOTH",
"947.333 165.833 OFFCURVE",
"877.333 153 OFFCURVE",
"800 153 CURVE SMOOTH",
"723.333 153 OFFCURVE",
"653.667 165.833 OFFCURVE",
"591 191.5 CURVE SMOOTH",
"528.333 217.167 OFFCURVE",
"474.833 254.167 OFFCURVE",
"430.5 302.5 CURVE SMOOTH",
"386.167 350.833 OFFCURVE",
"352 409.833 OFFCURVE",
"328 479.5 CURVE SMOOTH",
"304 549.167 OFFCURVE",
"292 628 OFFCURVE",
"292 716 CURVE SMOOTH",
"292 804 OFFCURVE",
"304 883 OFFCURVE",
"328 953 CURVE SMOOTH",
"352 1023 OFFCURVE",
"386.167 1082.17 OFFCURVE",
"430.5 1130.5 CURVE SMOOTH",
"474.833 1178.83 OFFCURVE",
"528.333 1216 OFFCURVE",
"591 1242 CURVE SMOOTH",
"653.667 1268 OFFCURVE",
"723.333 1281 OFFCURVE",
"800 1281 CURVE SMOOTH",
"877.333 1281 OFFCURVE",
"947.333 1268 OFFCURVE",
"1010 1242 CURVE SMOOTH",
"1072.67 1216 OFFCURVE",
"1126 1178.83 OFFCURVE",
"1170 1130.5 CURVE SMOOTH",
"1214 1082.17 OFFCURVE",
"1248 1023 OFFCURVE",
"1272 953 CURVE SMOOTH",
"1296 883 OFFCURVE",
"1308 804 OFFCURVE",
"1308 716 CURVE SMOOTH"
);
}
);
width = 1601;
}
);
leftKerningGroup = C;
rightKerningGroup = O;
unicode = 004F;
},
{
glyphname = Oacute;
layers = (
{
layerId = "84BF924C-12BE-451A-A75C-68D6DFA13EBD";
name = Regular;
paths = (
{
closed = 1;
nodes = (
"94 0 LINE"
);
},
{
closed = 1;
nodes = (
"1507 823.333 OFFCURVE",
"1490 921.833 OFFCURVE",
"1456 1011.5 CURVE SMOOTH",
"1422 1101.17 OFFCURVE",
"1374 1178.5 OFFCURVE",
"1312 1243.5 CURVE SMOOTH",
"1250 1308.5 OFFCURVE",
"1175.5 1359 OFFCURVE",
"1088.5 1395 CURVE SMOOTH",
"1001.5 1431 OFFCURVE",
"905.333 1449 OFFCURVE",
"800 1449 CURVE SMOOTH",
"694.667 1449 OFFCURVE",
"598.667 1431 OFFCURVE",
"512 1395 CURVE SMOOTH",
"425.333 1359 OFFCURVE",
"351 1308.5 OFFCURVE",
"289 1243.5 CURVE SMOOTH",
"227 1178.5 OFFCURVE",
"179 1101.17 OFFCURVE",
"145 1011.5 CURVE SMOOTH",
"111 921.833 OFFCURVE",
"94 823.333 OFFCURVE",
"94 716 CURVE SMOOTH",
"94 608.667 OFFCURVE",
"111 510.167 OFFCURVE",
"145 420.5 CURVE SMOOTH",
"179 330.833 OFFCURVE",
"227 253.667 OFFCURVE",
"289 189 CURVE SMOOTH",
"351 124.333 OFFCURVE",
"425.333 74.1666 OFFCURVE",
"512 38.4999 CURVE SMOOTH",
"598.667 2.83325 OFFCURVE",
"694.667 -15 OFFCURVE",
"800 -15 CURVE SMOOTH",
"905.333 -15 OFFCURVE",
"1001.5 2.83325 OFFCURVE",
"1088.5 38.4999 CURVE SMOOTH",
"1175.5 74.1666 OFFCURVE",
"1250 124.333 OFFCURVE",
"1312 189 CURVE SMOOTH",
"1374 253.667 OFFCURVE",
"1422 330.833 OFFCURVE",
"1456 420.5 CURVE SMOOTH",
"1490 510.167 OFFCURVE",
"1507 608.667 OFFCURVE",
"1507 716 CURVE SMOOTH"
);
},
{
closed = 1;
nodes = (
"1308 628 OFFCURVE",
"1296 549.167 OFFCURVE",
"1272 479.5 CURVE SMOOTH",
"1248 409.833 OFFCURVE",
"1214 350.833 OFFCURVE",
"1170 302.5 CURVE SMOOTH",
"1126 254.167 OFFCURVE",
"1072.67 217.167 OFFCURVE",
"1010 191.5 CURVE SMOOTH",
"947.333 165.833 OFFCURVE",
"877.333 153 OFFCURVE",
"800 153 CURVE SMOOTH",
"723.333 153 OFFCURVE",
"653.667 165.833 OFFCURVE",
"591 191.5 CURVE SMOOTH",
"528.333 217.167 OFFCURVE",
"474.833 254.167 OFFCURVE",
"430.5 302.5 CURVE SMOOTH",
"386.167 350.833 OFFCURVE",
"352 409.833 OFFCURVE",
"328 479.5 CURVE SMOOTH",
"304 549.167 OFFCURVE",
"292 628 OFFCURVE",
"292 716 CURVE SMOOTH",
"292 804 OFFCURVE",
"304 883 OFFCURVE",
"328 953 CURVE SMOOTH",
"352 1023 OFFCURVE",
"386.167 1082.17 OFFCURVE",
"430.5 1130.5 CURVE SMOOTH",
"474.833 1178.83 OFFCURVE",
"528.333 1216 OFFCURVE",
"591 1242 CURVE SMOOTH",
"653.667 1268 OFFCURVE",
"723.333 1281 OFFCURVE",
"800 1281 CURVE SMOOTH",
"877.333 1281 OFFCURVE",
"947.333 1268 OFFCURVE",
"1010 1242 CURVE SMOOTH",
"1072.67 1216 OFFCURVE",
"1126 1178.83 OFFCURVE",
"1170 1130.5 CURVE SMOOTH",
"1214 1082.17 OFFCURVE",
"1248 1023 OFFCURVE",
"1272 953 CURVE SMOOTH",
"1296 883 OFFCURVE",
"1308 804 OFFCURVE",
"1308 716 CURVE SMOOTH"
);
},
{
closed = 1;
nodes = (
"1180 1852 LINE",
"979 1852 LINE SMOOTH",
"957 1852 OFFCURVE",
"940.167 1850.33 OFFCURVE",
"928.5 1847 CURVE SMOOTH",
"916.833 1843.67 OFFCURVE",
"905.333 1834.67 OFFCURVE",
"894 1820 CURVE",
"663 1546 LINE",
"791 1546 LINE SMOOTH",
"804.333 1546 OFFCURVE",
"815.667 1547 OFFCURVE",
"825 1549 CURVE SMOOTH",
"834.333 1551 OFFCURVE",
"844 1556.67 OFFCURVE",
"854 1566 CURVE SMOOTH"
);
}
);
width = 1601;
}
);
leftKerningGroup = C;
rightKerningGroup = O;
unicode = 00D3;
},
{
glyphname = Ocircumflex;
layers = (
{
layerId = "84BF924C-12BE-451A-A75C-68D6DFA13EBD";
name = Regular;
paths = (
{
closed = 1;
nodes = (
"94 0 LINE"
);
},
{
closed = 1;
nodes = (
"1507 823.333 OFFCURVE",
"1490 921.833 OFFCURVE",
"1456 1011.5 CURVE SMOOTH",
"1422 1101.17 OFFCURVE",
"1374 1178.5 OFFCURVE",
"1312 1243.5 CURVE SMOOTH",
"1250 1308.5 OFFCURVE",
"1175.5 1359 OFFCURVE",
"1088.5 1395 CURVE SMOOTH",
"1001.5 1431 OFFCURVE",
"905.333 1449 OFFCURVE",
"800 1449 CURVE SMOOTH",
"694.667 1449 OFFCURVE",
"598.667 1431 OFFCURVE",
"512 1395 CURVE SMOOTH",
"425.333 1359 OFFCURVE",
"351 1308.5 OFFCURVE",
"289 1243.5 CURVE SMOOTH",
"227 1178.5 OFFCURVE",
"179 1101.17 OFFCURVE",
"145 1011.5 CURVE SMOOTH",
"111 921.833 OFFCURVE",
"94 823.333 OFFCURVE",
"94 716 CURVE SMOOTH",
"94 608.667 OFFCURVE",
"111 510.167 OFFCURVE",
"145 420.5 CURVE SMOOTH",
"179 330.833 OFFCURVE",
"227 253.667 OFFCURVE",
"289 189 CURVE SMOOTH",
"351 124.333 OFFCURVE",
"425.333 74.1666 OFFCURVE",
"512 38.4999 CURVE SMOOTH",
"598.667 2.83325 OFFCURVE",
"694.667 -15 OFFCURVE",
"800 -15 CURVE SMOOTH",
"905.333 -15 OFFCURVE",
"1001.5 2.83325 OFFCURVE",
"1088.5 38.4999 CURVE SMOOTH",
"1175.5 74.1666 OFFCURVE",
"1250 124.333 OFFCURVE",
"1312 189 CURVE SMOOTH",
"1374 253.667 OFFCURVE",
"1422 330.833 OFFCURVE",
"1456 420.5 CURVE SMOOTH",
"1490 510.167 OFFCURVE",
"1507 608.667 OFFCURVE",
"1507 716 CURVE SMOOTH"
);
},
{
closed = 1;
nodes = (
"1308 628 OFFCURVE",
"1296 549.167 OFFCURVE",
"1272 479.5 CURVE SMOOTH",
"1248 409.833 OFFCURVE",
"1214 350.833 OFFCURVE",
"1170 302.5 CURVE SMOOTH",
"1126 254.167 OFFCURVE",
"1072.67 217.167 OFFCURVE",
"1010 191.5 CURVE SMOOTH",
"947.333 165.833 OFFCURVE",
"877.333 153 OFFCURVE",
"800 153 CURVE SMOOTH",
"723.333 153 OFFCURVE",
"653.667 165.833 OFFCURVE",
"591 191.5 CURVE SMOOTH",
"528.333 217.167 OFFCURVE",
"474.833 254.167 OFFCURVE",
"430.5 302.5 CURVE SMOOTH",
"386.167 350.833 OFFCURVE",
"352 409.833 OFFCURVE",
"328 479.5 CURVE SMOOTH",
"304 549.167 OFFCURVE",
"292 628 OFFCURVE",
"292 716 CURVE SMOOTH",
"292 804 OFFCURVE",
"304 883 OFFCURVE",
"328 953 CURVE SMOOTH",
"352 1023 OFFCURVE",
"386.167 1082.17 OFFCURVE",
"430.5 1130.5 CURVE SMOOTH",
"474.833 1178.83 OFFCURVE",
"528.333 1216 OFFCURVE",
"591 1242 CURVE SMOOTH",
"653.667 1268 OFFCURVE",
"723.333 1281 OFFCURVE",
"800 1281 CURVE SMOOTH",
"877.333 1281 OFFCURVE",
"947.333 1268 OFFCURVE",
"1010 1242 CURVE SMOOTH",
"1072.67 1216 OFFCURVE",
"1126 1178.83 OFFCURVE",
"1170 1130.5 CURVE SMOOTH",
"1214 1082.17 OFFCURVE",
"1248 1023 OFFCURVE",
"1272 953 CURVE SMOOTH",
"1296 883 OFFCURVE",
"1308 804 OFFCURVE",
"1308 716 CURVE SMOOTH"
);
},
{
closed = 1;
nodes = (
"1123 1546 LINE",
"885 1817 LINE",
"725 1817 LINE",
"486 1546 LINE",
"611 1546 LINE SMOOTH",
"619 1546 OFFCURVE",
"628.5 1547.5 OFFCURVE",
"639.5 1550.5 CURVE SMOOTH",
"650.5 1553.5 OFFCURVE",
"661.667 1561.67 OFFCURVE",
"673 1575 CURVE SMOOTH",
"790 1716 LINE",
"802 1733 LINE",
"806 1727 OFFCURVE",
"810 1721.33 OFFCURVE",
"814 1716 CURVE",
"931 1575 LINE SMOOTH",
"942.333 1561.67 OFFCURVE",
"953.5 1553.5 OFFCURVE",
"964.5 1550.5 CURVE SMOOTH",
"975.5 1547.5 OFFCURVE",
"985 1546 OFFCURVE",
"993 1546 CURVE SMOOTH"
);
}
);
width = 1601;
}
);
leftKerningGroup = C;
rightKerningGroup = O;
unicode = 00D4;
},
{
glyphname = Odieresis;
layers = (
{
layerId = "84BF924C-12BE-451A-A75C-68D6DFA13EBD";
name = Regular;
paths = (
{
closed = 1;
nodes = (
"94 0 LINE"
);
},
{
closed = 1;
nodes = (
"1507 823.333 OFFCURVE",
"1490 921.833 OFFCURVE",
"1456 1011.5 CURVE SMOOTH",
"1422 1101.17 OFFCURVE",
"1374 1178.5 OFFCURVE",
"1312 1243.5 CURVE SMOOTH",
"1250 1308.5 OFFCURVE",
"1175.5 1359 OFFCURVE",
"1088.5 1395 CURVE SMOOTH",
"1001.5 1431 OFFCURVE",
"905.333 1449 OFFCURVE",
"800 1449 CURVE SMOOTH",
"694.667 1449 OFFCURVE",
"598.667 1431 OFFCURVE",
"512 1395 CURVE SMOOTH",
"425.333 1359 OFFCURVE",
"351 1308.5 OFFCURVE",
"289 1243.5 CURVE SMOOTH",
"227 1178.5 OFFCURVE",
"179 1101.17 OFFCURVE",
"145 1011.5 CURVE SMOOTH",
"111 921.833 OFFCURVE",
"94 823.333 OFFCURVE",
"94 716 CURVE SMOOTH",
"94 608.667 OFFCURVE",
"111 510.167 OFFCURVE",
"145 420.5 CURVE SMOOTH",
"179 330.833 OFFCURVE",
"227 253.667 OFFCURVE",
"289 189 CURVE SMOOTH",
"351 124.333 OFFCURVE",
"425.333 74.1666 OFFCURVE",
"512 38.4999 CURVE SMOOTH",
"598.667 2.83325 OFFCURVE",
"694.667 -15 OFFCURVE",
"800 -15 CURVE SMOOTH",
"905.333 -15 OFFCURVE",
"1001.5 2.83325 OFFCURVE",
"1088.5 38.4999 CURVE SMOOTH",
"1175.5 74.1666 OFFCURVE",
"1250 124.333 OFFCURVE",
"1312 189 CURVE SMOOTH",
"1374 253.667 OFFCURVE",
"1422 330.833 OFFCURVE",
"1456 420.5 CURVE SMOOTH",
"1490 510.167 OFFCURVE",
"1507 608.667 OFFCURVE",
"1507 716 CURVE SMOOTH"
);
},
{
closed = 1;
nodes = (
"1308 628 OFFCURVE",
"1296 549.167 OFFCURVE",
"1272 479.5 CURVE SMOOTH",
"1248 409.833 OFFCURVE",
"1214 350.833 OFFCURVE",
"1170 302.5 CURVE SMOOTH",
"1126 254.167 OFFCURVE",
"1072.67 217.167 OFFCURVE",
"1010 191.5 CURVE SMOOTH",
"947.333 165.833 OFFCURVE",
"877.333 153 OFFCURVE",
"800 153 CURVE SMOOTH",
"723.333 153 OFFCURVE",
"653.667 165.833 OFFCURVE",
"591 191.5 CURVE SMOOTH",
"528.333 217.167 OFFCURVE",
"474.833 254.167 OFFCURVE",
"430.5 302.5 CURVE SMOOTH",
"386.167 350.833 OFFCURVE",
"352 409.833 OFFCURVE",
"328 479.5 CURVE SMOOTH",
"304 549.167 OFFCURVE",
"292 628 OFFCURVE",
"292 716 CURVE SMOOTH",
"292 804 OFFCURVE",
"304 883 OFFCURVE",
"328 953 CURVE SMOOTH",
"352 1023 OFFCURVE",
"386.167 1082.17 OFFCURVE",
"430.5 1130.5 CURVE SMOOTH",
"474.833 1178.83 OFFCURVE",
"528.333 1216 OFFCURVE",
"591 1242 CURVE SMOOTH",
"653.667 1268 OFFCURVE",
"723.333 1281 OFFCURVE",
"800 1281 CURVE SMOOTH",
"877.333 1281 OFFCURVE",
"947.333 1268 OFFCURVE",
"1010 1242 CURVE SMOOTH",
"1072.67 1216 OFFCURVE",
"1126 1178.83 OFFCURVE",
"1170 1130.5 CURVE SMOOTH",
"1214 1082.17 OFFCURVE",
"1248 1023 OFFCURVE",
"1272 953 CURVE SMOOTH",
"1296 883 OFFCURVE",
"1308 804 OFFCURVE",
"1308 716 CURVE SMOOTH"
);
},
{
closed = 1;
nodes = (
"703 1681.33 OFFCURVE",
"700 1695.83 OFFCURVE",
"694 1709.5 CURVE SMOOTH",
"688 1723.17 OFFCURVE",
"679.833 1735 OFFCURVE",
"669.5 1745 CURVE SMOOTH",
"659.167 1755 OFFCURVE",
"647.167 1763 OFFCURVE",
"633.5 1769 CURVE SMOOTH",
"619.833 1775 OFFCURVE",
"605.667 1778 OFFCURVE",
"591 1778 CURVE SMOOTH",
"577 1778 OFFCURVE",
"563.5 1775 OFFCURVE",
"550.5 1769 CURVE SMOOTH",
"537.5 1763 OFFCURVE",
"526 1755 OFFCURVE",
"516 1745 CURVE SMOOTH",
"506 1735 OFFCURVE",
"498 1723.17 OFFCURVE",
"492 1709.5 CURVE SMOOTH",
"486 1695.83 OFFCURVE",
"483 1681.33 OFFCURVE",
"483 1666 CURVE SMOOTH",
"483 1651.33 OFFCURVE",
"486 1637.5 OFFCURVE",
"492 1624.5 CURVE SMOOTH",
"498 1611.5 OFFCURVE",
"506 1600 OFFCURVE",
"516 1590 CURVE SMOOTH",
"526 1580 OFFCURVE",
"537.5 1572.17 OFFCURVE",
"550.5 1566.5 CURVE SMOOTH",
"563.5 1560.83 OFFCURVE",
"577 1558 OFFCURVE",
"591 1558 CURVE SMOOTH",
"605.667 1558 OFFCURVE",
"619.833 1560.83 OFFCURVE",
"633.5 1566.5 CURVE SMOOTH",
"647.167 1572.17 OFFCURVE",
"659.167 1580 OFFCURVE",
"669.5 1590 CURVE SMOOTH",
"679.833 1600 OFFCURVE",
"688 1611.5 OFFCURVE",
"694 1624.5 CURVE SMOOTH",
"700 1637.5 OFFCURVE",
"703 1651.33 OFFCURVE",
"703 1666 CURVE SMOOTH"
);
},
{
closed = 1;
nodes = (
"1121 1681.33 OFFCURVE",
"1118 1695.83 OFFCURVE",
"1112 1709.5 CURVE SMOOTH",
"1106 1723.17 OFFCURVE",
"1098 1735 OFFCURVE",
"1088 1745 CURVE SMOOTH",
"1078 1755 OFFCURVE",
"1066.33 1763 OFFCURVE",
"1053 1769 CURVE SMOOTH",
"1039.67 1775 OFFCURVE",
"1025.67 1778 OFFCURVE",
"1011 1778 CURVE SMOOTH",
"995.667 1778 OFFCURVE",
"981.333 1775 OFFCURVE",
"968 1769 CURVE SMOOTH",
"954.667 1763 OFFCURVE",
"943 1755 OFFCURVE",
"933 1745 CURVE SMOOTH",
"923 1735 OFFCURVE",
"915.167 1723.17 OFFCURVE",
"909.5 1709.5 CURVE SMOOTH",
"903.833 1695.83 OFFCURVE",
"901 1681.33 OFFCURVE",
"901 1666 CURVE SMOOTH",
"901 1651.33 OFFCURVE",
"903.833 1637.5 OFFCURVE",
"909.5 1624.5 CURVE SMOOTH",
"915.167 1611.5 OFFCURVE",
"923 1600 OFFCURVE",
"933 1590 CURVE SMOOTH",
"943 1580 OFFCURVE",
"954.667 1572.17 OFFCURVE",
"968 1566.5 CURVE SMOOTH",
"981.333 1560.83 OFFCURVE",
"995.667 1558 OFFCURVE",
"1011 1558 CURVE SMOOTH",
"1025.67 1558 OFFCURVE",
"1039.67 1560.83 OFFCURVE",
"1053 1566.5 CURVE SMOOTH",
"1066.33 1572.17 OFFCURVE",
"1078 1580 OFFCURVE",
"1088 1590 CURVE SMOOTH",
"1098 1600 OFFCURVE",
"1106 1611.5 OFFCURVE",
"1112 1624.5 CURVE SMOOTH",
"1118 1637.5 OFFCURVE",
"1121 1651.33 OFFCURVE",
"1121 1666 CURVE SMOOTH"
);
}
);
width = 1601;
}
);
leftKerningGroup = C;
rightKerningGroup = O;
unicode = 00D6;
},
{
glyphname = Ograve;
layers = (
{
layerId = "84BF924C-12BE-451A-A75C-68D6DFA13EBD";
name = Regular;
paths = (
{
closed = 1;
nodes = (
"94 0 LINE"
);
},
{
closed = 1;
nodes = (
"1507 823.333 OFFCURVE",
"1490 921.833 OFFCURVE",
"1456 1011.5 CURVE SMOOTH",
"1422 1101.17 OFFCURVE",
"1374 1178.5 OFFCURVE",
"1312 1243.5 CURVE SMOOTH",
"1250 1308.5 OFFCURVE",
"1175.5 1359 OFFCURVE",
"1088.5 1395 CURVE SMOOTH",
"1001.5 1431 OFFCURVE",
"905.333 1449 OFFCURVE",
"800 1449 CURVE SMOOTH",
"694.667 1449 OFFCURVE",
"598.667 1431 OFFCURVE",
"512 1395 CURVE SMOOTH",
"425.333 1359 OFFCURVE",
"351 1308.5 OFFCURVE",
"289 1243.5 CURVE SMOOTH",
"227 1178.5 OFFCURVE",
"179 1101.17 OFFCURVE",
"145 1011.5 CURVE SMOOTH",
"111 921.833 OFFCURVE",
"94 823.333 OFFCURVE",
"94 716 CURVE SMOOTH",
"94 608.667 OFFCURVE",
"111 510.167 OFFCURVE",
"145 420.5 CURVE SMOOTH",
"179 330.833 OFFCURVE",
"227 253.667 OFFCURVE",
"289 189 CURVE SMOOTH",
"351 124.333 OFFCURVE",
"425.333 74.1666 OFFCURVE",
"512 38.4999 CURVE SMOOTH",
"598.667 2.83325 OFFCURVE",
"694.667 -15 OFFCURVE",
"800 -15 CURVE SMOOTH",
"905.333 -15 OFFCURVE",
"1001.5 2.83325 OFFCURVE",
"1088.5 38.4999 CURVE SMOOTH",
"1175.5 74.1666 OFFCURVE",
"1250 124.333 OFFCURVE",
"1312 189 CURVE SMOOTH",
"1374 253.667 OFFCURVE",
"1422 330.833 OFFCURVE",
"1456 420.5 CURVE SMOOTH",
"1490 510.167 OFFCURVE",
"1507 608.667 OFFCURVE",
"1507 716 CURVE SMOOTH"
);
},
{
closed = 1;
nodes = (
"1308 628 OFFCURVE",
"1296 549.167 OFFCURVE",
"1272 479.5 CURVE SMOOTH",
"1248 409.833 OFFCURVE",
"1214 350.833 OFFCURVE",
"1170 302.5 CURVE SMOOTH",
"1126 254.167 OFFCURVE",
"1072.67 217.167 OFFCURVE",
"1010 191.5 CURVE SMOOTH",
"947.333 165.833 OFFCURVE",
"877.333 153 OFFCURVE",
"800 153 CURVE SMOOTH",
"723.333 153 OFFCURVE",
"653.667 165.833 OFFCURVE",
"591 191.5 CURVE SMOOTH",
"528.333 217.167 OFFCURVE",
"474.833 254.167 OFFCURVE",
"430.5 302.5 CURVE SMOOTH",
"386.167 350.833 OFFCURVE",
"352 409.833 OFFCURVE",
"328 479.5 CURVE SMOOTH",
"304 549.167 OFFCURVE",
"292 628 OFFCURVE",
"292 716 CURVE SMOOTH",
"292 804 OFFCURVE",
"304 883 OFFCURVE",
"328 953 CURVE SMOOTH",
"352 1023 OFFCURVE",
"386.167 1082.17 OFFCURVE",
"430.5 1130.5 CURVE SMOOTH",
"474.833 1178.83 OFFCURVE",
"528.333 1216 OFFCURVE",
"591 1242 CURVE SMOOTH",
"653.667 1268 OFFCURVE",
"723.333 1281 OFFCURVE",
"800 1281 CURVE SMOOTH",
"877.333 1281 OFFCURVE",
"947.333 1268 OFFCURVE",
"1010 1242 CURVE SMOOTH",
"1072.67 1216 OFFCURVE",
"1126 1178.83 OFFCURVE",
"1170 1130.5 CURVE SMOOTH",
"1214 1082.17 OFFCURVE",
"1248 1023 OFFCURVE",
"1272 953 CURVE SMOOTH",
"1296 883 OFFCURVE",
"1308 804 OFFCURVE",
"1308 716 CURVE SMOOTH"
);
},
{
closed = 1;
nodes = (
"435 1852 LINE",
"747 1565 LINE SMOOTH",
"757 1555.67 OFFCURVE",
"766.167 1550.17 OFFCURVE",
"774.5 1548.5 CURVE SMOOTH",
"782.833 1546.83 OFFCURVE",
"794.333 1546 OFFCURVE",
"809 1546 CURVE SMOOTH",
"937 1546 LINE",
"709 1820 LINE",
"697.667 1834.67 OFFCURVE",
"686.333 1843.67 OFFCURVE",
"675 1847 CURVE SMOOTH",
"663.667 1850.33 OFFCURVE",
"647 1852 OFFCURVE",
"625 1852 CURVE SMOOTH"
);
}
);
width = 1601;
}
);
leftKerningGroup = C;
rightKerningGroup = O;
unicode = 00D2;
},
{
glyphname = Oslash;
layers = (
{
layerId = "84BF924C-12BE-451A-A75C-68D6DFA13EBD";
name = Regular;
paths = (
{
closed = 1;
nodes = (
"1507 830 OFFCURVE",
"1488.33 933.333 OFFCURVE",
"1451 1026 CURVE SMOOTH",
"1413.67 1118.67 OFFCURVE",
"1360.67 1197.67 OFFCURVE",
"1292 1263 CURVE",
"1464 1498 LINE",
"1364 1498 LINE SMOOTH",
"1342.67 1498 OFFCURVE",
"1326.67 1494.17 OFFCURVE",
"1316 1486.5 CURVE SMOOTH",
"1305.33 1478.83 OFFCURVE",
"1293.33 1466 OFFCURVE",
"1280 1448 CURVE SMOOTH",
"1198 1337 LINE",
"1142.67 1373 OFFCURVE",
"1081.67 1400.67 OFFCURVE",
"1015 1420 CURVE SMOOTH",
"948.333 1439.33 OFFCURVE",
"876.667 1449 OFFCURVE",
"800 1449 CURVE SMOOTH",
"694.667 1449 OFFCURVE",
"598.667 1431 OFFCURVE",
"512 1395 CURVE SMOOTH",
"425.333 1359 OFFCURVE",
"351 1308.5 OFFCURVE",
"289 1243.5 CURVE SMOOTH",
"227 1178.5 OFFCURVE",
"179 1101.17 OFFCURVE",
"145 1011.5 CURVE SMOOTH",
"111 921.833 OFFCURVE",
"93.9999 823.333 OFFCURVE",
"93.9999 716 CURVE SMOOTH",
"93.9999 596.667 OFFCURVE",
"114.5 489 OFFCURVE",
"155.5 393 CURVE SMOOTH",
"196.5 297 OFFCURVE",
"254.333 216.333 OFFCURVE",
"329 151 CURVE",
"138 -109 LINE",
"216 -109 LINE SMOOTH",
"235.333 -109 OFFCURVE",
"254.833 -105 OFFCURVE",
"274.5 -97 CURVE SMOOTH",
"294.167 -88 OFFCURVE",
"311 -74 OFFCURVE",
"325 -54 CURVE SMOOTH",
"425 81.9999 LINE",
"477.667 49.9999 OFFCURVE",
"535.333 25.8333 OFFCURVE",
"598 9.49994 CURVE SMOOTH",
"660.667 -7 OFFCURVE",
"728 -15 OFFCURVE",
"800 -15 CURVE SMOOTH",
"905.333 -15 OFFCURVE",
"1001.5 2.83327 OFFCURVE",
"1088.5 38.4999 CURVE SMOOTH",
"1175.5 74.1666 OFFCURVE",
"1250 124.333 OFFCURVE",
"1312 189 CURVE SMOOTH",
"1374 253.667 OFFCURVE",
"1422 330.833 OFFCURVE",
"1456 420.5 CURVE SMOOTH",
"1490 510.167 OFFCURVE",
"1507 608.667 OFFCURVE",
"1507 716 CURVE SMOOTH"
);
},
{
closed = 1;
nodes = (
"292 804 OFFCURVE",
"304 883 OFFCURVE",
"328 953 CURVE SMOOTH",
"352 1023 OFFCURVE",
"386.167 1082.17 OFFCURVE",
"430.5 1130.5 CURVE SMOOTH",
"474.833 1178.83 OFFCURVE",
"528.333 1216 OFFCURVE",
"591 1242 CURVE SMOOTH",
"653.667 1268 OFFCURVE",
"723.333 1281 OFFCURVE",
"800 1281 CURVE SMOOTH",
"858 1281 OFFCURVE",
"911.667 1273.83 OFFCURVE",
"961 1259.5 CURVE SMOOTH",
"1010.33 1245.17 OFFCURVE",
"1055 1224 OFFCURVE",
"1095 1196 CURVE",
"436 297 LINE",
"390 345.667 OFFCURVE",
"354.5 405.167 OFFCURVE",
"329.5 475.5 CURVE SMOOTH",
"304.5 545.833 OFFCURVE",
"292 626 OFFCURVE",
"292 716 CURVE SMOOTH"
);
},
{
closed = 1;
nodes = (
"1308 628 OFFCURVE",
"1296 549.167 OFFCURVE",
"1272 479.5 CURVE SMOOTH",
"1248 409.833 OFFCURVE",
"1214 350.833 OFFCURVE",
"1170 302.5 CURVE SMOOTH",
"1126 254.167 OFFCURVE",
"1072.67 217.167 OFFCURVE",
"1010 191.5 CURVE SMOOTH",
"947.333 165.833 OFFCURVE",
"877.333 153 OFFCURVE",
"800 153 CURVE SMOOTH",
"696 153 OFFCURVE",
"605.333 176.333 OFFCURVE",
"528 223 CURVE",
"1183 1115 LINE",
"1223 1067 OFFCURVE",
"1253.83 1009.5 OFFCURVE",
"1275.5 942.5 CURVE SMOOTH",
"1297.17 875.5 OFFCURVE",
"1308 800 OFFCURVE",
"1308 716 CURVE SMOOTH"
);
}
);
width = 1601;
}
);
leftKerningGroup = C;
rightKerningGroup = O;
unicode = 00D8;
},
{
glyphname = Otilde;
layers = (
{
layerId = "84BF924C-12BE-451A-A75C-68D6DFA13EBD";
name = Regular;
paths = (
{
closed = 1;
nodes = (
"94 0 LINE"
);
},
{
closed = 1;
nodes = (
"1507 823.333 OFFCURVE",
"1490 921.833 OFFCURVE",
"1456 1011.5 CURVE SMOOTH",
"1422 1101.17 OFFCURVE",
"1374 1178.5 OFFCURVE",
"1312 1243.5 CURVE SMOOTH",
"1250 1308.5 OFFCURVE",
"1175.5 1359 OFFCURVE",
"1088.5 1395 CURVE SMOOTH",
"1001.5 1431 OFFCURVE",
"905.333 1449 OFFCURVE",
"800 1449 CURVE SMOOTH",
"694.667 1449 OFFCURVE",
"598.667 1431 OFFCURVE",
"512 1395 CURVE SMOOTH",
"425.333 1359 OFFCURVE",
"351 1308.5 OFFCURVE",
"289 1243.5 CURVE SMOOTH",
"227 1178.5 OFFCURVE",
"179 1101.17 OFFCURVE",
"145 1011.5 CURVE SMOOTH",
"111 921.833 OFFCURVE",
"94 823.333 OFFCURVE",
"94 716 CURVE SMOOTH",
"94 608.667 OFFCURVE",
"111 510.167 OFFCURVE",
"145 420.5 CURVE SMOOTH",
"179 330.833 OFFCURVE",
"227 253.667 OFFCURVE",
"289 189 CURVE SMOOTH",
"351 124.333 OFFCURVE",
"425.333 74.1666 OFFCURVE",
"512 38.4999 CURVE SMOOTH",
"598.667 2.83325 OFFCURVE",
"694.667 -15 OFFCURVE",
"800 -15 CURVE SMOOTH",
"905.333 -15 OFFCURVE",
"1001.5 2.83325 OFFCURVE",
"1088.5 38.4999 CURVE SMOOTH",
"1175.5 74.1666 OFFCURVE",
"1250 124.333 OFFCURVE",
"1312 189 CURVE SMOOTH",
"1374 253.667 OFFCURVE",
"1422 330.833 OFFCURVE",
"1456 420.5 CURVE SMOOTH",
"1490 510.167 OFFCURVE",
"1507 608.667 OFFCURVE",
"1507 716 CURVE SMOOTH"
);
},
{
closed = 1;
nodes = (
"1308 628 OFFCURVE",
"1296 549.167 OFFCURVE",
"1272 479.5 CURVE SMOOTH",
"1248 409.833 OFFCURVE",
"1214 350.833 OFFCURVE",
"1170 302.5 CURVE SMOOTH",
"1126 254.167 OFFCURVE",
"1072.67 217.167 OFFCURVE",
"1010 191.5 CURVE SMOOTH",
"947.333 165.833 OFFCURVE",
"877.333 153 OFFCURVE",
"800 153 CURVE SMOOTH",
"723.333 153 OFFCURVE",
"653.667 165.833 OFFCURVE",
"591 191.5 CURVE SMOOTH",
"528.333 217.167 OFFCURVE",
"474.833 254.167 OFFCURVE",
"430.5 302.5 CURVE SMOOTH",
"386.167 350.833 OFFCURVE",
"352 409.833 OFFCURVE",
"328 479.5 CURVE SMOOTH",
"304 549.167 OFFCURVE",
"292 628 OFFCURVE",
"292 716 CURVE SMOOTH",
"292 804 OFFCURVE",
"304 883 OFFCURVE",
"328 953 CURVE SMOOTH",
"352 1023 OFFCURVE",
"386.167 1082.17 OFFCURVE",
"430.5 1130.5 CURVE SMOOTH",
"474.833 1178.83 OFFCURVE",
"528.333 1216 OFFCURVE",
"591 1242 CURVE SMOOTH",
"653.667 1268 OFFCURVE",
"723.333 1281 OFFCURVE",
"800 1281 CURVE SMOOTH",
"877.333 1281 OFFCURVE",
"947.333 1268 OFFCURVE",
"1010 1242 CURVE SMOOTH",
"1072.67 1216 OFFCURVE",
"1126 1178.83 OFFCURVE",
"1170 1130.5 CURVE SMOOTH",
"1214 1082.17 OFFCURVE",
"1248 1023 OFFCURVE",
"1272 953 CURVE SMOOTH",
"1296 883 OFFCURVE",
"1308 804 OFFCURVE",
"1308 716 CURVE SMOOTH"
);
},
{
closed = 1;
nodes = (
"909.333 1663 OFFCURVE",
"891 1668.5 OFFCURVE",
"873 1679.5 CURVE SMOOTH",
"855 1690.5 OFFCURVE",
"836 1702.5 OFFCURVE",
"816 1715.5 CURVE SMOOTH",
"796 1728.5 OFFCURVE",
"774 1740.5 OFFCURVE",
"750 1751.5 CURVE SMOOTH",
"726 1762.5 OFFCURVE",
"699 1768 OFFCURVE",
"669 1768 CURVE SMOOTH",
"639.667 1768 OFFCURVE",
"613.667 1762 OFFCURVE",
"591 1750 CURVE SMOOTH",
"568.333 1738 OFFCURVE",
"549.333 1721.83 OFFCURVE",
"534 1701.5 CURVE SMOOTH",
"518.667 1681.17 OFFCURVE",
"506.833 1657.67 OFFCURVE",
"498.5 1631 CURVE SMOOTH",
"490.167 1604.33 OFFCURVE",
"486 1576.67 OFFCURVE",
"486 1548 CURVE",
"597 1548 LINE",
"597 1560 OFFCURVE",
"599 1572 OFFCURVE",
"603 1584 CURVE SMOOTH",
"607 1596 OFFCURVE",
"612.833 1606.83 OFFCURVE",
"620.5 1616.5 CURVE SMOOTH",
"628.167 1626.17 OFFCURVE",
"637.667 1634 OFFCURVE",
"649 1640 CURVE SMOOTH",
"660.333 1646 OFFCURVE",
"673.667 1649 OFFCURVE",
"689 1649 CURVE SMOOTH",
"707.667 1649 OFFCURVE",
"726 1643.5 OFFCURVE",
"744 1632.5 CURVE SMOOTH",
"762 1621.5 OFFCURVE",
"781.167 1609.5 OFFCURVE",
"801.5 1596.5 CURVE SMOOTH",
"821.833 1583.5 OFFCURVE",
"843.833 1571.5 OFFCURVE",
"867.5 1560.5 CURVE SMOOTH",
"891.167 1549.5 OFFCURVE",
"918 1544 OFFCURVE",
"948 1544 CURVE SMOOTH",
"977.333 1544 OFFCURVE",
"1003.33 1550 OFFCURVE",
"1026 1562 CURVE SMOOTH",
"1048.67 1574 OFFCURVE",
"1067.83 1590.17 OFFCURVE",
"1083.5 1610.5 CURVE SMOOTH",
"1099.17 1630.83 OFFCURVE",
"1111 1654.17 OFFCURVE",
"1119 1680.5 CURVE SMOOTH",
"1127 1706.83 OFFCURVE",
"1131 1734.33 OFFCURVE",
"1131 1763 CURVE",
"1022 1763 LINE",
"1022 1751 OFFCURVE",
"1020 1739 OFFCURVE",
"1016 1727 CURVE SMOOTH",
"1012 1715 OFFCURVE",
"1006 1704.17 OFFCURVE",
"998 1694.5 CURVE SMOOTH",
"990 1684.83 OFFCURVE",
"980.166 1677.17 OFFCURVE",
"968.5 1671.5 CURVE SMOOTH",
"956.833 1665.83 OFFCURVE",
"943.333 1663 OFFCURVE",
"928 1663 CURVE SMOOTH"
);
}
);
width = 1601;
}
);
leftKerningGroup = C;
rightKerningGroup = O;
unicode = 00D5;
},
{
glyphname = OE;
lastChange = "2014-08-24 06:27:34 -0500";
layers = (
{
layerId = "84BF924C-12BE-451A-A75C-68D6DFA13EBD";
name = Regular;
paths = (
{
closed = 1;
nodes = (
"2091 1433 LINE",
"1231 1433 LINE",
"1231 1193 LINE",
"1175 1273.67 OFFCURVE",
"1104.67 1336.5 OFFCURVE",
"1020 1381.5 CURVE SMOOTH",
"935.333 1426.5 OFFCURVE",
"839.333 1449 OFFCURVE",
"732 1449 CURVE SMOOTH",
"637.333 1449 OFFCURVE",
"551 1431 OFFCURVE",
"473 1395 CURVE SMOOTH",
"395 1359 OFFCURVE",
"328 1308.5 OFFCURVE",
"272 1243.5 CURVE SMOOTH",
"216 1178.5 OFFCURVE",
"172.667 1101.17 OFFCURVE",
"142 1011.5 CURVE SMOOTH",
"111.333 921.833 OFFCURVE",
"95.9999 823.333 OFFCURVE",
"95.9999 716 CURVE SMOOTH",
"95.9999 608.667 OFFCURVE",
"111.333 510.167 OFFCURVE",
"142 420.5 CURVE SMOOTH",
"172.667 330.833 OFFCURVE",
"216 253.833 OFFCURVE",
"272 189.5 CURVE SMOOTH",
"328 125.167 OFFCURVE",
"395 75.1666 OFFCURVE",
"473 39.4999 CURVE SMOOTH",
"551 3.83325 OFFCURVE",
"637.333 -14 OFFCURVE",
"732 -14 CURVE SMOOTH",
"839.333 -14 OFFCURVE",
"935.333 8.1666 OFFCURVE",
"1020 52.4999 CURVE SMOOTH",
"1104.67 96.8333 OFFCURVE",
"1175 159 OFFCURVE",
"1231 239 CURVE",
"1231 -8 LINE",
"2091 -8 LINE",
"2092 158 LINE",
"1403 158 LINE",
"1403 647 LINE",
"2091 647 LINE",
"2091 799 LINE",
"1403 799 LINE",
"1403 1275 LINE",
"2091 1275 LINE"
);
},
{
closed = 1;
nodes = (
"1209 628 OFFCURVE",
"1198.33 548.833 OFFCURVE",
"1177 478.5 CURVE SMOOTH",
"1155.67 408.167 OFFCURVE",
"1125.17 348.5 OFFCURVE",
"1085.5 299.5 CURVE SMOOTH",
"1045.83 250.5 OFFCURVE",
"997.833 213 OFFCURVE",
"941.5 187 CURVE SMOOTH",
"885.167 161 OFFCURVE",
"822.333 148 OFFCURVE",
"753 148 CURVE SMOOTH",
"683 148 OFFCURVE",
"619.833 161 OFFCURVE",
"563.5 187 CURVE SMOOTH",
"507.167 213 OFFCURVE",
"459 250.5 OFFCURVE",
"419 299.5 CURVE SMOOTH",
"379 348.5 OFFCURVE",
"348.167 408.167 OFFCURVE",
"326.5 478.5 CURVE SMOOTH",
"304.833 548.833 OFFCURVE",
"294 628 OFFCURVE",
"294 716 CURVE SMOOTH",
"294 804 OFFCURVE",
"304.833 883.167 OFFCURVE",
"326.5 953.5 CURVE SMOOTH",
"348.167 1023.83 OFFCURVE",
"379 1083.67 OFFCURVE",
"419 1133 CURVE SMOOTH",
"459 1182.33 OFFCURVE",
"507.167 1220.17 OFFCURVE",
"563.5 1246.5 CURVE SMOOTH",
"619.833 1272.83 OFFCURVE",
"683 1286 OFFCURVE",
"753 1286 CURVE SMOOTH",
"822.333 1286 OFFCURVE",
"885.167 1272.83 OFFCURVE",
"941.5 1246.5 CURVE SMOOTH",
"997.833 1220.17 OFFCURVE",
"1045.83 1182.33 OFFCURVE",
"1085.5 1133 CURVE SMOOTH",
"1125.17 1083.67 OFFCURVE",
"1155.67 1023.83 OFFCURVE",
"1177 953.5 CURVE SMOOTH",
"1198.33 883.167 OFFCURVE",
"1209 804 OFFCURVE",
"1209 716 CURVE SMOOTH"
);
}
);
width = 2181;
}
);
leftKerningGroup = C;
rightKerningGroup = E;
unicode = 0152;
},
{
glyphname = P;
layers = (
{
layerId = "84BF924C-12BE-451A-A75C-68D6DFA13EBD";
name = Regular;
paths = (
{
closed = 1;
nodes = (
"376 536 LINE",
"606 536 LINE SMOOTH",
"692.667 536 OFFCURVE",
"769.167 547.167 OFFCURVE",
"835.5 569.5 CURVE SMOOTH",
"901.833 591.833 OFFCURVE",
"957.5 623 OFFCURVE",
"1002.5 663 CURVE SMOOTH",
"1047.5 703 OFFCURVE",
"1081.67 750.667 OFFCURVE",
"1105 806 CURVE SMOOTH",
"1128.33 861.333 OFFCURVE",
"1140 922.333 OFFCURVE",
"1140 989 CURVE SMOOTH",
"1140 1056.33 OFFCURVE",
"1129.17 1117.33 OFFCURVE",
"1107.5 1172 CURVE SMOOTH",
"1085.83 1226.67 OFFCURVE",
"1053 1273.33 OFFCURVE",
"1009 1312 CURVE SMOOTH",
"965 1350.67 OFFCURVE",
"909.5 1380.5 OFFCURVE",
"842.5 1401.5 CURVE SMOOTH",
"775.5 1422.5 OFFCURVE",
"696.667 1433 OFFCURVE",
"606 1433 CURVE SMOOTH",
"183 1433 LINE",
"183 0 LINE",
"376 0 LINE"
);
},
{
closed = 1;
nodes = (
"376 690 LINE",
"376 1280 LINE",
"606 1280 LINE SMOOTH",
"720.667 1280 OFFCURVE",
"806.167 1254.33 OFFCURVE",
"862.5 1203 CURVE SMOOTH",
"918.833 1151.67 OFFCURVE",
"947 1080.33 OFFCURVE",
"947 989 CURVE SMOOTH",
"947 945 OFFCURVE",
"939.667 904.667 OFFCURVE",
"925 868 CURVE SMOOTH",
"910.333 831.333 OFFCURVE",
"888.5 799.833 OFFCURVE",
"859.5 773.5 CURVE SMOOTH",
"830.5 747.167 OFFCURVE",
"794.833 726.667 OFFCURVE",
"752.5 712 CURVE SMOOTH",
"710.167 697.333 OFFCURVE",
"661.333 690 OFFCURVE",
"606 690 CURVE SMOOTH"
);
}
);
width = 1201;
}
);
leftKerningGroup = B;
rightKerningGroup = P;
unicode = 0050;
},
{
glyphname = Thorn;
layers = (
{
layerId = "84BF924C-12BE-451A-A75C-68D6DFA13EBD";
name = Regular;
paths = (
{
closed = 1;
nodes = (
"376 272 LINE",
"606 272 LINE SMOOTH",
"692.667 272 OFFCURVE",
"769.167 283.167 OFFCURVE",
"835.5 305.5 CURVE SMOOTH",
"901.833 327.833 OFFCURVE",
"957.5 359 OFFCURVE",
"1002.5 399 CURVE SMOOTH",
"1047.5 439 OFFCURVE",
"1081.67 486.667 OFFCURVE",
"1105 542 CURVE SMOOTH",
"1128.33 597.333 OFFCURVE",
"1140 658.333 OFFCURVE",
"1140 725 CURVE SMOOTH",
"1140 792.333 OFFCURVE",
"1129.17 853.333 OFFCURVE",
"1107.5 908 CURVE SMOOTH",
"1085.83 962.667 OFFCURVE",
"1053 1009.33 OFFCURVE",
"1009 1048 CURVE SMOOTH",
"965 1086.67 OFFCURVE",
"909.5 1116.5 OFFCURVE",
"842.5 1137.5 CURVE SMOOTH",
"775.5 1158.5 OFFCURVE",
"696.667 1169 OFFCURVE",
"606 1169 CURVE SMOOTH",
"376 1169 LINE",
"376 1433 LINE",
"183 1433 LINE",
"183 0 LINE",
"376 0 LINE"
);
},
{
closed = 1;
nodes = (
"376 426 LINE",
"376 1016 LINE",
"606 1016 LINE SMOOTH",
"720.667 1016 OFFCURVE",
"806.167 990.333 OFFCURVE",
"862.5 939 CURVE SMOOTH",
"918.833 887.667 OFFCURVE",
"947 816.333 OFFCURVE",
"947 725 CURVE SMOOTH",
"947 681 OFFCURVE",
"939.667 640.667 OFFCURVE",
"925 604 CURVE SMOOTH",
"910.333 567.333 OFFCURVE",
"888.5 535.833 OFFCURVE",
"859.5 509.5 CURVE SMOOTH",
"830.5 483.167 OFFCURVE",
"794.833 462.667 OFFCURVE",
"752.5 448 CURVE SMOOTH",
"710.167 433.333 OFFCURVE",
"661.333 426 OFFCURVE",
"606 426 CURVE SMOOTH"
);
}
);
width = 1197;
}
);
leftKerningGroup = B;
rightKerningGroup = Thorn;
unicode = 00DE;
},
{
glyphname = Q;
lastChange = "2014-08-24 06:29:43 -0500";
layers = (
{
layerId = "84BF924C-12BE-451A-A75C-68D6DFA13EBD";
name = Regular;
paths = (
{
closed = 1;
nodes = (
"1579 -30 LINE",
"1336.2 215.821 LINE",
"1386.63 274.902 OFFCURVE",
"1426.56 343.078 OFFCURVE",
"1456 421 CURVE SMOOTH",
"1490 510 OFFCURVE",
"1507 609 OFFCURVE",
"1507 716 CURVE SMOOTH",
"1507 823 OFFCURVE",
"1490 922 OFFCURVE",
"1456 1012 CURVE SMOOTH",
"1422 1101 OFFCURVE",
"1374 1179 OFFCURVE",
"1312 1244 CURVE SMOOTH",
"1250 1309 OFFCURVE",
"1176 1359 OFFCURVE",
"1089 1395 CURVE SMOOTH",
"1002 1431 OFFCURVE",
"905 1449 OFFCURVE",
"800 1449 CURVE SMOOTH",
"695 1449 OFFCURVE",
"599 1431 OFFCURVE",
"512 1395 CURVE SMOOTH",
"425 1359 OFFCURVE",
"351 1309 OFFCURVE",
"289 1244 CURVE SMOOTH",
"227 1179 OFFCURVE",
"179 1101 OFFCURVE",
"145 1012 CURVE SMOOTH",
"111 922 OFFCURVE",
"94 823 OFFCURVE",
"94 716 CURVE SMOOTH",
"94 609 OFFCURVE",
"111 510 OFFCURVE",
"145 421 CURVE SMOOTH",
"179 331 OFFCURVE",
"227 254 OFFCURVE",
"289 189 CURVE SMOOTH",
"351 124 OFFCURVE",
"425 74 OFFCURVE",
"512 39 CURVE SMOOTH",
"599 3 OFFCURVE",
"695 -15 OFFCURVE",
"800 -15 CURVE SMOOTH",
"905 -15 OFFCURVE",
"1002 3 OFFCURVE",
"1089 39 CURVE SMOOTH",
"1133.52 56.9107 OFFCURVE",
"1174.64 78.7501 OFFCURVE",
"1212.48 104.517 CURVE",
"1347 -30 LINE"
);
},
{
closed = 1;
nodes = (
"947 166 OFFCURVE",
"877 153 OFFCURVE",
"800 153 CURVE SMOOTH",
"723 153 OFFCURVE",
"654 166 OFFCURVE",
"591 192 CURVE SMOOTH",
"528 217 OFFCURVE",
"475 254 OFFCURVE",
"431 303 CURVE SMOOTH",
"386 351 OFFCURVE",
"352 410 OFFCURVE",
"328 480 CURVE SMOOTH",
"304 549 OFFCURVE",
"292 628 OFFCURVE",
"292 716 CURVE SMOOTH",
"292 804 OFFCURVE",
"304 883 OFFCURVE",
"328 953 CURVE SMOOTH",
"352 1023 OFFCURVE",
"386 1082 OFFCURVE",
"431 1131 CURVE SMOOTH",
"475 1179 OFFCURVE",
"528 1216 OFFCURVE",
"591 1242 CURVE SMOOTH",
"654 1268 OFFCURVE",
"723 1281 OFFCURVE",
"800 1281 CURVE SMOOTH",
"877 1281 OFFCURVE",
"947 1268 OFFCURVE",
"1010 1242 CURVE SMOOTH",
"1073 1216 OFFCURVE",
"1126 1179 OFFCURVE",
"1170 1131 CURVE SMOOTH",
"1214 1082 OFFCURVE",
"1248 1023 OFFCURVE",
"1272 953 CURVE SMOOTH",
"1296 883 OFFCURVE",
"1308 804 OFFCURVE",
"1308 716 CURVE SMOOTH",
"1308 628 OFFCURVE",
"1296 549 OFFCURVE",
"1272 480 CURVE SMOOTH",
"1255.01 430.447 OFFCURVE",
"1233.01 386.407 OFFCURVE",
"1206 347.879 CURVE",
"1083 472 LINE",
"849 468 LINE",
"1085.98 231.021 LINE",
"1062.46 215.784 OFFCURVE",
"1037.16 202.777 OFFCURVE",
"1010 192 CURVE SMOOTH"
);
}
);
width = 1601;
}
);
leftKerningGroup = C;
rightKerningGroup = O;
unicode = 0051;
},
{
glyphname = R;
lastChange = "2014-08-24 06:28:09 -0500";
layers = (
{
layerId = "84BF924C-12BE-451A-A75C-68D6DFA13EBD";
name = Regular;
paths = (
{
closed = 1;
nodes = (
"376 598 LINE",
"584 598 LINE",
"1025 0 LINE",
"1242 0 LINE",
"776 630 LINE",
"831 642 OFFCURVE",
"864.833 660.5 OFFCURVE",
"908.5 685.5 CURVE SMOOTH",
"952.167 710.5 OFFCURVE",
"989.167 740.5 OFFCURVE",
"1019.5 775.5 CURVE SMOOTH",
"1049.83 810.5 OFFCURVE",
"1073 850 OFFCURVE",
"1089 894 CURVE SMOOTH",
"1105 938 OFFCURVE",
"1113 985.333 OFFCURVE",
"1113 1036 CURVE SMOOTH",
"1113 1096.67 OFFCURVE",
"1102.67 1151.5 OFFCURVE",
"1082 1200.5 CURVE SMOOTH",
"1061.33 1249.5 OFFCURVE",
"1029.5 1291.33 OFFCURVE",
"986.5 1326 CURVE SMOOTH",
"943.5 1360.67 OFFCURVE",
"889 1387.17 OFFCURVE",
"823 1405.5 CURVE SMOOTH",
"757 1423.83 OFFCURVE",
"678.667 1433 OFFCURVE",
"588 1433 CURVE SMOOTH",
"183 1433 LINE",
"183 0 LINE",
"376 0 LINE"
);
},
{
closed = 1;
nodes = (
"376 739 LINE",
"376 1280 LINE",
"588 1280 LINE SMOOTH",
"700 1280 OFFCURVE",
"784 1258.33 OFFCURVE",
"840 1215 CURVE SMOOTH",
"896 1171.67 OFFCURVE",
"924 1107.33 OFFCURVE",
"924 1022 CURVE SMOOTH",
"924 980 OFFCURVE",
"916.667 941.667 OFFCURVE",
"902 907 CURVE SMOOTH",
"887.333 872.333 OFFCURVE",
"865.5 842.5 OFFCURVE",
"836.5 817.5 CURVE SMOOTH",
"807.5 792.5 OFFCURVE",
"771.5 773.167 OFFCURVE",
"728.5 759.5 CURVE SMOOTH",
"685.5 745.833 OFFCURVE",
"636 739 OFFCURVE",
"580 739 CURVE SMOOTH"
);
}
);
width = 1253;
}
);
leftKerningGroup = B;
rightKerningGroup = R;
unicode = 0052;
},
{
glyphname = S;
lastChange = "2014-08-24 05:32:38 -0500";
layers = (
{
layerId = "84BF924C-12BE-451A-A75C-68D6DFA13EBD";
name = Regular;
paths = (
{
closed = 1;
nodes = (
"963 1301 LINE",
"913 1349 OFFCURVE",
"855.167 1385.67 OFFCURVE",
"789.5 1411 CURVE SMOOTH",
"723.833 1436.33 OFFCURVE",
"651 1449 OFFCURVE",
"571 1449 CURVE SMOOTH",
"499.667 1449 OFFCURVE",
"436.5 1438 OFFCURVE",
"381.5 1416 CURVE SMOOTH",
"326.5 1394 OFFCURVE",
"280.167 1364.67 OFFCURVE",
"242.5 1328 CURVE SMOOTH",
"204.833 1291.33 OFFCURVE",
"176.167 1249.33 OFFCURVE",
"156.5 1202 CURVE SMOOTH",
"136.833 1154.67 OFFCURVE",
"127 1105.67 OFFCURVE",
"127 1055 CURVE SMOOTH",
"127 991.667 OFFCURVE",
"136.833 938.5 OFFCURVE",
"156.5 895.5 CURVE SMOOTH",
"176.167 852.5 OFFCURVE",
"202 816.667 OFFCURVE",
"234 788 CURVE SMOOTH",
"266 759.333 OFFCURVE",
"302.667 736 OFFCURVE",
"344 718 CURVE SMOOTH",
"385.333 700 OFFCURVE",
"427.333 684.167 OFFCURVE",
"470 670.5 CURVE SMOOTH",
"512.667 656.833 OFFCURVE",
"554.667 643.5 OFFCURVE",
"596 630.5 CURVE SMOOTH",
"637.333 617.5 OFFCURVE",
"674 601.667 OFFCURVE",
"706 583 CURVE SMOOTH",
"738 564.333 OFFCURVE",
"763.833 541.167 OFFCURVE",
"783.5 513.5 CURVE SMOOTH",
"803.167 485.833 OFFCURVE",
"813 450.333 OFFCURVE",
"813 407 CURVE SMOOTH",
"813 367.667 OFFCURVE",
"806.333 332 OFFCURVE",
"793 300 CURVE SMOOTH",
"779.667 268 OFFCURVE",
"760.5 240.5 OFFCURVE",
"735.5 217.5 CURVE SMOOTH",
"710.5 194.5 OFFCURVE",
"680 176.667 OFFCURVE",
"644 164 CURVE SMOOTH",
"608 151.333 OFFCURVE",
"567 145 OFFCURVE",
"521 145 CURVE SMOOTH",
"484.333 145 OFFCURVE",
"451.333 148.5 OFFCURVE",
"422 155.5 CURVE SMOOTH",
"392.667 162.5 OFFCURVE",
"366.5 171.333 OFFCURVE",
"343.5 182 CURVE SMOOTH",
"320.5 192.667 OFFCURVE",
"300 204.333 OFFCURVE",
"282 217 CURVE SMOOTH",
"264 229.667 OFFCURVE",
"248 240 OFFCURVE",
"234 250 CURVE SMOOTH",
"220 260 OFFCURVE",
"208 269 OFFCURVE",
"197 276 CURVE",
"156 308 LINE",
"66 171 LINE",
"120 113.667 OFFCURVE",
"185 68.1666 OFFCURVE",
"261 34.4999 CURVE SMOOTH",
"337 0.833267 OFFCURVE",
"421.667 -16 OFFCURVE",
"515 -16 CURVE SMOOTH",
"591 -16 OFFCURVE",
"658.833 -4 OFFCURVE",
"718.5 18.9999 CURVE SMOOTH",
"778.167 42.3333 OFFCURVE",
"828.5 74.3333 OFFCURVE",
"869.5 115 CURVE SMOOTH",
"910.5 155.667 OFFCURVE",
"941.667 203.5 OFFCURVE",
"963 258.5 CURVE SMOOTH",
"984.333 313.5 OFFCURVE",
"995 372.333 OFFCURVE",
"995 435 CURVE SMOOTH",
"995 494.333 OFFCURVE",
"985.167 544.333 OFFCURVE",
"965.5 585 CURVE SMOOTH",
"945.833 625.667 OFFCURVE",
"919.833 660 OFFCURVE",
"887.5 688 CURVE SMOOTH",
"855.167 716 OFFCURVE",
"818.5 739.167 OFFCURVE",
"777.5 757.5 CURVE SMOOTH",
"736.5 775.833 OFFCURVE",
"694.5 792.333 OFFCURVE",
"651.5 807 CURVE SMOOTH",
"608.5 821.667 OFFCURVE",
"566.5 835.833 OFFCURVE",
"525.5 849.5 CURVE SMOOTH",
"484.5 863.167 OFFCURVE",
"447.833 879.333 OFFCURVE",
"415.5 898 CURVE SMOOTH",
"383.167 916.667 OFFCURVE",
"357.167 939.167 OFFCURVE",
"337.5 965.5 CURVE SMOOTH",
"317.833 991.833 OFFCURVE",
"308 1025 OFFCURVE",
"308 1065 CURVE SMOOTH",
"308 1096.33 OFFCURVE",
"313.667 1125.5 OFFCURVE",
"325 1152.5 CURVE SMOOTH",
"336.333 1179.5 OFFCURVE",
"353.167 1203 OFFCURVE",
"375.5 1223 CURVE SMOOTH",
"397.833 1243 OFFCURVE",
"425.5 1258.83 OFFCURVE",
"458.5 1270.5 CURVE SMOOTH",
"491.5 1282.17 OFFCURVE",
"529.667 1288 OFFCURVE",
"573 1288 CURVE SMOOTH",
"619 1288 OFFCURVE",
"658.167 1282.33 OFFCURVE",
"690.5 1271 CURVE SMOOTH",
"722.833 1259.67 OFFCURVE",
"750.5 1247.17 OFFCURVE",
"773.5 1233.5 CURVE SMOOTH",
"796.5 1219.83 OFFCURVE",
"815.667 1207.33 OFFCURVE",
"831 1196 CURVE",
"877 1166 LINE"
);
}
);
width = 1085;
}
);
leftKerningGroup = S;
rightKerningGroup = S;
unicode = 0053;
},
{
glyphname = T;
layers = (
{
layerId = "84BF924C-12BE-451A-A75C-68D6DFA13EBD";
name = Regular;
paths = (
{
closed = 1;
nodes = (
"1152 1433 LINE",
"30 1433 LINE",
"30 1270 LINE",
"495 1270 LINE",
"495 0 LINE",
"688 0 LINE",
"688 1270 LINE",
"1152 1270 LINE"
);
}
);
width = 1181;
}
);
leftKerningGroup = T;
rightKerningGroup = T;
unicode = 0054;
},
{
glyphname = U;
layers = (
{
layerId = "84BF924C-12BE-451A-A75C-68D6DFA13EBD";
name = Regular;
paths = (
{
closed = 1;
nodes = (
"676.667 154 OFFCURVE",
"623.5 164.167 OFFCURVE",
"576.5 184.5 CURVE SMOOTH",
"529.5 204.833 OFFCURVE",
"489.833 233 OFFCURVE",
"457.5 269 CURVE SMOOTH",
"425.167 305 OFFCURVE",
"400.5 348 OFFCURVE",
"383.5 398 CURVE SMOOTH",
"366.5 448 OFFCURVE",
"358 503 OFFCURVE",
"358 563 CURVE SMOOTH",
"358 1433 LINE",
"165 1433 LINE",
"165 562 LINE SMOOTH",
"165 479.333 OFFCURVE",
"178.167 402.667 OFFCURVE",
"204.5 332 CURVE SMOOTH",
"230.833 261.333 OFFCURVE",
"268.667 200.167 OFFCURVE",
"318 148.5 CURVE SMOOTH",
"367.333 96.8333 OFFCURVE",
"427.333 56.3333 OFFCURVE",
"498 27 CURVE SMOOTH",
"568.667 -2 OFFCURVE",
"648 -17 OFFCURVE",
"736 -17 CURVE SMOOTH",
"824 -17 OFFCURVE",
"903.333 -2 OFFCURVE",
"974 27 CURVE SMOOTH",
"1044.67 56.3333 OFFCURVE",
"1104.5 96.8333 OFFCURVE",
"1153.5 148.5 CURVE SMOOTH",
"1202.5 200.167 OFFCURVE",
"1240.17 261.333 OFFCURVE",
"1266.5 332 CURVE SMOOTH",
"1292.83 402.667 OFFCURVE",
"1306 479.333 OFFCURVE",
"1306 562 CURVE SMOOTH",
"1306 1433 LINE",
"1113 1433 LINE",
"1113 562 LINE SMOOTH",
"1113 502 OFFCURVE",
"1104.5 447 OFFCURVE",
"1087.5 397 CURVE SMOOTH",
"1070.5 347 OFFCURVE",
"1045.83 304 OFFCURVE",
"1013.5 268 CURVE SMOOTH",
"981.167 232 OFFCURVE",
"941.667 204 OFFCURVE",
"895 184 CURVE SMOOTH",
"848.333 164 OFFCURVE",
"795.333 154 OFFCURVE",
"736 154 CURVE SMOOTH"
);
}
);
width = 1471;
}
);
leftKerningGroup = U;
rightKerningGroup = U;
unicode = 0055;
},
{
glyphname = Uacute;
layers = (
{
layerId = "84BF924C-12BE-451A-A75C-68D6DFA13EBD";
name = Regular;
paths = (
{
closed = 1;
nodes = (
"165 0 LINE"
);
},
{
closed = 1;
nodes = (
"676.667 154 OFFCURVE",
"623.5 164.167 OFFCURVE",
"576.5 184.5 CURVE SMOOTH",
"529.5 204.833 OFFCURVE",
"489.833 233 OFFCURVE",
"457.5 269 CURVE SMOOTH",
"425.167 305 OFFCURVE",
"400.5 348 OFFCURVE",
"383.5 398 CURVE SMOOTH",
"366.5 448 OFFCURVE",
"358 503 OFFCURVE",
"358 563 CURVE SMOOTH",
"358 1433 LINE",
"165 1433 LINE",
"165 562 LINE SMOOTH",
"165 479.333 OFFCURVE",
"178.167 402.667 OFFCURVE",
"204.5 332 CURVE SMOOTH",
"230.833 261.333 OFFCURVE",
"268.667 200.167 OFFCURVE",
"318 148.5 CURVE SMOOTH",
"367.333 96.8333 OFFCURVE",
"427.333 56.3333 OFFCURVE",
"498 27 CURVE SMOOTH",
"568.667 -2 OFFCURVE",
"648 -17 OFFCURVE",
"736 -17 CURVE SMOOTH",
"824 -17 OFFCURVE",
"903.333 -2 OFFCURVE",
"974 27 CURVE SMOOTH",
"1044.67 56.3333 OFFCURVE",
"1104.5 96.8333 OFFCURVE",
"1153.5 148.5 CURVE SMOOTH",
"1202.5 200.167 OFFCURVE",
"1240.17 261.333 OFFCURVE",
"1266.5 332 CURVE SMOOTH",
"1292.83 402.667 OFFCURVE",
"1306 479.333 OFFCURVE",
"1306 562 CURVE SMOOTH",
"1306 1433 LINE",
"1113 1433 LINE",
"1113 562 LINE SMOOTH",
"1113 502 OFFCURVE",
"1104.5 447 OFFCURVE",
"1087.5 397 CURVE SMOOTH",
"1070.5 347 OFFCURVE",
"1045.83 304 OFFCURVE",
"1013.5 268 CURVE SMOOTH",
"981.167 232 OFFCURVE",
"941.667 204 OFFCURVE",
"895 184 CURVE SMOOTH",
"848.333 164 OFFCURVE",
"795.333 154 OFFCURVE",
"736 154 CURVE SMOOTH"
);
},
{
closed = 1;
nodes = (
"1114 1852 LINE",
"913 1852 LINE SMOOTH",
"891 1852 OFFCURVE",
"874.167 1850.33 OFFCURVE",
"862.5 1847 CURVE SMOOTH",
"850.833 1843.67 OFFCURVE",
"839.333 1834.67 OFFCURVE",
"828 1820 CURVE",
"597 1546 LINE",
"725 1546 LINE SMOOTH",
"738.333 1546 OFFCURVE",
"749.667 1547 OFFCURVE",
"759 1549 CURVE SMOOTH",
"768.333 1551 OFFCURVE",
"778 1556.67 OFFCURVE",
"788 1566 CURVE SMOOTH"
);
}
);
width = 1471;
}
);
leftKerningGroup = U;
rightKerningGroup = U;
unicode = 00DA;
},
{
glyphname = Ucircumflex;
layers = (
{
layerId = "84BF924C-12BE-451A-A75C-68D6DFA13EBD";
name = Regular;
paths = (
{
closed = 1;
nodes = (
"165 0 LINE"
);
},
{
closed = 1;
nodes = (
"676.667 154 OFFCURVE",
"623.5 164.167 OFFCURVE",
"576.5 184.5 CURVE SMOOTH",
"529.5 204.833 OFFCURVE",
"489.833 233 OFFCURVE",
"457.5 269 CURVE SMOOTH",
"425.167 305 OFFCURVE",
"400.5 348 OFFCURVE",
"383.5 398 CURVE SMOOTH",
"366.5 448 OFFCURVE",
"358 503 OFFCURVE",
"358 563 CURVE SMOOTH",
"358 1433 LINE",
"165 1433 LINE",
"165 562 LINE SMOOTH",
"165 479.333 OFFCURVE",
"178.167 402.667 OFFCURVE",
"204.5 332 CURVE SMOOTH",
"230.833 261.333 OFFCURVE",
"268.667 200.167 OFFCURVE",
"318 148.5 CURVE SMOOTH",
"367.333 96.8333 OFFCURVE",
"427.333 56.3333 OFFCURVE",
"498 27 CURVE SMOOTH",
"568.667 -2 OFFCURVE",
"648 -17 OFFCURVE",
"736 -17 CURVE SMOOTH",
"824 -17 OFFCURVE",
"903.333 -2 OFFCURVE",
"974 27 CURVE SMOOTH",
"1044.67 56.3333 OFFCURVE",
"1104.5 96.8333 OFFCURVE",
"1153.5 148.5 CURVE SMOOTH",
"1202.5 200.167 OFFCURVE",
"1240.17 261.333 OFFCURVE",
"1266.5 332 CURVE SMOOTH",
"1292.83 402.667 OFFCURVE",
"1306 479.333 OFFCURVE",
"1306 562 CURVE SMOOTH",
"1306 1433 LINE",
"1113 1433 LINE",
"1113 562 LINE SMOOTH",
"1113 502 OFFCURVE",
"1104.5 447 OFFCURVE",
"1087.5 397 CURVE SMOOTH",
"1070.5 347 OFFCURVE",
"1045.83 304 OFFCURVE",
"1013.5 268 CURVE SMOOTH",
"981.167 232 OFFCURVE",
"941.667 204 OFFCURVE",
"895 184 CURVE SMOOTH",
"848.333 164 OFFCURVE",
"795.333 154 OFFCURVE",
"736 154 CURVE SMOOTH"
);
},
{
closed = 1;
nodes = (
"1057 1546 LINE",
"819 1817 LINE",
"659 1817 LINE",
"420 1546 LINE",
"545 1546 LINE SMOOTH",
"553 1546 OFFCURVE",
"562.5 1547.5 OFFCURVE",
"573.5 1550.5 CURVE SMOOTH",
"584.5 1553.5 OFFCURVE",
"595.667 1561.67 OFFCURVE",
"607 1575 CURVE SMOOTH",
"724 1716 LINE",
"736 1733 LINE",
"740 1727 OFFCURVE",
"744 1721.33 OFFCURVE",
"748 1716 CURVE",
"865 1575 LINE SMOOTH",
"876.333 1561.67 OFFCURVE",
"887.5 1553.5 OFFCURVE",
"898.5 1550.5 CURVE SMOOTH",
"909.5 1547.5 OFFCURVE",
"919 1546 OFFCURVE",
"927 1546 CURVE SMOOTH"
);
}
);
width = 1471;
}
);
leftKerningGroup = U;
rightKerningGroup = U;
unicode = 00DB;
},
{
glyphname = Udieresis;
layers = (
{
layerId = "84BF924C-12BE-451A-A75C-68D6DFA13EBD";
name = Regular;
paths = (
{
closed = 1;
nodes = (
"165 0 LINE"
);
},
{
closed = 1;
nodes = (
"676.667 154 OFFCURVE",
"623.5 164.167 OFFCURVE",
"576.5 184.5 CURVE SMOOTH",
"529.5 204.833 OFFCURVE",
"489.833 233 OFFCURVE",
"457.5 269 CURVE SMOOTH",
"425.167 305 OFFCURVE",
"400.5 348 OFFCURVE",
"383.5 398 CURVE SMOOTH",
"366.5 448 OFFCURVE",
"358 503 OFFCURVE",
"358 563 CURVE SMOOTH",
"358 1433 LINE",
"165 1433 LINE",
"165 562 LINE SMOOTH",
"165 479.333 OFFCURVE",
"178.167 402.667 OFFCURVE",
"204.5 332 CURVE SMOOTH",
"230.833 261.333 OFFCURVE",
"268.667 200.167 OFFCURVE",
"318 148.5 CURVE SMOOTH",
"367.333 96.8333 OFFCURVE",
"427.333 56.3333 OFFCURVE",
"498 27 CURVE SMOOTH",
"568.667 -2 OFFCURVE",
"648 -17 OFFCURVE",
"736 -17 CURVE SMOOTH",
"824 -17 OFFCURVE",
"903.333 -2 OFFCURVE",
"974 27 CURVE SMOOTH",
"1044.67 56.3333 OFFCURVE",
"1104.5 96.8333 OFFCURVE",
"1153.5 148.5 CURVE SMOOTH",
"1202.5 200.167 OFFCURVE",
"1240.17 261.333 OFFCURVE",
"1266.5 332 CURVE SMOOTH",
"1292.83 402.667 OFFCURVE",
"1306 479.333 OFFCURVE",
"1306 562 CURVE SMOOTH",
"1306 1433 LINE",
"1113 1433 LINE",
"1113 562 LINE SMOOTH",
"1113 502 OFFCURVE",
"1104.5 447 OFFCURVE",
"1087.5 397 CURVE SMOOTH",
"1070.5 347 OFFCURVE",
"1045.83 304 OFFCURVE",
"1013.5 268 CURVE SMOOTH",
"981.167 232 OFFCURVE",
"941.667 204 OFFCURVE",
"895 184 CURVE SMOOTH",
"848.333 164 OFFCURVE",
"795.333 154 OFFCURVE",
"736 154 CURVE SMOOTH"
);
},
{
closed = 1;
nodes = (
"637 1681.33 OFFCURVE",
"634 1695.83 OFFCURVE",
"628 1709.5 CURVE SMOOTH",
"622 1723.17 OFFCURVE",
"613.833 1735 OFFCURVE",
"603.5 1745 CURVE SMOOTH",
"593.167 1755 OFFCURVE",
"581.167 1763 OFFCURVE",
"567.5 1769 CURVE SMOOTH",
"553.833 1775 OFFCURVE",
"539.667 1778 OFFCURVE",
"525 1778 CURVE SMOOTH",
"511 1778 OFFCURVE",
"497.5 1775 OFFCURVE",
"484.5 1769 CURVE SMOOTH",
"471.5 1763 OFFCURVE",
"460 1755 OFFCURVE",
"450 1745 CURVE SMOOTH",
"440 1735 OFFCURVE",
"432 1723.17 OFFCURVE",
"426 1709.5 CURVE SMOOTH",
"420 1695.83 OFFCURVE",
"417 1681.33 OFFCURVE",
"417 1666 CURVE SMOOTH",
"417 1651.33 OFFCURVE",
"420 1637.5 OFFCURVE",
"426 1624.5 CURVE SMOOTH",
"432 1611.5 OFFCURVE",
"440 1600 OFFCURVE",
"450 1590 CURVE SMOOTH",
"460 1580 OFFCURVE",
"471.5 1572.17 OFFCURVE",
"484.5 1566.5 CURVE SMOOTH",
"497.5 1560.83 OFFCURVE",
"511 1558 OFFCURVE",
"525 1558 CURVE SMOOTH",
"539.667 1558 OFFCURVE",
"553.833 1560.83 OFFCURVE",
"567.5 1566.5 CURVE SMOOTH",
"581.167 1572.17 OFFCURVE",
"593.167 1580 OFFCURVE",
"603.5 1590 CURVE SMOOTH",
"613.833 1600 OFFCURVE",
"622 1611.5 OFFCURVE",
"628 1624.5 CURVE SMOOTH",
"634 1637.5 OFFCURVE",
"637 1651.33 OFFCURVE",
"637 1666 CURVE SMOOTH"
);
},
{
closed = 1;
nodes = (
"1055 1681.33 OFFCURVE",
"1052 1695.83 OFFCURVE",
"1046 1709.5 CURVE SMOOTH",
"1040 1723.17 OFFCURVE",
"1032 1735 OFFCURVE",
"1022 1745 CURVE SMOOTH",
"1012 1755 OFFCURVE",
"1000.33 1763 OFFCURVE",
"987 1769 CURVE SMOOTH",
"973.667 1775 OFFCURVE",
"959.667 1778 OFFCURVE",
"945 1778 CURVE SMOOTH",
"929.667 1778 OFFCURVE",
"915.333 1775 OFFCURVE",
"902 1769 CURVE SMOOTH",
"888.667 1763 OFFCURVE",
"877 1755 OFFCURVE",
"867 1745 CURVE SMOOTH",
"857 1735 OFFCURVE",
"849.167 1723.17 OFFCURVE",
"843.5 1709.5 CURVE SMOOTH",
"837.833 1695.83 OFFCURVE",
"835 1681.33 OFFCURVE",
"835 1666 CURVE SMOOTH",
"835 1651.33 OFFCURVE",
"837.833 1637.5 OFFCURVE",
"843.5 1624.5 CURVE SMOOTH",
"849.167 1611.5 OFFCURVE",
"857 1600 OFFCURVE",
"867 1590 CURVE SMOOTH",
"877 1580 OFFCURVE",
"888.667 1572.17 OFFCURVE",
"902 1566.5 CURVE SMOOTH",
"915.333 1560.83 OFFCURVE",
"929.667 1558 OFFCURVE",
"945 1558 CURVE SMOOTH",
"959.667 1558 OFFCURVE",
"973.667 1560.83 OFFCURVE",
"987 1566.5 CURVE SMOOTH",
"1000.33 1572.17 OFFCURVE",
"1012 1580 OFFCURVE",
"1022 1590 CURVE SMOOTH",
"1032 1600 OFFCURVE",
"1040 1611.5 OFFCURVE",
"1046 1624.5 CURVE SMOOTH",
"1052 1637.5 OFFCURVE",
"1055 1651.33 OFFCURVE",
"1055 1666 CURVE SMOOTH"
);
}
);
width = 1471;
}
);
leftKerningGroup = U;
rightKerningGroup = U;
unicode = 00DC;
},
{
glyphname = Ugrave;
layers = (
{
layerId = "84BF924C-12BE-451A-A75C-68D6DFA13EBD";
name = Regular;
paths = (
{
closed = 1;
nodes = (
"165 0 LINE"
);
},
{
closed = 1;
nodes = (
"676.667 154 OFFCURVE",
"623.5 164.167 OFFCURVE",
"576.5 184.5 CURVE SMOOTH",
"529.5 204.833 OFFCURVE",
"489.833 233 OFFCURVE",
"457.5 269 CURVE SMOOTH",
"425.167 305 OFFCURVE",
"400.5 348 OFFCURVE",
"383.5 398 CURVE SMOOTH",
"366.5 448 OFFCURVE",
"358 503 OFFCURVE",
"358 563 CURVE SMOOTH",
"358 1433 LINE",
"165 1433 LINE",
"165 562 LINE SMOOTH",
"165 479.333 OFFCURVE",
"178.167 402.667 OFFCURVE",
"204.5 332 CURVE SMOOTH",
"230.833 261.333 OFFCURVE",
"268.667 200.167 OFFCURVE",
"318 148.5 CURVE SMOOTH",
"367.333 96.8333 OFFCURVE",
"427.333 56.3333 OFFCURVE",
"498 27 CURVE SMOOTH",
"568.667 -2 OFFCURVE",
"648 -17 OFFCURVE",
"736 -17 CURVE SMOOTH",
"824 -17 OFFCURVE",
"903.333 -2 OFFCURVE",
"974 27 CURVE SMOOTH",
"1044.67 56.3333 OFFCURVE",
"1104.5 96.8333 OFFCURVE",
"1153.5 148.5 CURVE SMOOTH",
"1202.5 200.167 OFFCURVE",
"1240.17 261.333 OFFCURVE",
"1266.5 332 CURVE SMOOTH",
"1292.83 402.667 OFFCURVE",
"1306 479.333 OFFCURVE",
"1306 562 CURVE SMOOTH",
"1306 1433 LINE",
"1113 1433 LINE",
"1113 562 LINE SMOOTH",
"1113 502 OFFCURVE",
"1104.5 447 OFFCURVE",
"1087.5 397 CURVE SMOOTH",
"1070.5 347 OFFCURVE",
"1045.83 304 OFFCURVE",
"1013.5 268 CURVE SMOOTH",
"981.167 232 OFFCURVE",
"941.667 204 OFFCURVE",
"895 184 CURVE SMOOTH",
"848.333 164 OFFCURVE",
"795.333 154 OFFCURVE",
"736 154 CURVE SMOOTH"
);
},
{
closed = 1;
nodes = (
"369 1852 LINE",
"681 1565 LINE SMOOTH",
"691 1555.67 OFFCURVE",
"700.167 1550.17 OFFCURVE",
"708.5 1548.5 CURVE SMOOTH",
"716.833 1546.83 OFFCURVE",
"728.333 1546 OFFCURVE",
"743 1546 CURVE SMOOTH",
"871 1546 LINE",
"643 1820 LINE",
"631.667 1834.67 OFFCURVE",
"620.333 1843.67 OFFCURVE",
"609 1847 CURVE SMOOTH",
"597.667 1850.33 OFFCURVE",
"581 1852 OFFCURVE",
"559 1852 CURVE SMOOTH"
);
}
);
width = 1471;
}
);
leftKerningGroup = U;
rightKerningGroup = U;
unicode = 00D9;
},
{
glyphname = V;
lastChange = "2014-08-24 05:34:06 -0500";
layers = (
{
layerId = "84BF924C-12BE-451A-A75C-68D6DFA13EBD";
name = Regular;
paths = (
{
closed = 1;
nodes = (
"6 1433 LINE",
"590 0 LINE",
"764 0 LINE",
"1348 1433 LINE",
"1146 1433 LINE",
"679 263 LINE",
"207 1433 LINE"
);
}
);
width = 1354;
}
);
leftKerningGroup = V;
rightKerningGroup = V;
unicode = 0056;
},
{
glyphname = W;
lastChange = "2014-08-24 05:37:33 -0500";
layers = (
{
layerId = "84BF924C-12BE-451A-A75C-68D6DFA13EBD";
name = Regular;
paths = (
{
closed = 1;
nodes = (
"31 1433 LINE",
"478 0 LINE",
"652 0 LINE",
"1036 1153 LINE",
"1419 0 LINE",
"1593 0 LINE",
"2040 1433 LINE",
"1837 1432 LINE",
"1502 300 LINE",
"1120 1432 LINE",
"964 1432 LINE",
"580 300 LINE",
"245 1432 LINE"
);
}
);
width = 2071;
}
);
leftKerningGroup = W;
rightKerningGroup = W;
unicode = 0057;
},
{
glyphname = X;
lastChange = "2014-08-24 05:40:40 -0500";
layers = (
{
layerId = "84BF924C-12BE-451A-A75C-68D6DFA13EBD";
name = Regular;
paths = (
{
closed = 1;
nodes = (
"513 736 LINE",
"20 0 LINE",
"229 0 LINE",
"649 631 LINE",
"1053 0 LINE",
"1276 0 LINE",
"785 745 LINE",
"1260 1433 LINE",
"1049 1433 LINE",
"652 839 LINE",
"264 1433 LINE",
"40 1433 LINE"
);
}
);
width = 1298;
}
);
leftKerningGroup = X;
rightKerningGroup = X;
unicode = 0058;
},
{
glyphname = Y;
lastChange = "2014-08-24 05:42:19 -0500";
layers = (
{
layerId = "84BF924C-12BE-451A-A75C-68D6DFA13EBD";
name = Regular;
paths = (
{
closed = 1;
nodes = (
"721 571 LINE",
"1246 1433 LINE",
"1035 1433 LINE SMOOTH",
"624 734 LINE",
"214 1432 LINE SMOOTH",
"2 1433 LINE",
"527 571 LINE",
"527 0 LINE",
"721 0 LINE"
);
}
);
width = 1248;
}
);
leftKerningGroup = Y;
rightKerningGroup = Y;
unicode = 0059;
},
{
glyphname = Yacute;
lastChange = "2014-08-24 05:42:59 -0500";
layers = (
{
layerId = "84BF924C-12BE-451A-A75C-68D6DFA13EBD";
name = Regular;
paths = (
{
closed = 1;
nodes = (
"1004 1852 LINE",
"803 1852 LINE SMOOTH",
"781 1852 OFFCURVE",
"764.167 1850.33 OFFCURVE",
"752.5 1847 CURVE SMOOTH",
"740.833 1843.67 OFFCURVE",
"729.333 1834.67 OFFCURVE",
"718 1820 CURVE",
"487 1546 LINE",
"615 1546 LINE SMOOTH",
"628.333 1546 OFFCURVE",
"639.667 1547 OFFCURVE",
"649 1549 CURVE SMOOTH",
"658.333 1551 OFFCURVE",
"668 1556.67 OFFCURVE",
"678 1566 CURVE SMOOTH"
);
},
{
closed = 1;
nodes = (
"721 571 LINE",
"1246 1433 LINE",
"1035 1433 LINE SMOOTH",
"624 734 LINE",
"214 1432 LINE SMOOTH",
"2 1433 LINE",
"527 571 LINE",
"527 0 LINE",
"721 0 LINE"
);
}
);
width = 1248;
}
);
leftKerningGroup = Y;
rightKerningGroup = Y;
unicode = 00DD;
},
{
glyphname = Ydieresis;
lastChange = "2014-08-24 05:42:55 -0500";
layers = (
{
layerId = "84BF924C-12BE-451A-A75C-68D6DFA13EBD";
name = Regular;
paths = (
{
closed = 1;
nodes = (
"527 1681.33 OFFCURVE",
"524 1695.83 OFFCURVE",
"518 1709.5 CURVE SMOOTH",
"512 1723.17 OFFCURVE",
"503.833 1735 OFFCURVE",
"493.5 1745 CURVE SMOOTH",
"483.167 1755 OFFCURVE",
"471.167 1763 OFFCURVE",
"457.5 1769 CURVE SMOOTH",
"443.833 1775 OFFCURVE",
"429.667 1778 OFFCURVE",
"415 1778 CURVE SMOOTH",
"401 1778 OFFCURVE",
"387.5 1775 OFFCURVE",
"374.5 1769 CURVE SMOOTH",
"361.5 1763 OFFCURVE",
"350 1755 OFFCURVE",
"340 1745 CURVE SMOOTH",
"330 1735 OFFCURVE",
"322 1723.17 OFFCURVE",
"316 1709.5 CURVE SMOOTH",
"310 1695.83 OFFCURVE",
"307 1681.33 OFFCURVE",
"307 1666 CURVE SMOOTH",
"307 1651.33 OFFCURVE",
"310 1637.5 OFFCURVE",
"316 1624.5 CURVE SMOOTH",
"322 1611.5 OFFCURVE",
"330 1600 OFFCURVE",
"340 1590 CURVE SMOOTH",
"350 1580 OFFCURVE",
"361.5 1572.17 OFFCURVE",
"374.5 1566.5 CURVE SMOOTH",
"387.5 1560.83 OFFCURVE",
"401 1558 OFFCURVE",
"415 1558 CURVE SMOOTH",
"429.667 1558 OFFCURVE",
"443.834 1560.83 OFFCURVE",
"457.5 1566.5 CURVE SMOOTH",
"471.167 1572.17 OFFCURVE",
"483.167 1580 OFFCURVE",
"493.5 1590 CURVE SMOOTH",
"503.833 1600 OFFCURVE",
"512 1611.5 OFFCURVE",
"518 1624.5 CURVE SMOOTH",
"524 1637.5 OFFCURVE",
"527 1651.33 OFFCURVE",
"527 1666 CURVE SMOOTH"
);
},
{
closed = 1;
nodes = (
"945 1681.33 OFFCURVE",
"942 1695.83 OFFCURVE",
"936 1709.5 CURVE SMOOTH",
"930 1723.17 OFFCURVE",
"922 1735 OFFCURVE",
"912 1745 CURVE SMOOTH",
"902 1755 OFFCURVE",
"890.333 1763 OFFCURVE",
"877 1769 CURVE SMOOTH",
"863.667 1775 OFFCURVE",
"849.667 1778 OFFCURVE",
"835 1778 CURVE SMOOTH",
"819.667 1778 OFFCURVE",
"805.333 1775 OFFCURVE",
"792 1769 CURVE SMOOTH",
"778.667 1763 OFFCURVE",
"767 1755 OFFCURVE",
"757 1745 CURVE SMOOTH",
"747 1735 OFFCURVE",
"739.167 1723.17 OFFCURVE",
"733.5 1709.5 CURVE SMOOTH",
"727.833 1695.83 OFFCURVE",
"725 1681.33 OFFCURVE",
"725 1666 CURVE SMOOTH",
"725 1651.33 OFFCURVE",
"727.833 1637.5 OFFCURVE",
"733.5 1624.5 CURVE SMOOTH",
"739.167 1611.5 OFFCURVE",
"747 1600 OFFCURVE",
"757 1590 CURVE SMOOTH",
"767 1580 OFFCURVE",
"778.667 1572.17 OFFCURVE",
"792 1566.5 CURVE SMOOTH",
"805.333 1560.83 OFFCURVE",
"819.667 1558 OFFCURVE",
"835 1558 CURVE SMOOTH",
"849.667 1558 OFFCURVE",
"863.667 1560.83 OFFCURVE",
"877 1566.5 CURVE SMOOTH",
"890.333 1572.17 OFFCURVE",
"902 1580 OFFCURVE",
"912 1590 CURVE SMOOTH",
"922 1600 OFFCURVE",
"930 1611.5 OFFCURVE",
"936 1624.5 CURVE SMOOTH",
"942 1637.5 OFFCURVE",
"945 1651.33 OFFCURVE",
"945 1666 CURVE SMOOTH"
);
},
{
closed = 1;
nodes = (
"721 571 LINE",
"1246 1433 LINE",
"1035 1433 LINE SMOOTH",
"624 734 LINE",
"214 1432 LINE SMOOTH",
"2 1433 LINE",
"527 571 LINE",
"527 0 LINE",
"721 0 LINE"
);
}
);
width = 1248;
}
);
leftKerningGroup = Y;
rightKerningGroup = Y;
unicode = 0178;
},
{
glyphname = Z;
lastChange = "2014-08-24 05:44:49 -0500";
layers = (
{
layerId = "84BF924C-12BE-451A-A75C-68D6DFA13EBD";
name = Regular;
paths = (
{
closed = 1;
nodes = (
"1139 1433 LINE",
"91 1433 LINE",
"91 1275 LINE",
"904 1275 LINE",
"53 158 LINE",
"53 0 LINE",
"1127 0 LINE",
"1127 158 LINE",
"282 158 LINE",
"1139 1275 LINE"
);
}
);
width = 1204;
}
);
leftKerningGroup = Z;
rightKerningGroup = Z;
unicode = 005A;
},
{
glyphname = a;
lastChange = "2014-08-24 05:45:51 -0500";
layers = (
{
layerId = "84BF924C-12BE-451A-A75C-68D6DFA13EBD";
name = Regular;
paths = (
{
closed = 1;
nodes = (
"432 1031 OFFCURVE",
"361 1018 OFFCURVE",
"296 991 CURVE SMOOTH",
"231 964 OFFCURVE",
"171 924 OFFCURVE",
"115 870 CURVE",
"204 760 LINE",
"247 797 LINE",
"262 808 OFFCURVE",
"281 820 OFFCURVE",
"303 834 CURVE SMOOTH",
"324 847 OFFCURVE",
"350 860 OFFCURVE",
"380 871 CURVE SMOOTH",
"409 882 OFFCURVE",
"446 887 OFFCURVE",
"490 887 CURVE SMOOTH",
"555 887 OFFCURVE",
"605 867 OFFCURVE",
"639 827 CURVE SMOOTH",
"673 786 OFFCURVE",
"690 727 OFFCURVE",
"690 648 CURVE SMOOTH",
"690 637 LINE",
"575 634 OFFCURVE",
"477 624 OFFCURVE",
"398 606 CURVE SMOOTH",
"319 587 OFFCURVE",
"254 564 OFFCURVE",
"205 535 CURVE SMOOTH",
"156 506 OFFCURVE",
"120 474 OFFCURVE",
"98 437 CURVE SMOOTH",
"76 400 OFFCURVE",
"65 378 OFFCURVE",
"65 270 CURVE SMOOTH",
"65 224 OFFCURVE",
"73 167 OFFCURVE",
"88 134 CURVE SMOOTH",
"103 100 OFFCURVE",
"123 72 OFFCURVE",
"149 50 CURVE SMOOTH",
"174 28 OFFCURVE",
"204 12 OFFCURVE",
"239 1 CURVE SMOOTH",
"274 -10 OFFCURVE",
"311 -16 OFFCURVE",
"350 -16 CURVE SMOOTH",
"389 -16 OFFCURVE",
"424 -12 OFFCURVE",
"456 -5 CURVE SMOOTH",
"487 2 OFFCURVE",
"517 12 OFFCURVE",
"545 25 CURVE SMOOTH",
"572 38 OFFCURVE",
"599 54 OFFCURVE",
"625 73 CURVE SMOOTH",
"650 92 OFFCURVE",
"676 113 OFFCURVE",
"703 137 CURVE",
"704 0 LINE",
"864 0 LINE",
"864 648 LINE SMOOTH",
"864 705 OFFCURVE",
"856 757 OFFCURVE",
"841 804 CURVE SMOOTH",
"826 851 OFFCURVE",
"803 892 OFFCURVE",
"773 925 CURVE SMOOTH",
"743 958 OFFCURVE",
"706 984 OFFCURVE",
"662 1003 CURVE SMOOTH",
"618 1022 OFFCURVE",
"568 1031 OFFCURVE",
"511 1031 CURVE SMOOTH"
);
},
{
closed = 1;
nodes = (
"690 246 LINE",
"670 224.667 OFFCURVE",
"649.5 205.5 OFFCURVE",
"628.5 188.5 CURVE SMOOTH",
"607.5 171.5 OFFCURVE",
"585.5 157.167 OFFCURVE",
"562.5 145.5 CURVE SMOOTH",
"539.5 133.833 OFFCURVE",
"515 124.833 OFFCURVE",
"489 118.5 CURVE SMOOTH",
"463 112.167 OFFCURVE",
"434.333 109 OFFCURVE",
"403 109 CURVE SMOOTH",
"379.667 109 OFFCURVE",
"357.833 111.833 OFFCURVE",
"337.5 117.5 CURVE SMOOTH",
"317.167 123.167 OFFCURVE",
"299.5 132.167 OFFCURVE",
"284.5 144.5 CURVE SMOOTH",
"269.5 156.833 OFFCURVE",
"257.667 172.667 OFFCURVE",
"249 192 CURVE SMOOTH",
"240.333 211.333 OFFCURVE",
"236 251 OFFCURVE",
"236 278 CURVE SMOOTH",
"236 374 OFFCURVE",
"244 375 OFFCURVE",
"261 405 CURVE SMOOTH",
"274 428 OFFCURVE",
"303 447 OFFCURVE",
"340 464 CURVE SMOOTH",
"376 480 OFFCURVE",
"423 494 OFFCURVE",
"481 504 CURVE SMOOTH",
"538 514 OFFCURVE",
"608 521 OFFCURVE",
"690 524 CURVE"
);
}
);
width = 994;
}
);
leftKerningGroup = a;
rightKerningGroup = a;
unicode = 0061;
},
{
glyphname = aacute;
lastChange = "2014-08-24 05:46:19 -0500";
layers = (
{
layerId = "84BF924C-12BE-451A-A75C-68D6DFA13EBD";
name = Regular;
paths = (
{
closed = 1;
nodes = (
"780 1449 LINE",
"606 1449 LINE SMOOTH",
"584.667 1449 OFFCURVE",
"568.5 1445.5 OFFCURVE",
"557.5 1438.5 CURVE SMOOTH",
"546.5 1431.5 OFFCURVE",
"536.333 1420.33 OFFCURVE",
"527 1405 CURVE SMOOTH",
"379 1163 LINE",
"485 1163 LINE SMOOTH",
"499 1163 OFFCURVE",
"510.5 1165.17 OFFCURVE",
"519.5 1169.5 CURVE SMOOTH",
"528.5 1173.83 OFFCURVE",
"537.667 1181 OFFCURVE",
"547 1191 CURVE SMOOTH"
);
},
{
closed = 1;
nodes = (
"432 1031 OFFCURVE",
"361 1018 OFFCURVE",
"296 991 CURVE SMOOTH",
"231 964 OFFCURVE",
"171 924 OFFCURVE",
"115 870 CURVE",
"204 760 LINE",
"247 797 LINE",
"262 808 OFFCURVE",
"281 820 OFFCURVE",
"303 834 CURVE SMOOTH",
"324 847 OFFCURVE",
"350 860 OFFCURVE",
"380 871 CURVE SMOOTH",
"409 882 OFFCURVE",
"446 887 OFFCURVE",
"490 887 CURVE SMOOTH",
"555 887 OFFCURVE",
"605 867 OFFCURVE",
"639 827 CURVE SMOOTH",
"673 786 OFFCURVE",
"690 727 OFFCURVE",
"690 648 CURVE SMOOTH",
"690 637 LINE",
"575 634 OFFCURVE",
"477 624 OFFCURVE",
"398 606 CURVE SMOOTH",
"319 587 OFFCURVE",
"254 564 OFFCURVE",
"205 535 CURVE SMOOTH",
"156 506 OFFCURVE",
"120 474 OFFCURVE",
"98 437 CURVE SMOOTH",
"76 400 OFFCURVE",
"65 378 OFFCURVE",
"65 270 CURVE SMOOTH",
"65 224 OFFCURVE",
"73 167 OFFCURVE",
"88 134 CURVE SMOOTH",
"103 100 OFFCURVE",
"123 72 OFFCURVE",
"149 50 CURVE SMOOTH",
"174 28 OFFCURVE",
"204 12 OFFCURVE",
"239 1 CURVE SMOOTH",
"274 -10 OFFCURVE",
"311 -16 OFFCURVE",
"350 -16 CURVE SMOOTH",
"389 -16 OFFCURVE",
"424 -12 OFFCURVE",
"456 -5 CURVE SMOOTH",
"487 2 OFFCURVE",
"517 12 OFFCURVE",
"545 25 CURVE SMOOTH",
"572 38 OFFCURVE",
"599 54 OFFCURVE",
"625 73 CURVE SMOOTH",
"650 92 OFFCURVE",
"676 113 OFFCURVE",
"703 137 CURVE",
"704 0 LINE",
"864 0 LINE",
"864 648 LINE SMOOTH",
"864 705 OFFCURVE",
"856 757 OFFCURVE",
"841 804 CURVE SMOOTH",
"826 851 OFFCURVE",
"803 892 OFFCURVE",
"773 925 CURVE SMOOTH",
"743 958 OFFCURVE",
"706 984 OFFCURVE",
"662 1003 CURVE SMOOTH",
"618 1022 OFFCURVE",
"568 1031 OFFCURVE",
"511 1031 CURVE SMOOTH"
);
},
{
closed = 1;
nodes = (
"690 246 LINE",
"670 224.667 OFFCURVE",
"649.5 205.5 OFFCURVE",
"628.5 188.5 CURVE SMOOTH",
"607.5 171.5 OFFCURVE",
"585.5 157.167 OFFCURVE",
"562.5 145.5 CURVE SMOOTH",
"539.5 133.833 OFFCURVE",
"515 124.833 OFFCURVE",
"489 118.5 CURVE SMOOTH",
"463 112.167 OFFCURVE",
"434.333 109 OFFCURVE",
"403 109 CURVE SMOOTH",
"379.667 109 OFFCURVE",
"357.833 111.833 OFFCURVE",
"337.5 117.5 CURVE SMOOTH",
"317.167 123.167 OFFCURVE",
"299.5 132.167 OFFCURVE",
"284.5 144.5 CURVE SMOOTH",
"269.5 156.833 OFFCURVE",
"257.667 172.667 OFFCURVE",
"249 192 CURVE SMOOTH",
"240.333 211.333 OFFCURVE",
"236 251 OFFCURVE",
"236 278 CURVE SMOOTH",
"236 374 OFFCURVE",
"244 375 OFFCURVE",
"261 405 CURVE SMOOTH",
"274 428 OFFCURVE",
"303 447 OFFCURVE",
"340 464 CURVE SMOOTH",
"376 480 OFFCURVE",
"423 494 OFFCURVE",
"481 504 CURVE SMOOTH",
"538 514 OFFCURVE",
"608 521 OFFCURVE",
"690 524 CURVE"
);
}
);
width = 994;
}
);
leftKerningGroup = a;
rightKerningGroup = a;
unicode = 00E1;
},
{
glyphname = acircumflex;
lastChange = "2014-08-24 05:46:26 -0500";
layers = (
{
layerId = "84BF924C-12BE-451A-A75C-68D6DFA13EBD";
name = Regular;
paths = (
{
closed = 1;
nodes = (
"795 1169 LINE",
"572 1433 LINE",
"406 1433 LINE",
"183 1169 LINE",
"306 1169 LINE SMOOTH",
"322 1169 OFFCURVE",
"337 1175.33 OFFCURVE",
"351 1188 CURVE",
"475 1320 LINE SMOOTH",
"480.333 1325.33 OFFCURVE",
"485.667 1331.67 OFFCURVE",
"491 1339 CURVE",
"494.333 1335.67 OFFCURVE",
"497.167 1332.33 OFFCURVE",
"499.5 1329 CURVE SMOOTH",
"501.833 1325.67 OFFCURVE",
"504.667 1322.67 OFFCURVE",
"508 1320 CURVE",
"631 1188 LINE",
"638.333 1180.67 OFFCURVE",
"645.833 1175.67 OFFCURVE",
"653.5 1173 CURVE SMOOTH",
"661.167 1170.33 OFFCURVE",
"668.667 1169 OFFCURVE",
"676 1169 CURVE SMOOTH"
);
},
{
closed = 1;
nodes = (
"432 1031 OFFCURVE",
"361 1018 OFFCURVE",
"296 991 CURVE SMOOTH",
"231 964 OFFCURVE",
"171 924 OFFCURVE",
"115 870 CURVE",
"204 760 LINE",
"247 797 LINE",
"262 808 OFFCURVE",
"281 820 OFFCURVE",
"303 834 CURVE SMOOTH",
"324 847 OFFCURVE",
"350 860 OFFCURVE",
"380 871 CURVE SMOOTH",
"409 882 OFFCURVE",
"446 887 OFFCURVE",
"490 887 CURVE SMOOTH",
"555 887 OFFCURVE",
"605 867 OFFCURVE",
"639 827 CURVE SMOOTH",
"673 786 OFFCURVE",
"690 727 OFFCURVE",
"690 648 CURVE SMOOTH",
"690 637 LINE",
"575 634 OFFCURVE",
"477 624 OFFCURVE",
"398 606 CURVE SMOOTH",
"319 587 OFFCURVE",
"254 564 OFFCURVE",
"205 535 CURVE SMOOTH",
"156 506 OFFCURVE",
"120 474 OFFCURVE",
"98 437 CURVE SMOOTH",
"76 400 OFFCURVE",
"65 378 OFFCURVE",
"65 270 CURVE SMOOTH",
"65 224 OFFCURVE",
"73 167 OFFCURVE",
"88 134 CURVE SMOOTH",
"103 100 OFFCURVE",
"123 72 OFFCURVE",
"149 50 CURVE SMOOTH",
"174 28 OFFCURVE",
"204 12 OFFCURVE",
"239 1 CURVE SMOOTH",
"274 -10 OFFCURVE",
"311 -16 OFFCURVE",
"350 -16 CURVE SMOOTH",
"389 -16 OFFCURVE",
"424 -12 OFFCURVE",
"456 -5 CURVE SMOOTH",
"487 2 OFFCURVE",
"517 12 OFFCURVE",
"545 25 CURVE SMOOTH",
"572 38 OFFCURVE",
"599 54 OFFCURVE",
"625 73 CURVE SMOOTH",
"650 92 OFFCURVE",
"676 113 OFFCURVE",
"703 137 CURVE",
"704 0 LINE",
"864 0 LINE",
"864 648 LINE SMOOTH",
"864 705 OFFCURVE",
"856 757 OFFCURVE",
"841 804 CURVE SMOOTH",
"826 851 OFFCURVE",
"803 892 OFFCURVE",
"773 925 CURVE SMOOTH",
"743 958 OFFCURVE",
"706 984 OFFCURVE",
"662 1003 CURVE SMOOTH",
"618 1022 OFFCURVE",
"568 1031 OFFCURVE",
"511 1031 CURVE SMOOTH"
);
},
{
closed = 1;
nodes = (
"690 246 LINE",
"670 224.667 OFFCURVE",
"649.5 205.5 OFFCURVE",
"628.5 188.5 CURVE SMOOTH",
"607.5 171.5 OFFCURVE",
"585.5 157.167 OFFCURVE",
"562.5 145.5 CURVE SMOOTH",
"539.5 133.833 OFFCURVE",
"515 124.833 OFFCURVE",
"489 118.5 CURVE SMOOTH",
"463 112.167 OFFCURVE",
"434.333 109 OFFCURVE",
"403 109 CURVE SMOOTH",
"379.667 109 OFFCURVE",
"357.833 111.833 OFFCURVE",
"337.5 117.5 CURVE SMOOTH",
"317.167 123.167 OFFCURVE",
"299.5 132.167 OFFCURVE",
"284.5 144.5 CURVE SMOOTH",
"269.5 156.833 OFFCURVE",
"257.667 172.667 OFFCURVE",
"249 192 CURVE SMOOTH",
"240.333 211.333 OFFCURVE",
"236 251 OFFCURVE",
"236 278 CURVE SMOOTH",
"236 374 OFFCURVE",
"244 375 OFFCURVE",
"261 405 CURVE SMOOTH",
"274 428 OFFCURVE",
"303 447 OFFCURVE",
"340 464 CURVE SMOOTH",
"376 480 OFFCURVE",
"423 494 OFFCURVE",
"481 504 CURVE SMOOTH",
"538 514 OFFCURVE",
"608 521 OFFCURVE",
"690 524 CURVE"
);
}
);
width = 994;
}
);
leftKerningGroup = a;
rightKerningGroup = a;
unicode = 00E2;
},
{
glyphname = adieresis;
lastChange = "2014-08-24 05:46:31 -0500";
layers = (
{
layerId = "84BF924C-12BE-451A-A75C-68D6DFA13EBD";
name = Regular;
paths = (
{
closed = 1;
nodes = (
"411 1304.33 OFFCURVE",
"408 1319 OFFCURVE",
"402 1333 CURVE SMOOTH",
"396 1347 OFFCURVE",
"387.667 1359.17 OFFCURVE",
"377 1369.5 CURVE SMOOTH",
"366.333 1379.83 OFFCURVE",
"354.167 1388 OFFCURVE",
"340.5 1394 CURVE SMOOTH",
"326.833 1400 OFFCURVE",
"312.333 1403 OFFCURVE",
"297 1403 CURVE SMOOTH",
"282.333 1403 OFFCURVE",
"268.333 1400 OFFCURVE",
"255 1394 CURVE SMOOTH",
"241.667 1388 OFFCURVE",
"229.833 1379.83 OFFCURVE",
"219.5 1369.5 CURVE SMOOTH",
"209.167 1359.17 OFFCURVE",
"201 1347 OFFCURVE",
"195 1333 CURVE SMOOTH",
"189 1319 OFFCURVE",
"186 1304.33 OFFCURVE",
"186 1289 CURVE SMOOTH",
"186 1273.67 OFFCURVE",
"189 1259.33 OFFCURVE",
"195 1246 CURVE SMOOTH",
"201 1232.67 OFFCURVE",
"209.167 1221 OFFCURVE",
"219.5 1211 CURVE SMOOTH",
"229.833 1201 OFFCURVE",
"241.667 1193 OFFCURVE",
"255 1187 CURVE SMOOTH",
"268.333 1181 OFFCURVE",
"282.333 1178 OFFCURVE",
"297 1178 CURVE SMOOTH",
"312.333 1178 OFFCURVE",
"326.833 1181 OFFCURVE",
"340.5 1187 CURVE SMOOTH",
"354.167 1193 OFFCURVE",
"366.333 1201 OFFCURVE",
"377 1211 CURVE SMOOTH",
"387.667 1221 OFFCURVE",
"396 1232.67 OFFCURVE",
"402 1246 CURVE SMOOTH",
"408 1259.33 OFFCURVE",
"411 1273.67 OFFCURVE",
"411 1289 CURVE SMOOTH"
);
},
{
closed = 1;
nodes = (
"792 1304.33 OFFCURVE",
"789 1319 OFFCURVE",
"783 1333 CURVE SMOOTH",
"777 1347 OFFCURVE",
"768.833 1359.17 OFFCURVE",
"758.5 1369.5 CURVE SMOOTH",
"748.167 1379.83 OFFCURVE",
"736.167 1388 OFFCURVE",
"722.5 1394 CURVE SMOOTH",
"708.833 1400 OFFCURVE",
"694.333 1403 OFFCURVE",
"679 1403 CURVE SMOOTH",
"663.667 1403 OFFCURVE",
"649.167 1400 OFFCURVE",
"635.5 1394 CURVE SMOOTH",
"621.833 1388 OFFCURVE",
"610 1379.83 OFFCURVE",
"600 1369.5 CURVE SMOOTH",
"590 1359.17 OFFCURVE",
"582 1347 OFFCURVE",
"576 1333 CURVE SMOOTH",
"570 1319 OFFCURVE",
"567 1304.33 OFFCURVE",
"567 1289 CURVE SMOOTH",
"567 1273.67 OFFCURVE",
"570 1259.33 OFFCURVE",
"576 1246 CURVE SMOOTH",
"582 1232.67 OFFCURVE",
"590 1221 OFFCURVE",
"600 1211 CURVE SMOOTH",
"610 1201 OFFCURVE",
"621.833 1193 OFFCURVE",
"635.5 1187 CURVE SMOOTH",
"649.167 1181 OFFCURVE",
"663.667 1178 OFFCURVE",
"679 1178 CURVE SMOOTH",
"694.333 1178 OFFCURVE",
"708.833 1181 OFFCURVE",
"722.5 1187 CURVE SMOOTH",
"736.167 1193 OFFCURVE",
"748.167 1201 OFFCURVE",
"758.5 1211 CURVE SMOOTH",
"768.833 1221 OFFCURVE",
"777 1232.67 OFFCURVE",
"783 1246 CURVE SMOOTH",
"789 1259.33 OFFCURVE",
"792 1273.67 OFFCURVE",
"792 1289 CURVE SMOOTH"
);
},
{
closed = 1;
nodes = (
"432 1031 OFFCURVE",
"361 1018 OFFCURVE",
"296 991 CURVE SMOOTH",
"231 964 OFFCURVE",
"171 924 OFFCURVE",
"115 870 CURVE",
"204 760 LINE",
"247 797 LINE",
"262 808 OFFCURVE",
"281 820 OFFCURVE",
"303 834 CURVE SMOOTH",
"324 847 OFFCURVE",
"350 860 OFFCURVE",
"380 871 CURVE SMOOTH",
"409 882 OFFCURVE",
"446 887 OFFCURVE",
"490 887 CURVE SMOOTH",
"555 887 OFFCURVE",
"605 867 OFFCURVE",
"639 827 CURVE SMOOTH",
"673 786 OFFCURVE",
"690 727 OFFCURVE",
"690 648 CURVE SMOOTH",
"690 637 LINE",
"575 634 OFFCURVE",
"477 624 OFFCURVE",
"398 606 CURVE SMOOTH",
"319 587 OFFCURVE",
"254 564 OFFCURVE",
"205 535 CURVE SMOOTH",
"156 506 OFFCURVE",
"120 474 OFFCURVE",
"98 437 CURVE SMOOTH",
"76 400 OFFCURVE",
"65 378 OFFCURVE",
"65 270 CURVE SMOOTH",
"65 224 OFFCURVE",
"73 167 OFFCURVE",
"88 134 CURVE SMOOTH",
"103 100 OFFCURVE",
"123 72 OFFCURVE",
"149 50 CURVE SMOOTH",
"174 28 OFFCURVE",
"204 12 OFFCURVE",
"239 1 CURVE SMOOTH",
"274 -10 OFFCURVE",
"311 -16 OFFCURVE",
"350 -16 CURVE SMOOTH",
"389 -16 OFFCURVE",
"424 -12 OFFCURVE",
"456 -5 CURVE SMOOTH",
"487 2 OFFCURVE",
"517 12 OFFCURVE",
"545 25 CURVE SMOOTH",
"572 38 OFFCURVE",
"599 54 OFFCURVE",
"625 73 CURVE SMOOTH",
"650 92 OFFCURVE",
"676 113 OFFCURVE",
"703 137 CURVE",
"704 0 LINE",
"864 0 LINE",
"864 648 LINE SMOOTH",
"864 705 OFFCURVE",
"856 757 OFFCURVE",
"841 804 CURVE SMOOTH",
"826 851 OFFCURVE",
"803 892 OFFCURVE",
"773 925 CURVE SMOOTH",
"743 958 OFFCURVE",
"706 984 OFFCURVE",
"662 1003 CURVE SMOOTH",
"618 1022 OFFCURVE",
"568 1031 OFFCURVE",
"511 1031 CURVE SMOOTH"
);
},
{
closed = 1;
nodes = (
"690 246 LINE",
"670 224.667 OFFCURVE",
"649.5 205.5 OFFCURVE",
"628.5 188.5 CURVE SMOOTH",
"607.5 171.5 OFFCURVE",
"585.5 157.167 OFFCURVE",
"562.5 145.5 CURVE SMOOTH",
"539.5 133.833 OFFCURVE",
"515 124.833 OFFCURVE",
"489 118.5 CURVE SMOOTH",
"463 112.167 OFFCURVE",
"434.333 109 OFFCURVE",
"403 109 CURVE SMOOTH",
"379.667 109 OFFCURVE",
"357.833 111.833 OFFCURVE",
"337.5 117.5 CURVE SMOOTH",
"317.167 123.167 OFFCURVE",
"299.5 132.167 OFFCURVE",
"284.5 144.5 CURVE SMOOTH",
"269.5 156.833 OFFCURVE",
"257.667 172.667 OFFCURVE",
"249 192 CURVE SMOOTH",
"240.333 211.333 OFFCURVE",
"236 251 OFFCURVE",
"236 278 CURVE SMOOTH",
"236 374 OFFCURVE",
"244 375 OFFCURVE",
"261 405 CURVE SMOOTH",
"274 428 OFFCURVE",
"303 447 OFFCURVE",
"340 464 CURVE SMOOTH",
"376 480 OFFCURVE",
"423 494 OFFCURVE",
"481 504 CURVE SMOOTH",
"538 514 OFFCURVE",
"608 521 OFFCURVE",
"690 524 CURVE"
);
}
);
width = 994;
}
);
leftKerningGroup = a;
rightKerningGroup = a;
unicode = 00E4;
},
{
glyphname = agrave;
lastChange = "2014-08-24 05:46:39 -0500";
layers = (
{
layerId = "84BF924C-12BE-451A-A75C-68D6DFA13EBD";
name = Regular;
paths = (
{
closed = 1;
nodes = (
"220 1449 LINE",
"454 1191 LINE SMOOTH",
"463.333 1181 OFFCURVE",
"472.333 1173.83 OFFCURVE",
"481 1169.5 CURVE SMOOTH",
"489.667 1165.17 OFFCURVE",
"501 1163 OFFCURVE",
"515 1163 CURVE SMOOTH",
"617 1163 LINE",
"468 1405 LINE SMOOTH",
"458.667 1420.33 OFFCURVE",
"448.667 1431.5 OFFCURVE",
"438 1438.5 CURVE SMOOTH",
"427.333 1445.5 OFFCURVE",
"411 1449 OFFCURVE",
"389 1449 CURVE SMOOTH"
);
},
{
closed = 1;
nodes = (
"432 1031 OFFCURVE",
"361 1018 OFFCURVE",
"296 991 CURVE SMOOTH",
"231 964 OFFCURVE",
"171 924 OFFCURVE",
"115 870 CURVE",
"204 760 LINE",
"247 797 LINE",
"262 808 OFFCURVE",
"281 820 OFFCURVE",
"303 834 CURVE SMOOTH",
"324 847 OFFCURVE",
"350 860 OFFCURVE",
"380 871 CURVE SMOOTH",
"409 882 OFFCURVE",
"446 887 OFFCURVE",
"490 887 CURVE SMOOTH",
"555 887 OFFCURVE",
"605 867 OFFCURVE",
"639 827 CURVE SMOOTH",
"673 786 OFFCURVE",
"690 727 OFFCURVE",
"690 648 CURVE SMOOTH",
"690 637 LINE",
"575 634 OFFCURVE",
"477 624 OFFCURVE",
"398 606 CURVE SMOOTH",
"319 587 OFFCURVE",
"254 564 OFFCURVE",
"205 535 CURVE SMOOTH",
"156 506 OFFCURVE",
"120 474 OFFCURVE",
"98 437 CURVE SMOOTH",
"76 400 OFFCURVE",
"65 378 OFFCURVE",
"65 270 CURVE SMOOTH",
"65 224 OFFCURVE",
"73 167 OFFCURVE",
"88 134 CURVE SMOOTH",
"103 100 OFFCURVE",
"123 72 OFFCURVE",
"149 50 CURVE SMOOTH",
"174 28 OFFCURVE",
"204 12 OFFCURVE",
"239 1 CURVE SMOOTH",
"274 -10 OFFCURVE",
"311 -16 OFFCURVE",
"350 -16 CURVE SMOOTH",
"389 -16 OFFCURVE",
"424 -12 OFFCURVE",
"456 -5 CURVE SMOOTH",
"487 2 OFFCURVE",
"517 12 OFFCURVE",
"545 25 CURVE SMOOTH",
"572 38 OFFCURVE",
"599 54 OFFCURVE",
"625 73 CURVE SMOOTH",
"650 92 OFFCURVE",
"676 113 OFFCURVE",
"703 137 CURVE",
"704 0 LINE",
"864 0 LINE",
"864 648 LINE SMOOTH",
"864 705 OFFCURVE",
"856 757 OFFCURVE",
"841 804 CURVE SMOOTH",
"826 851 OFFCURVE",
"803 892 OFFCURVE",
"773 925 CURVE SMOOTH",
"743 958 OFFCURVE",
"706 984 OFFCURVE",
"662 1003 CURVE SMOOTH",
"618 1022 OFFCURVE",
"568 1031 OFFCURVE",
"511 1031 CURVE SMOOTH"
);
},
{
closed = 1;
nodes = (
"690 246 LINE",
"670 224.667 OFFCURVE",
"649.5 205.5 OFFCURVE",
"628.5 188.5 CURVE SMOOTH",
"607.5 171.5 OFFCURVE",
"585.5 157.167 OFFCURVE",
"562.5 145.5 CURVE SMOOTH",
"539.5 133.833 OFFCURVE",
"515 124.833 OFFCURVE",
"489 118.5 CURVE SMOOTH",
"463 112.167 OFFCURVE",
"434.333 109 OFFCURVE",
"403 109 CURVE SMOOTH",
"379.667 109 OFFCURVE",
"357.833 111.833 OFFCURVE",
"337.5 117.5 CURVE SMOOTH",
"317.167 123.167 OFFCURVE",
"299.5 132.167 OFFCURVE",
"284.5 144.5 CURVE SMOOTH",
"269.5 156.833 OFFCURVE",
"257.667 172.667 OFFCURVE",
"249 192 CURVE SMOOTH",
"240.333 211.333 OFFCURVE",
"236 251 OFFCURVE",
"236 278 CURVE SMOOTH",
"236 374 OFFCURVE",
"244 375 OFFCURVE",
"261 405 CURVE SMOOTH",
"274 428 OFFCURVE",
"303 447 OFFCURVE",
"340 464 CURVE SMOOTH",
"376 480 OFFCURVE",
"423 494 OFFCURVE",
"481 504 CURVE SMOOTH",
"538 514 OFFCURVE",
"608 521 OFFCURVE",
"690 524 CURVE"
);
}
);
width = 994;
}
);
leftKerningGroup = a;
rightKerningGroup = a;
unicode = 00E0;
},
{
glyphname = aring;
lastChange = "2014-08-24 05:46:48 -0500";
layers = (
{
layerId = "84BF924C-12BE-451A-A75C-68D6DFA13EBD";
name = Regular;
paths = (
{
closed = 1;
nodes = (
"290 1287.67 OFFCURVE",
"295.333 1262.67 OFFCURVE",
"306 1240 CURVE SMOOTH",
"316.667 1217.33 OFFCURVE",
"331.167 1198 OFFCURVE",
"349.5 1182 CURVE SMOOTH",
"367.833 1166 OFFCURVE",
"389 1153.5 OFFCURVE",
"413 1144.5 CURVE SMOOTH",
"437 1135.5 OFFCURVE",
"462.333 1131 OFFCURVE",
"489 1131 CURVE SMOOTH",
"516.333 1131 OFFCURVE",
"542.167 1135.5 OFFCURVE",
"566.5 1144.5 CURVE SMOOTH",
"590.833 1153.5 OFFCURVE",
"612.333 1166 OFFCURVE",
"631 1182 CURVE SMOOTH",
"649.667 1198 OFFCURVE",
"664.333 1217.33 OFFCURVE",
"675 1240 CURVE SMOOTH",
"685.667 1262.67 OFFCURVE",
"691 1287.67 OFFCURVE",
"691 1315 CURVE SMOOTH",
"691 1343 OFFCURVE",
"685.667 1368.33 OFFCURVE",
"675 1391 CURVE SMOOTH",
"664.333 1413.67 OFFCURVE",
"649.667 1433.33 OFFCURVE",
"631 1450 CURVE SMOOTH",
"612.333 1466.67 OFFCURVE",
"590.833 1479.5 OFFCURVE",
"566.5 1488.5 CURVE SMOOTH",
"542.167 1497.5 OFFCURVE",
"516.333 1502 OFFCURVE",
"489 1502 CURVE SMOOTH",
"462.333 1502 OFFCURVE",
"437 1497.5 OFFCURVE",
"413 1488.5 CURVE SMOOTH",
"389 1479.5 OFFCURVE",
"367.833 1466.67 OFFCURVE",
"349.5 1450 CURVE SMOOTH",
"331.167 1433.33 OFFCURVE",
"316.667 1413.67 OFFCURVE",
"306 1391 CURVE SMOOTH",
"295.333 1368.33 OFFCURVE",
"290 1343 OFFCURVE",
"290 1315 CURVE SMOOTH"
);
},
{
closed = 1;
nodes = (
"390 1345 OFFCURVE",
"399 1369.33 OFFCURVE",
"417 1388 CURVE SMOOTH",
"435 1406.67 OFFCURVE",
"459.667 1416 OFFCURVE",
"491 1416 CURVE SMOOTH",
"521 1416 OFFCURVE",
"545.167 1406.67 OFFCURVE",
"563.5 1388 CURVE SMOOTH",
"581.833 1369.33 OFFCURVE",
"591 1345 OFFCURVE",
"591 1315 CURVE SMOOTH",
"591 1285.67 OFFCURVE",
"581.833 1261.67 OFFCURVE",
"563.5 1243 CURVE SMOOTH",
"545.167 1224.33 OFFCURVE",
"521 1215 OFFCURVE",
"491 1215 CURVE SMOOTH",
"459.667 1215 OFFCURVE",
"435 1224.33 OFFCURVE",
"417 1243 CURVE SMOOTH",
"399 1261.67 OFFCURVE",
"390 1285.67 OFFCURVE",
"390 1315 CURVE SMOOTH"
);
},
{
closed = 1;
nodes = (
"432 1031 OFFCURVE",
"361 1018 OFFCURVE",
"296 991 CURVE SMOOTH",
"231 964 OFFCURVE",
"171 924 OFFCURVE",
"115 870 CURVE",
"204 760 LINE",
"247 797 LINE",
"262 808 OFFCURVE",
"281 820 OFFCURVE",
"303 834 CURVE SMOOTH",
"324 847 OFFCURVE",
"350 860 OFFCURVE",
"380 871 CURVE SMOOTH",
"409 882 OFFCURVE",
"446 887 OFFCURVE",
"490 887 CURVE SMOOTH",
"555 887 OFFCURVE",
"605 867 OFFCURVE",
"639 827 CURVE SMOOTH",
"673 786 OFFCURVE",
"690 727 OFFCURVE",
"690 648 CURVE SMOOTH",
"690 637 LINE",
"575 634 OFFCURVE",
"477 624 OFFCURVE",
"398 606 CURVE SMOOTH",
"319 587 OFFCURVE",
"254 564 OFFCURVE",
"205 535 CURVE SMOOTH",
"156 506 OFFCURVE",
"120 474 OFFCURVE",
"98 437 CURVE SMOOTH",
"76 400 OFFCURVE",
"65 378 OFFCURVE",
"65 270 CURVE SMOOTH",
"65 224 OFFCURVE",
"73 167 OFFCURVE",
"88 134 CURVE SMOOTH",
"103 100 OFFCURVE",
"123 72 OFFCURVE",
"149 50 CURVE SMOOTH",
"174 28 OFFCURVE",
"204 12 OFFCURVE",
"239 1 CURVE SMOOTH",
"274 -10 OFFCURVE",
"311 -16 OFFCURVE",
"350 -16 CURVE SMOOTH",
"389 -16 OFFCURVE",
"424 -12 OFFCURVE",
"456 -5 CURVE SMOOTH",
"487 2 OFFCURVE",
"517 12 OFFCURVE",
"545 25 CURVE SMOOTH",
"572 38 OFFCURVE",
"599 54 OFFCURVE",
"625 73 CURVE SMOOTH",
"650 92 OFFCURVE",
"676 113 OFFCURVE",
"703 137 CURVE",
"704 0 LINE",
"864 0 LINE",
"864 648 LINE SMOOTH",
"864 705 OFFCURVE",
"856 757 OFFCURVE",
"841 804 CURVE SMOOTH",
"826 851 OFFCURVE",
"803 892 OFFCURVE",
"773 925 CURVE SMOOTH",
"743 958 OFFCURVE",
"706 984 OFFCURVE",
"662 1003 CURVE SMOOTH",
"618 1022 OFFCURVE",
"568 1031 OFFCURVE",
"511 1031 CURVE SMOOTH"
);
},
{
closed = 1;
nodes = (
"690 246 LINE",
"670 224.667 OFFCURVE",
"649.5 205.5 OFFCURVE",
"628.5 188.5 CURVE SMOOTH",
"607.5 171.5 OFFCURVE",
"585.5 157.167 OFFCURVE",
"562.5 145.5 CURVE SMOOTH",
"539.5 133.833 OFFCURVE",
"515 124.833 OFFCURVE",
"489 118.5 CURVE SMOOTH",
"463 112.167 OFFCURVE",
"434.333 109 OFFCURVE",
"403 109 CURVE SMOOTH",
"379.667 109 OFFCURVE",
"357.833 111.833 OFFCURVE",
"337.5 117.5 CURVE SMOOTH",
"317.167 123.167 OFFCURVE",
"299.5 132.167 OFFCURVE",
"284.5 144.5 CURVE SMOOTH",
"269.5 156.833 OFFCURVE",
"257.667 172.667 OFFCURVE",
"249 192 CURVE SMOOTH",
"240.333 211.333 OFFCURVE",
"236 251 OFFCURVE",
"236 278 CURVE SMOOTH",
"236 374 OFFCURVE",
"244 375 OFFCURVE",
"261 405 CURVE SMOOTH",
"274 428 OFFCURVE",
"303 447 OFFCURVE",
"340 464 CURVE SMOOTH",
"376 480 OFFCURVE",
"423 494 OFFCURVE",
"481 504 CURVE SMOOTH",
"538 514 OFFCURVE",
"608 521 OFFCURVE",
"690 524 CURVE"
);
}
);
width = 994;
}
);
leftKerningGroup = a;
rightKerningGroup = a;
unicode = 00E5;
},
{
glyphname = atilde;
lastChange = "2014-08-24 05:47:01 -0500";
layers = (
{
layerId = "84BF924C-12BE-451A-A75C-68D6DFA13EBD";
name = Regular;
paths = (
{
closed = 1;
nodes = (
"583.667 1325 OFFCURVE",
"568.167 1329.83 OFFCURVE",
"552.5 1339.5 CURVE SMOOTH",
"536.833 1349.17 OFFCURVE",
"520 1359.67 OFFCURVE",
"502 1371 CURVE SMOOTH",
"484 1382.33 OFFCURVE",
"464.833 1392.83 OFFCURVE",
"444.5 1402.5 CURVE SMOOTH",
"424.167 1412.17 OFFCURVE",
"402.333 1417 OFFCURVE",
"379 1417 CURVE SMOOTH",
"353 1417 OFFCURVE",
"329 1411.83 OFFCURVE",
"307 1401.5 CURVE SMOOTH",
"285 1391.17 OFFCURVE",
"266 1376.5 OFFCURVE",
"250 1357.5 CURVE SMOOTH",
"234 1338.5 OFFCURVE",
"221.667 1315.83 OFFCURVE",
"213 1289.5 CURVE SMOOTH",
"204.333 1263.17 OFFCURVE",
"200 1234 OFFCURVE",
"200 1202 CURVE",
"311 1202 LINE",
"312.333 1260.67 OFFCURVE",
"337 1290 OFFCURVE",
"385 1290 CURVE SMOOTH",
"400.333 1290 OFFCURVE",
"416 1285.17 OFFCURVE",
"432 1275.5 CURVE SMOOTH",
"448 1265.83 OFFCURVE",
"465 1255.33 OFFCURVE",
"483 1244 CURVE SMOOTH",
"501 1232.67 OFFCURVE",
"520.167 1222.17 OFFCURVE",
"540.5 1212.5 CURVE SMOOTH",
"560.833 1202.83 OFFCURVE",
"582.667 1198 OFFCURVE",
"606 1198 CURVE SMOOTH",
"632.667 1198 OFFCURVE",
"656.833 1203.17 OFFCURVE",
"678.5 1213.5 CURVE SMOOTH",
"700.167 1223.83 OFFCURVE",
"718.833 1238.33 OFFCURVE",
"734.5 1257 CURVE SMOOTH",
"750.167 1275.67 OFFCURVE",
"762.167 1298.17 OFFCURVE",
"770.5 1324.5 CURVE SMOOTH",
"778.833 1350.83 OFFCURVE",
"783 1379.67 OFFCURVE",
"783 1411 CURVE",
"675 1411 LINE",
"674.333 1381.67 OFFCURVE",
"667.5 1360 OFFCURVE",
"654.5 1346 CURVE SMOOTH",
"641.5 1332 OFFCURVE",
"623 1325 OFFCURVE",
"599 1325 CURVE SMOOTH"
);
},
{
closed = 1;
nodes = (
"432 1031 OFFCURVE",
"361 1018 OFFCURVE",
"296 991 CURVE SMOOTH",
"231 964 OFFCURVE",
"171 924 OFFCURVE",
"115 870 CURVE",
"204 760 LINE",
"247 797 LINE",
"262 808 OFFCURVE",
"281 820 OFFCURVE",
"303 834 CURVE SMOOTH",
"324 847 OFFCURVE",
"350 860 OFFCURVE",
"380 871 CURVE SMOOTH",
"409 882 OFFCURVE",
"446 887 OFFCURVE",
"490 887 CURVE SMOOTH",
"555 887 OFFCURVE",
"605 867 OFFCURVE",
"639 827 CURVE SMOOTH",
"673 786 OFFCURVE",
"690 727 OFFCURVE",
"690 648 CURVE SMOOTH",
"690 637 LINE",
"575 634 OFFCURVE",
"477 624 OFFCURVE",
"398 606 CURVE SMOOTH",
"319 587 OFFCURVE",
"254 564 OFFCURVE",
"205 535 CURVE SMOOTH",
"156 506 OFFCURVE",
"120 474 OFFCURVE",
"98 437 CURVE SMOOTH",
"76 400 OFFCURVE",
"65 378 OFFCURVE",
"65 270 CURVE SMOOTH",
"65 224 OFFCURVE",
"73 167 OFFCURVE",
"88 134 CURVE SMOOTH",
"103 100 OFFCURVE",
"123 72 OFFCURVE",
"149 50 CURVE SMOOTH",
"174 28 OFFCURVE",
"204 12 OFFCURVE",
"239 1 CURVE SMOOTH",
"274 -10 OFFCURVE",
"311 -16 OFFCURVE",
"350 -16 CURVE SMOOTH",
"389 -16 OFFCURVE",
"424 -12 OFFCURVE",
"456 -5 CURVE SMOOTH",
"487 2 OFFCURVE",
"517 12 OFFCURVE",
"545 25 CURVE SMOOTH",
"572 38 OFFCURVE",
"599 54 OFFCURVE",
"625 73 CURVE SMOOTH",
"650 92 OFFCURVE",
"676 113 OFFCURVE",
"703 137 CURVE",
"704 0 LINE",
"864 0 LINE",
"864 648 LINE SMOOTH",
"864 705 OFFCURVE",
"856 757 OFFCURVE",
"841 804 CURVE SMOOTH",
"826 851 OFFCURVE",
"803 892 OFFCURVE",
"773 925 CURVE SMOOTH",
"743 958 OFFCURVE",
"706 984 OFFCURVE",
"662 1003 CURVE SMOOTH",
"618 1022 OFFCURVE",
"568 1031 OFFCURVE",
"511 1031 CURVE SMOOTH"
);
},
{
closed = 1;
nodes = (
"690 246 LINE",
"670 224.667 OFFCURVE",
"649.5 205.5 OFFCURVE",
"628.5 188.5 CURVE SMOOTH",
"607.5 171.5 OFFCURVE",
"585.5 157.167 OFFCURVE",
"562.5 145.5 CURVE SMOOTH",
"539.5 133.833 OFFCURVE",
"515 124.833 OFFCURVE",
"489 118.5 CURVE SMOOTH",
"463 112.167 OFFCURVE",
"434.333 109 OFFCURVE",
"403 109 CURVE SMOOTH",
"379.667 109 OFFCURVE",
"357.833 111.833 OFFCURVE",
"337.5 117.5 CURVE SMOOTH",
"317.167 123.167 OFFCURVE",
"299.5 132.167 OFFCURVE",
"284.5 144.5 CURVE SMOOTH",
"269.5 156.833 OFFCURVE",
"257.667 172.667 OFFCURVE",
"249 192 CURVE SMOOTH",
"240.333 211.333 OFFCURVE",
"236 251 OFFCURVE",
"236 278 CURVE SMOOTH",
"236 374 OFFCURVE",
"244 375 OFFCURVE",
"261 405 CURVE SMOOTH",
"274 428 OFFCURVE",
"303 447 OFFCURVE",
"340 464 CURVE SMOOTH",
"376 480 OFFCURVE",
"423 494 OFFCURVE",
"481 504 CURVE SMOOTH",
"538 514 OFFCURVE",
"608 521 OFFCURVE",
"690 524 CURVE"
);
}
);
width = 994;
}
);
leftKerningGroup = a;
rightKerningGroup = a;
unicode = 00E3;
},
{
glyphname = ae;
lastChange = "2014-08-24 05:49:17 -0500";
layers = (
{
layerId = "84BF924C-12BE-451A-A75C-68D6DFA13EBD";
name = Regular;
paths = (
{
closed = 1;
nodes = (
"1480 814 OFFCURVE",
"1453 863 OFFCURVE",
"1418 904 CURVE SMOOTH",
"1383 945 OFFCURVE",
"1342 976 OFFCURVE",
"1295 997 CURVE SMOOTH",
"1248 1018 OFFCURVE",
"1197 1029 OFFCURVE",
"1142 1029 CURVE SMOOTH",
"1061 1029 OFFCURVE",
"992 1012 OFFCURVE",
"935 978 CURVE SMOOTH",
"877 943 OFFCURVE",
"830 897 OFFCURVE",
"794 838 CURVE",
"772 899 OFFCURVE",
"737 946 OFFCURVE",
"688 980 CURVE SMOOTH",
"639 1014 OFFCURVE",
"575 1031 OFFCURVE",
"495 1031 CURVE SMOOTH",
"420 1031 OFFCURVE",
"347 1016 OFFCURVE",
"287 989 CURVE SMOOTH",
"225.001 961.315 OFFCURVE",
"167.132 922.199 OFFCURVE",
"113 870 CURVE",
"202 760 LINE",
"245 797 LINE",
"260 808 OFFCURVE",
"279 820 OFFCURVE",
"301 834 CURVE SMOOTH",
"320.522 846.085 OFFCURVE",
"344.365 858.169 OFFCURVE",
"371.725 868.648 CURVE SMOOTH",
"400.916 879.504 OFFCURVE",
"448.861 892 OFFCURVE",
"492 892 CURVE SMOOTH",
"557 892 OFFCURVE",
"607 871 OFFCURVE",
"641 829 CURVE SMOOTH",
"675 787 OFFCURVE",
"692 727 OFFCURVE",
"692 648 CURVE SMOOTH",
"692 598 LINE",
"577 595 OFFCURVE",
"479 584 OFFCURVE",
"400 565 CURVE SMOOTH",
"321 545 OFFCURVE",
"257 520 OFFCURVE",
"208 489 CURVE SMOOTH",
"159 458 OFFCURVE",
"123 424 OFFCURVE",
"101 385 CURVE SMOOTH",
"79 346 OFFCURVE",
"68 307 OFFCURVE",
"68 267 CURVE SMOOTH",
"68 219 OFFCURVE",
"76 177 OFFCURVE",
"91 142 CURVE SMOOTH",
"106 107 OFFCURVE",
"127 77 OFFCURVE",
"155 54 CURVE SMOOTH",
"182 31 OFFCURVE",
"215 13 OFFCURVE",
"253 2 CURVE SMOOTH",
"291 -10 OFFCURVE",
"333 -16 OFFCURVE",
"379 -16 CURVE SMOOTH",
"418 -16 OFFCURVE",
"458 -12 OFFCURVE",
"498 -3 CURVE SMOOTH",
"537 5 OFFCURVE",
"575 18 OFFCURVE",
"610 37 CURVE SMOOTH",
"645 56 OFFCURVE",
"678 80 OFFCURVE",
"707 109 CURVE SMOOTH",
"736 138 OFFCURVE",
"759 174 OFFCURVE",
"777 215 CURVE",
"814 138 OFFCURVE",
"864 80 OFFCURVE",
"928 43 CURVE SMOOTH",
"991 5 OFFCURVE",
"1062 -14 OFFCURVE",
"1140 -14 CURVE SMOOTH",
"1175 -14 OFFCURVE",
"1210 -11 OFFCURVE",
"1245 -4 CURVE SMOOTH",
"1280 2 OFFCURVE",
"1315 11 OFFCURVE",
"1348 24 CURVE SMOOTH",
"1381 37 OFFCURVE",
"1412 53 OFFCURVE",
"1441 73 CURVE SMOOTH",
"1470 92 OFFCURVE",
"1495 115 OFFCURVE",
"1517 142 CURVE",
"1433 232 LINE",
"1398 206 LINE",
"1385 196 OFFCURVE",
"1368 185 OFFCURVE",
"1348 173 CURVE SMOOTH",
"1327 161 OFFCURVE",
"1302 150 OFFCURVE",
"1271 141 CURVE SMOOTH",
"1240 131 OFFCURVE",
"1202 126 OFFCURVE",
"1156 126 CURVE SMOOTH",
"1113 126 OFFCURVE",
"1074 133 OFFCURVE",
"1039 148 CURVE SMOOTH",
"1004 163 OFFCURVE",
"973 185 OFFCURVE",
"948 215 CURVE SMOOTH",
"922 245 OFFCURVE",
"901 283 OFFCURVE",
"886 328 CURVE SMOOTH",
"871 373 OFFCURVE",
"862 425 OFFCURVE",
"859 486 CURVE",
"1489 486 LINE",
"1529 486 LINE",
"1530 556 LINE",
"1530 631 OFFCURVE",
"1520 697 OFFCURVE",
"1500 756 CURVE SMOOTH"
);
},
{
closed = 1;
nodes = (
"861 597 LINE",
"866 644 OFFCURVE",
"875 686 OFFCURVE",
"889 723 CURVE SMOOTH",
"903 760 OFFCURVE",
"922 792 OFFCURVE",
"945 818 CURVE SMOOTH",
"968 844 OFFCURVE",
"995 864 OFFCURVE",
"1027 878 CURVE SMOOTH",
"1059 891 OFFCURVE",
"1095 898 OFFCURVE",
"1136 898 CURVE SMOOTH",
"1173 898 OFFCURVE",
"1206 891 OFFCURVE",
"1235 876 CURVE SMOOTH",
"1264 861 OFFCURVE",
"1289 840 OFFCURVE",
"1310 813 CURVE SMOOTH",
"1330 786 OFFCURVE",
"1345 755 OFFCURVE",
"1356 718 CURVE SMOOTH",
"1367 681 OFFCURVE",
"1372 640 OFFCURVE",
"1372 597 CURVE"
);
},
{
closed = 1;
nodes = (
"692 403 LINE SMOOTH",
"692 354 OFFCURVE",
"685 311 OFFCURVE",
"671 274 CURVE SMOOTH",
"657 237 OFFCURVE",
"638 207 OFFCURVE",
"613 182 CURVE SMOOTH",
"588 157 OFFCURVE",
"560 139 OFFCURVE",
"527 127 CURVE SMOOTH",
"494 115 OFFCURVE",
"458 109 OFFCURVE",
"420 109 CURVE SMOOTH",
"366 109 OFFCURVE",
"322 122 OFFCURVE",
"289 149 CURVE SMOOTH",
"256 176 OFFCURVE",
"239 218 OFFCURVE",
"239 276 CURVE SMOOTH",
"239 304 OFFCURVE",
"247 330 OFFCURVE",
"264 354 CURVE SMOOTH",
"280 378 OFFCURVE",
"306 399 OFFCURVE",
"342 418 CURVE SMOOTH",
"378 437 OFFCURVE",
"425 452 OFFCURVE",
"483 464 CURVE SMOOTH",
"540 475 OFFCURVE",
"610 483 OFFCURVE",
"692 486 CURVE"
);
}
);
width = 1610;
}
);
leftKerningGroup = a;
rightKerningGroup = e;
unicode = 00E6;
},
{
glyphname = b;
lastChange = "2014-08-24 05:49:44 -0500";
layers = (
{
layerId = "84BF924C-12BE-451A-A75C-68D6DFA13EBD";
name = Regular;
paths = (
{
closed = 1;
nodes = (
"141 0 LINE",
"311 0 LINE",
"311 130 LINE",
"345 84 OFFCURVE",
"384.833 48.5 OFFCURVE",
"430.5 23.5 CURVE SMOOTH",
"476.167 -2 OFFCURVE",
"532.333 -14 OFFCURVE",
"599 -14 CURVE SMOOTH",
"666.333 -14 OFFCURVE",
"727 -1 OFFCURVE",
"781 25.5 CURVE SMOOTH",
"835 51.8333 OFFCURVE",
"880.833 88.8333 OFFCURVE",
"918.5 136.5 CURVE SMOOTH",
"956.167 184.167 OFFCURVE",
"985 241.667 OFFCURVE",
"1005 309 CURVE SMOOTH",
"1025 376.333 OFFCURVE",
"1035 451 OFFCURVE",
"1035 533 CURVE SMOOTH",
"1035 609.667 OFFCURVE",
"1026.17 678.667 OFFCURVE",
"1008.5 740 CURVE SMOOTH",
"990.833 801.333 OFFCURVE",
"965.333 853.5 OFFCURVE",
"932 896.5 CURVE SMOOTH",
"898.667 939.5 OFFCURVE",
"858.167 972.333 OFFCURVE",
"810.5 995 CURVE SMOOTH",
"762.833 1017.67 OFFCURVE",
"709.333 1029 OFFCURVE",
"650 1029 CURVE SMOOTH",
"580 1029 OFFCURVE",
"518 1014.33 OFFCURVE",
"464 985 CURVE SMOOTH",
"410 955.667 OFFCURVE",
"362 916 OFFCURVE",
"320 866 CURVE",
"320 1473 LINE",
"141 1473 LINE"
);
},
{
closed = 1;
nodes = (
"674.333 887 OFFCURVE",
"738.5 857.833 OFFCURVE",
"783.5 799.5 CURVE SMOOTH",
"828.5 741.167 OFFCURVE",
"851 650 OFFCURVE",
"851 526 CURVE SMOOTH",
"851 392.667 OFFCURVE",
"825.667 292.333 OFFCURVE",
"775 225 CURVE SMOOTH",
"724.333 157.667 OFFCURVE",
"651.333 124 OFFCURVE",
"556 124 CURVE SMOOTH",
"509.333 124 OFFCURVE",
"466.5 133 OFFCURVE",
"427.5 151 CURVE SMOOTH",
"388.5 169 OFFCURVE",
"352.667 200 OFFCURVE",
"320 244 CURVE",
"320 734 LINE",
"356 782.667 OFFCURVE",
"395.667 820.333 OFFCURVE",
"439 847 CURVE SMOOTH",
"482.333 873.667 OFFCURVE",
"533 887 OFFCURVE",
"591 887 CURVE SMOOTH"
);
}
);
width = 1120;
}
);
leftKerningGroup = b;
rightKerningGroup = b;
unicode = 0062;
},
{
glyphname = c;
lastChange = "2014-08-24 05:50:52 -0500";
layers = (
{
layerId = "84BF924C-12BE-451A-A75C-68D6DFA13EBD";
name = Regular;
paths = (
{
closed = 1;
nodes = (
"893 897 LINE",
"851 939 OFFCURVE",
"802.833 971.5 OFFCURVE",
"748.5 994.5 CURVE SMOOTH",
"694.167 1017.5 OFFCURVE",
"631.333 1029 OFFCURVE",
"560 1029 CURVE SMOOTH",
"483.333 1029 OFFCURVE",
"415.5 1016 OFFCURVE",
"356.5 990 CURVE SMOOTH",
"297.5 964 OFFCURVE",
"247.833 927.833 OFFCURVE",
"207.5 881.5 CURVE SMOOTH",
"167.167 835.167 OFFCURVE",
"136.5 780 OFFCURVE",
"115.5 716 CURVE SMOOTH",
"94.5001 652 OFFCURVE",
"84 582.333 OFFCURVE",
"84 507 CURVE SMOOTH",
"84 424.333 OFFCURVE",
"95.3334 350.667 OFFCURVE",
"118 286 CURVE SMOOTH",
"140.667 221.333 OFFCURVE",
"172 166.833 OFFCURVE",
"212 122.5 CURVE SMOOTH",
"252 78.1667 OFFCURVE",
"299.167 44.3333 OFFCURVE",
"353.5 21 CURVE SMOOTH",
"407.833 -2 OFFCURVE",
"466.667 -14 OFFCURVE",
"530 -14 CURVE SMOOTH",
"566.667 -14 OFFCURVE",
"602.667 -11 OFFCURVE",
"638 -5 CURVE SMOOTH",
"673.333 1 OFFCURVE",
"707.167 10.5 OFFCURVE",
"739.5 23.5 CURVE SMOOTH",
"771.833 36.5 OFFCURVE",
"802 52.6667 OFFCURVE",
"830 72 CURVE SMOOTH",
"858 91.3333 OFFCURVE",
"883 114.667 OFFCURVE",
"905 142 CURVE",
"821 235 LINE",
"784.5 208.5 LINE",
"772.167 198.167 OFFCURVE",
"756.833 186.667 OFFCURVE",
"738.5 174 CURVE SMOOTH",
"720.167 161.333 OFFCURVE",
"697 149.833 OFFCURVE",
"669 139.5 CURVE SMOOTH",
"641 129.167 OFFCURVE",
"605.333 124 OFFCURVE",
"562 124 CURVE SMOOTH",
"516.667 124 OFFCURVE",
"475.833 132.5 OFFCURVE",
"439.5 149.5 CURVE SMOOTH",
"403.167 166.5 OFFCURVE",
"372.167 191.167 OFFCURVE",
"346.5 223.5 CURVE SMOOTH",
"320.833 255.833 OFFCURVE",
"301 295.833 OFFCURVE",
"287 343.5 CURVE SMOOTH",
"273 391.167 OFFCURVE",
"266 445.667 OFFCURVE",
"266 507 CURVE SMOOTH",
"266 565.667 OFFCURVE",
"272.5 618.667 OFFCURVE",
"285.5 666 CURVE SMOOTH",
"298.5 713.333 OFFCURVE",
"317.833 753.667 OFFCURVE",
"343.5 787 CURVE SMOOTH",
"369.167 820.333 OFFCURVE",
"401 845.833 OFFCURVE",
"439 863.5 CURVE SMOOTH",
"477 881.167 OFFCURVE",
"521 890 OFFCURVE",
"571 890 CURVE SMOOTH",
"608.333 890 OFFCURVE",
"639.833 885.833 OFFCURVE",
"665.5 877.5 CURVE SMOOTH",
"691.167 869.167 OFFCURVE",
"712.833 860 OFFCURVE",
"730.5 850 CURVE SMOOTH",
"748.167 840 OFFCURVE",
"763 830.833 OFFCURVE",
"775 822.5 CURVE",
"808 799 LINE"
);
}
);
width = 955;
}
);
leftKerningGroup = c;
rightKerningGroup = c;
unicode = 0063;
},
{
glyphname = ccedilla;
lastChange = "2014-08-24 05:51:24 -0500";
layers = (
{
layerId = "84BF924C-12BE-451A-A75C-68D6DFA13EBD";
name = Regular;
paths = (
{
closed = 1;
nodes = (
"821 235 LINE",
"785 209 LINE",
"772 198 OFFCURVE",
"757 187 OFFCURVE",
"739 174 CURVE SMOOTH",
"720 161 OFFCURVE",
"697 150 OFFCURVE",
"669 140 CURVE SMOOTH",
"641 129 OFFCURVE",
"605 124 OFFCURVE",
"562 124 CURVE SMOOTH",
"517 124 OFFCURVE",
"476 133 OFFCURVE",
"440 150 CURVE SMOOTH",
"403 167 OFFCURVE",
"372 191 OFFCURVE",
"347 224 CURVE SMOOTH",
"321 256 OFFCURVE",
"301 296 OFFCURVE",
"287 344 CURVE SMOOTH",
"273 391 OFFCURVE",
"266 446 OFFCURVE",
"266 507 CURVE SMOOTH",
"266 566 OFFCURVE",
"273 619 OFFCURVE",
"286 666 CURVE SMOOTH",
"299 713 OFFCURVE",
"318 754 OFFCURVE",
"344 787 CURVE SMOOTH",
"369 820 OFFCURVE",
"401 846 OFFCURVE",
"439 864 CURVE SMOOTH",
"477 881 OFFCURVE",
"521 890 OFFCURVE",
"571 890 CURVE SMOOTH",
"608 890 OFFCURVE",
"640 886 OFFCURVE",
"666 878 CURVE",
"691 869 OFFCURVE",
"713 860 OFFCURVE",
"731 850 CURVE SMOOTH",
"748 840 OFFCURVE",
"763 831 OFFCURVE",
"775 823 CURVE",
"808 799 LINE",
"893 897 LINE",
"851 939 OFFCURVE",
"803 972 OFFCURVE",
"749 995 CURVE SMOOTH",
"694.752 1017.69 OFFCURVE",
"632.721 1028.7 OFFCURVE",
"562.908 1028.99 CURVE SMOOTH",
"561.761 1029 LINE SMOOTH",
"561.704 1029 OFFCURVE",
"561.646 1029 OFFCURVE",
"561.588 1029 CURVE SMOOTH",
"560 1029 LINE SMOOTH",
"483 1029 OFFCURVE",
"416 1016 OFFCURVE",
"357 989.999 CURVE SMOOTH",
"298 963.999 OFFCURVE",
"248 927.999 OFFCURVE",
"208 881.999 CURVE SMOOTH",
"167 834.999 OFFCURVE",
"137 779.999 OFFCURVE",
"116 715.999 CURVE SMOOTH",
"95 651.999 OFFCURVE",
"84 581.999 OFFCURVE",
"84 506.999 CURVE SMOOTH",
"84.0014 505.177 LINE SMOOTH",
"84.1614 422.93 OFFCURVE",
"95.1679 350.523 OFFCURVE",
"117.999 285.999 CURVE SMOOTH",
"118.441 284.756 LINE SMOOTH",
"138.07 228.419 OFFCURVE",
"164.589 179.833 OFFCURVE",
"197.999 138.999 CURVE SMOOTH",
"220.245 111.034 OFFCURVE",
"245.722 86.7041 OFFCURVE",
"273.917 66.2666 CURVE SMOOTH",
"298.419 48.2163 OFFCURVE",
"324.962 33.1705 OFFCURVE",
"353.69 21.1289 CURVE SMOOTH",
"394.548 3.25779 OFFCURVE",
"438.142 -8 OFFCURVE",
"484.999 -12 CURVE",
"443.999 -137 LINE",
"494.999 -144 OFFCURVE",
"533.999 -152 OFFCURVE",
"561.999 -163 CURVE SMOOTH",
"589.999 -173 OFFCURVE",
"603.999 -191 OFFCURVE",
"603.999 -216 CURVE SMOOTH",
"603.999 -233 OFFCURVE",
"596.999 -248 OFFCURVE",
"582.999 -259 CURVE SMOOTH",
"568.999 -270 OFFCURVE",
"547.999 -276 OFFCURVE",
"519.999 -276 CURVE SMOOTH",
"504.999 -276 OFFCURVE",
"492.999 -275 OFFCURVE",
"482.999 -273 CURVE",
"471.999 -270 OFFCURVE",
"462.999 -268 OFFCURVE",
"455.999 -265 CURVE SMOOTH",
"435.999 -257 LINE",
"430.999 -254 OFFCURVE",
"425.999 -253 OFFCURVE",
"421.999 -253 CURVE SMOOTH",
"410.999 -253 OFFCURVE",
"402.999 -259 OFFCURVE",
"398.999 -271 CURVE",
"382.999 -326 LINE",
"402.999 -335 OFFCURVE",
"425.999 -343 OFFCURVE",
"450.999 -349 CURVE",
"475.999 -354 OFFCURVE",
"501.999 -357 OFFCURVE",
"528.999 -357 CURVE SMOOTH",
"560.999 -357 OFFCURVE",
"589.999 -354 OFFCURVE",
"616.999 -348 CURVE",
"642.999 -341 OFFCURVE",
"665.999 -332 OFFCURVE",
"684.999 -320 CURVE SMOOTH",
"703.999 -308 OFFCURVE",
"717.999 -293 OFFCURVE",
"728.999 -276 CURVE SMOOTH",
"739.999 -259 OFFCURVE",
"744.999 -239 OFFCURVE",
"744.999 -218 CURVE SMOOTH",
"744.999 -182 OFFCURVE",
"730.999 -152 OFFCURVE",
"703.999 -129 CURVE SMOOTH",
"675.999 -106 OFFCURVE",
"630.999 -88 OFFCURVE",
"568.999 -75 CURVE",
"586.838 -12 LINE",
"604.123 -10 OFFCURVE",
"621.177 -8 OFFCURVE",
"637.999 -5 CURVE SMOOTH",
"654.221 -2 OFFCURVE",
"670.229 1.42099 OFFCURVE",
"686.021 5.82099 CURVE SMOOTH",
"713.278 13.0927 OFFCURVE",
"739.669 22.4854 OFFCURVE",
"764.999 33.9993 CURVE",
"787.562 45.5783 OFFCURVE",
"809.326 57.9709 OFFCURVE",
"829.999 71.9993 CURVE SMOOTH",
"857.999 90.9993 OFFCURVE",
"882.999 114.999 OFFCURVE",
"904.999 141.999 CURVE"
);
}
);
width = 956;
}
);
leftKerningGroup = c;
rightKerningGroup = c;
unicode = 00E7;
},
{
glyphname = d;
lastChange = "2014-08-24 05:51:39 -0500";
layers = (
{
layerId = "84BF924C-12BE-451A-A75C-68D6DFA13EBD";
name = Regular;
paths = (
{
closed = 1;
nodes = (
"873 0 LINE",
"979 0 LINE",
"979 1473 LINE",
"801 1473 LINE",
"801 911 LINE",
"766.333 949 OFFCURVE",
"726.833 978.5 OFFCURVE",
"682.5 999.5 CURVE SMOOTH",
"638.167 1020.5 OFFCURVE",
"585 1031 OFFCURVE",
"523 1031 CURVE SMOOTH",
"455 1031 OFFCURVE",
"393.833 1017.5 OFFCURVE",
"339.5 990.5 CURVE SMOOTH",
"285.167 963.5 OFFCURVE",
"239.333 926.333 OFFCURVE",
"202 879 CURVE SMOOTH",
"164.667 831.667 OFFCURVE",
"136 775.833 OFFCURVE",
"116 711.5 CURVE SMOOTH",
"96 647.167 OFFCURVE",
"86 577.667 OFFCURVE",
"86 503 CURVE SMOOTH",
"86 419 OFFCURVE",
"95 344.667 OFFCURVE",
"113 280 CURVE SMOOTH",
"131 215.333 OFFCURVE",
"156.667 161.333 OFFCURVE",
"190 118 CURVE SMOOTH",
"223.333 74.6667 OFFCURVE",
"263.667 41.8334 OFFCURVE",
"311 19.5001 CURVE SMOOTH",
"358.333 -3 OFFCURVE",
"411 -14 OFFCURVE",
"469 -14 CURVE SMOOTH",
"541 -14 OFFCURVE",
"604.833 1.83339 OFFCURVE",
"660.5 33.5001 CURVE SMOOTH",
"716.167 65.1667 OFFCURVE",
"765.667 107.333 OFFCURVE",
"809 160 CURVE",
"809 0 LINE"
);
},
{
closed = 1;
nodes = (
"486.333 130 OFFCURVE",
"450 137 OFFCURVE",
"418 151 CURVE SMOOTH",
"386 165 OFFCURVE",
"359 187.167 OFFCURVE",
"337 217.5 CURVE SMOOTH",
"315 247.833 OFFCURVE",
"298.333 286.5 OFFCURVE",
"287 333.5 CURVE SMOOTH",
"275.667 380.5 OFFCURVE",
"270 437 OFFCURVE",
"270 503 CURVE SMOOTH",
"270 627.667 OFFCURVE",
"295.333 723.667 OFFCURVE",
"346 791 CURVE SMOOTH",
"396.667 858.333 OFFCURVE",
"469 892 OFFCURVE",
"563 892 CURVE SMOOTH",
"611 892 OFFCURVE",
"654.333 883 OFFCURVE",
"693 865 CURVE SMOOTH",
"731.667 847 OFFCURVE",
"767.667 816 OFFCURVE",
"801 772 CURVE",
"801 283 LINE",
"764.333 234.333 OFFCURVE",
"724.167 196.667 OFFCURVE",
"680.5 170 CURVE SMOOTH",
"636.833 143.333 OFFCURVE",
"585.667 130 OFFCURVE",
"527 130 CURVE SMOOTH"
);
}
);
width = 1120;
}
);
leftKerningGroup = d;
rightKerningGroup = d;
unicode = 0064;
},
{
glyphname = eth;
lastChange = "2014-08-24 05:52:40 -0500";
layers = (
{
layerId = "84BF924C-12BE-451A-A75C-68D6DFA13EBD";
name = Regular;
paths = (
{
closed = 1;
nodes = (
"456 1009 LINE",
"640 1144 LINE",
"702.667 1101.33 OFFCURVE",
"753.5 1048.33 OFFCURVE",
"792.5 985 CURVE SMOOTH",
"831.5 921.667 OFFCURVE",
"857.667 844.667 OFFCURVE",
"871 754 CURVE",
"828.333 812 OFFCURVE",
"777.5 855.333 OFFCURVE",
"718.5 884 CURVE SMOOTH",
"659.5 912.667 OFFCURVE",
"596.333 927 OFFCURVE",
"529 927 CURVE SMOOTH",
"459.667 927 OFFCURVE",
"397.5 914.667 OFFCURVE",
"342.5 890 CURVE SMOOTH",
"287.5 865.333 OFFCURVE",
"240.667 832 OFFCURVE",
"202 790 CURVE SMOOTH",
"163.333 748 OFFCURVE",
"133.667 699.167 OFFCURVE",
"113 643.5 CURVE SMOOTH",
"92.3333 587.833 OFFCURVE",
"82 528.667 OFFCURVE",
"82 466 CURVE SMOOTH",
"82 391.333 OFFCURVE",
"94 324.333 OFFCURVE",
"118 265 CURVE SMOOTH",
"142 205.667 OFFCURVE",
"175 155.5 OFFCURVE",
"217 114.5 CURVE SMOOTH",
"259 73.5001 OFFCURVE",
"308.167 42 OFFCURVE",
"364.5 20 CURVE SMOOTH",
"420.833 -2 OFFCURVE",
"481.667 -13 OFFCURVE",
"547 -13 CURVE SMOOTH",
"627 -13 OFFCURVE",
"697.5 1.33339 OFFCURVE",
"758.5 30 CURVE SMOOTH",
"819.5 58.6667 OFFCURVE",
"870.5 99.6667 OFFCURVE",
"911.5 153 CURVE SMOOTH",
"952.5 206.333 OFFCURVE",
"983.333 271 OFFCURVE",
"1004 347 CURVE SMOOTH",
"1024.67 423 OFFCURVE",
"1035 508.667 OFFCURVE",
"1035 604 CURVE SMOOTH",
"1035 677.333 OFFCURVE",
"1028.5 744.833 OFFCURVE",
"1015.5 806.5 CURVE SMOOTH",
"1002.5 868.167 OFFCURVE",
"984.333 924.833 OFFCURVE",
"961 976.5 CURVE SMOOTH",
"937.667 1028.17 OFFCURVE",
"909.5 1074.67 OFFCURVE",
"876.5 1116 CURVE SMOOTH",
"843.5 1157.33 OFFCURVE",
"807 1194.33 OFFCURVE",
"767 1227 CURVE",
"905 1322 LINE",
"843 1412 LINE",
"677 1290 LINE",
"623 1322 OFFCURVE",
"565.833 1348 OFFCURVE",
"505.5 1368 CURVE SMOOTH",
"445.167 1388 OFFCURVE",
"383 1403.33 OFFCURVE",
"319 1414 CURVE",
"280 1282 LINE",
"337 1267 LINE",
"375 1257.67 OFFCURVE",
"410.833 1247.5 OFFCURVE",
"444.5 1236.5 CURVE SMOOTH",
"478.167 1225.5 OFFCURVE",
"510 1213.33 OFFCURVE",
"540 1200 CURVE",
"398 1106 LINE"
);
},
{
closed = 1;
nodes = (
"511 125 OFFCURVE",
"473.5 132.5 OFFCURVE",
"438.5 147.5 CURVE SMOOTH",
"403.5 162.5 OFFCURVE",
"372.667 184.333 OFFCURVE",
"346 213 CURVE SMOOTH",
"319.333 241.667 OFFCURVE",
"298.333 277.167 OFFCURVE",
"283 319.5 CURVE SMOOTH",
"267.667 361.833 OFFCURVE",
"260 410 OFFCURVE",
"260 464 CURVE SMOOTH",
"260 509.333 OFFCURVE",
"266.5 551.833 OFFCURVE",
"279.5 591.5 CURVE SMOOTH",
"292.5 631.167 OFFCURVE",
"311.667 665.5 OFFCURVE",
"337 694.5 CURVE SMOOTH",
"362.333 723.5 OFFCURVE",
"394 746.333 OFFCURVE",
"432 763 CURVE SMOOTH",
"470 779.667 OFFCURVE",
"514 788 OFFCURVE",
"564 788 CURVE SMOOTH",
"605.333 788 OFFCURVE",
"642.5 781.833 OFFCURVE",
"675.5 769.5 CURVE SMOOTH",
"708.5 757.167 OFFCURVE",
"737.333 740.5 OFFCURVE",
"762 719.5 CURVE SMOOTH",
"786.667 698.5 OFFCURVE",
"807.667 674.5 OFFCURVE",
"825 647.5 CURVE SMOOTH",
"842.333 620.5 OFFCURVE",
"856.333 592.667 OFFCURVE",
"867 564 CURVE",
"865 490 OFFCURVE",
"856.333 425.5 OFFCURVE",
"841 370.5 CURVE SMOOTH",
"825.667 315.5 OFFCURVE",
"804.5 269.833 OFFCURVE",
"777.5 233.5 CURVE SMOOTH",
"750.5 197.167 OFFCURVE",
"717.833 170 OFFCURVE",
"679.5 152 CURVE SMOOTH",
"641.167 134 OFFCURVE",
"598.333 125 OFFCURVE",
"551 125 CURVE SMOOTH"
);
}
);
width = 1132;
}
);
leftKerningGroup = eth;
rightKerningGroup = eth;
unicode = 00F0;
},
{
glyphname = e;
lastChange = "2014-08-24 05:53:28 -0500";
layers = (
{
layerId = "84BF924C-12BE-451A-A75C-68D6DFA13EBD";
name = Regular;
paths = (
{
closed = 1;
nodes = (
"482.667 1029 OFFCURVE",
"416.667 1016.17 OFFCURVE",
"358 990.5 CURVE SMOOTH",
"299.333 964.833 OFFCURVE",
"249.667 929.5 OFFCURVE",
"209 884.5 CURVE SMOOTH",
"168.333 839.5 OFFCURVE",
"137.167 786.333 OFFCURVE",
"115.5 725 CURVE SMOOTH",
"93.8333 663.667 OFFCURVE",
"83 597.667 OFFCURVE",
"83 527 CURVE SMOOTH",
"83 439.667 OFFCURVE",
"95 362.333 OFFCURVE",
"119 295 CURVE SMOOTH",
"143 227.667 OFFCURVE",
"176.5 171.167 OFFCURVE",
"219.5 125.5 CURVE SMOOTH",
"262.5 79.8333 OFFCURVE",
"313.5 45.1667 OFFCURVE",
"372.5 21.5 CURVE SMOOTH",
"431.5 -2 OFFCURVE",
"496 -14 OFFCURVE",
"566 -14 CURVE SMOOTH",
"602.667 -14 OFFCURVE",
"639.667 -11 OFFCURVE",
"677 -5 CURVE SMOOTH",
"714.333 1.83333 OFFCURVE",
"750.5 11.3333 OFFCURVE",
"785.5 24 CURVE SMOOTH",
"820.5 36.6667 OFFCURVE",
"853.333 52.8333 OFFCURVE",
"884 72.5 CURVE SMOOTH",
"914.667 92.1667 OFFCURVE",
"941 115.333 OFFCURVE",
"963 142 CURVE",
"886 240 LINE",
"838.5 208.5 LINE",
"822.833 198.167 OFFCURVE",
"803.333 187 OFFCURVE",
"780 175 CURVE SMOOTH",
"756.667 163 OFFCURVE",
"728.833 151.833 OFFCURVE",
"696.5 141.5 CURVE SMOOTH",
"664.167 131.167 OFFCURVE",
"625.667 126 OFFCURVE",
"581 126 CURVE SMOOTH",
"533 126 OFFCURVE",
"489.667 133.833 OFFCURVE",
"451 149.5 CURVE SMOOTH",
"412.333 165.167 OFFCURVE",
"383 178 OFFCURVE",
"351 211 CURVE SMOOTH",
"333 229 OFFCURVE",
"301 271 OFFCURVE",
"285 316 CURVE SMOOTH",
"268 364 OFFCURVE",
"260 419 OFFCURVE",
"259 483 CURVE",
"980 483 LINE",
"979 553 LINE",
"979 625 OFFCURVE",
"968.333 712.167 OFFCURVE",
"947 768.5 CURVE SMOOTH",
"925.667 824.833 OFFCURVE",
"896.167 872.167 OFFCURVE",
"858.5 910.5 CURVE SMOOTH",
"820.833 948.833 OFFCURVE",
"776.167 978.167 OFFCURVE",
"724.5 998.5 CURVE SMOOTH",
"672.833 1018.83 OFFCURVE",
"616.667 1029 OFFCURVE",
"556 1029 CURVE SMOOTH"
);
},
{
closed = 1;
nodes = (
"600.667 898 OFFCURVE",
"637 891.167 OFFCURVE",
"669 877.5 CURVE SMOOTH",
"701 863.833 OFFCURVE",
"728.167 844.5 OFFCURVE",
"750.5 819.5 CURVE SMOOTH",
"772.833 794.5 OFFCURVE",
"789.833 764.833 OFFCURVE",
"801.5 730.5 CURVE SMOOTH",
"813.167 696.167 OFFCURVE",
"819 635 OFFCURVE",
"819 594 CURVE",
"265 594 LINE",
"277 682 OFFCURVE",
"307.667 773.833 OFFCURVE",
"357 823.5 CURVE SMOOTH",
"406.333 873.167 OFFCURVE",
"474 898 OFFCURVE",
"560 898 CURVE SMOOTH"
);
}
);
width = 1056;
}
);
leftKerningGroup = c;
rightKerningGroup = e;
unicode = 0065;
},
{
glyphname = eacute;
lastChange = "2014-08-24 05:53:52 -0500";
layers = (
{
layerId = "84BF924C-12BE-451A-A75C-68D6DFA13EBD";
name = Regular;
paths = (
{
closed = 1;
nodes = (
"851 1449 LINE",
"677 1449 LINE SMOOTH",
"655.667 1449 OFFCURVE",
"639.5 1445.5 OFFCURVE",
"628.5 1438.5 CURVE SMOOTH",
"617.5 1431.5 OFFCURVE",
"607.333 1420.33 OFFCURVE",
"598 1405 CURVE SMOOTH",
"450 1163 LINE",
"556 1163 LINE SMOOTH",
"570 1163 OFFCURVE",
"581.5 1165.17 OFFCURVE",
"590.5 1169.5 CURVE SMOOTH",
"599.5 1173.83 OFFCURVE",
"608.667 1181 OFFCURVE",
"618 1191 CURVE SMOOTH"
);
},
{
closed = 1;
nodes = (
"482.667 1029 OFFCURVE",
"416.667 1016.17 OFFCURVE",
"358 990.5 CURVE SMOOTH",
"299.333 964.833 OFFCURVE",
"249.667 929.5 OFFCURVE",
"209 884.5 CURVE SMOOTH",
"168.333 839.5 OFFCURVE",
"137.167 786.333 OFFCURVE",
"115.5 725 CURVE SMOOTH",
"93.833 663.667 OFFCURVE",
"83 597.667 OFFCURVE",
"83 527 CURVE SMOOTH",
"83 439.667 OFFCURVE",
"95 362.333 OFFCURVE",
"119 295 CURVE SMOOTH",
"143 227.667 OFFCURVE",
"176.5 171.167 OFFCURVE",
"219.5 125.5 CURVE SMOOTH",
"262.5 79.833 OFFCURVE",
"313.5 45.167 OFFCURVE",
"372.5 21.5 CURVE SMOOTH",
"431.5 -2 OFFCURVE",
"496 -14 OFFCURVE",
"566 -14 CURVE SMOOTH",
"602.667 -14 OFFCURVE",
"639.667 -11 OFFCURVE",
"677 -5 CURVE SMOOTH",
"714.333 1.833 OFFCURVE",
"750.5 11.333 OFFCURVE",
"785.5 24 CURVE SMOOTH",
"820.5 36.667 OFFCURVE",
"853.333 52.833 OFFCURVE",
"884 72.5 CURVE SMOOTH",
"914.667 92.167 OFFCURVE",
"941 115.333 OFFCURVE",
"963 142 CURVE",
"886 240 LINE",
"838.5 208.5 LINE",
"822.833 198.167 OFFCURVE",
"803.333 187 OFFCURVE",
"780 175 CURVE SMOOTH",
"756.667 163 OFFCURVE",
"728.833 151.833 OFFCURVE",
"696.5 141.5 CURVE SMOOTH",
"664.167 131.167 OFFCURVE",
"625.667 126 OFFCURVE",
"581 126 CURVE SMOOTH",
"533 126 OFFCURVE",
"489.667 133.833 OFFCURVE",
"451 149.5 CURVE SMOOTH",
"412.333 165.167 OFFCURVE",
"383 178 OFFCURVE",
"351 211 CURVE SMOOTH",
"333 229 OFFCURVE",
"301 271 OFFCURVE",
"285 316 CURVE SMOOTH",
"268 364 OFFCURVE",
"260 419 OFFCURVE",
"259 483 CURVE",
"980 483 LINE",
"979 553 LINE",
"979 625 OFFCURVE",
"968.333 712.167 OFFCURVE",
"947 768.5 CURVE SMOOTH",
"925.667 824.833 OFFCURVE",
"896.167 872.167 OFFCURVE",
"858.5 910.5 CURVE SMOOTH",
"820.833 948.833 OFFCURVE",
"776.167 978.167 OFFCURVE",
"724.5 998.5 CURVE SMOOTH",
"672.833 1018.83 OFFCURVE",
"616.667 1029 OFFCURVE",
"556 1029 CURVE SMOOTH"
);
},
{
closed = 1;
nodes = (
"600.667 898 OFFCURVE",
"637 891.167 OFFCURVE",
"669 877.5 CURVE SMOOTH",
"701 863.833 OFFCURVE",
"728.167 844.5 OFFCURVE",
"750.5 819.5 CURVE SMOOTH",
"772.833 794.5 OFFCURVE",
"789.833 764.833 OFFCURVE",
"801.5 730.5 CURVE SMOOTH",
"813.167 696.167 OFFCURVE",
"819 635 OFFCURVE",
"819 594 CURVE",
"265 594 LINE",
"277 682 OFFCURVE",
"307.667 773.833 OFFCURVE",
"357 823.5 CURVE SMOOTH",
"406.333 873.167 OFFCURVE",
"474 898 OFFCURVE",
"560 898 CURVE SMOOTH"
);
}
);
width = 1056;
}
);
leftKerningGroup = c;
rightKerningGroup = e;
unicode = 00E9;
},
{
glyphname = ecircumflex;
lastChange = "2014-08-24 05:53:58 -0500";
layers = (
{
layerId = "84BF924C-12BE-451A-A75C-68D6DFA13EBD";
name = Regular;
paths = (
{
closed = 1;
nodes = (
"866 1169 LINE",
"643 1433 LINE",
"477 1433 LINE",
"254 1169 LINE",
"377 1169 LINE SMOOTH",
"393 1169 OFFCURVE",
"408 1175.33 OFFCURVE",
"422 1188 CURVE",
"546 1320 LINE SMOOTH",
"551.333 1325.33 OFFCURVE",
"556.667 1331.67 OFFCURVE",
"562 1339 CURVE",
"565.333 1335.67 OFFCURVE",
"568.167 1332.33 OFFCURVE",
"570.5 1329 CURVE SMOOTH",
"572.833 1325.67 OFFCURVE",
"575.667 1322.67 OFFCURVE",
"579 1320 CURVE",
"702 1188 LINE",
"709.333 1180.67 OFFCURVE",
"716.833 1175.67 OFFCURVE",
"724.5 1173 CURVE SMOOTH",
"732.167 1170.33 OFFCURVE",
"739.667 1169 OFFCURVE",
"747 1169 CURVE SMOOTH"
);
},
{
closed = 1;
nodes = (
"482.667 1029 OFFCURVE",
"416.667 1016.17 OFFCURVE",
"358 990.5 CURVE SMOOTH",
"299.333 964.833 OFFCURVE",
"249.667 929.5 OFFCURVE",
"209 884.5 CURVE SMOOTH",
"168.333 839.5 OFFCURVE",
"137.167 786.333 OFFCURVE",
"115.5 725 CURVE SMOOTH",
"93.833 663.667 OFFCURVE",
"83 597.667 OFFCURVE",
"83 527 CURVE SMOOTH",
"83 439.667 OFFCURVE",
"95 362.333 OFFCURVE",
"119 295 CURVE SMOOTH",
"143 227.667 OFFCURVE",
"176.5 171.167 OFFCURVE",
"219.5 125.5 CURVE SMOOTH",
"262.5 79.833 OFFCURVE",
"313.5 45.167 OFFCURVE",
"372.5 21.5 CURVE SMOOTH",
"431.5 -2 OFFCURVE",
"496 -14 OFFCURVE",
"566 -14 CURVE SMOOTH",
"602.667 -14 OFFCURVE",
"639.667 -11 OFFCURVE",
"677 -5 CURVE SMOOTH",
"714.333 1.833 OFFCURVE",
"750.5 11.333 OFFCURVE",
"785.5 24 CURVE SMOOTH",
"820.5 36.667 OFFCURVE",
"853.333 52.833 OFFCURVE",
"884 72.5 CURVE SMOOTH",
"914.667 92.167 OFFCURVE",
"941 115.333 OFFCURVE",
"963 142 CURVE",
"886 240 LINE",
"838.5 208.5 LINE",
"822.833 198.167 OFFCURVE",
"803.333 187 OFFCURVE",
"780 175 CURVE SMOOTH",
"756.667 163 OFFCURVE",
"728.833 151.833 OFFCURVE",
"696.5 141.5 CURVE SMOOTH",
"664.167 131.167 OFFCURVE",
"625.667 126 OFFCURVE",
"581 126 CURVE SMOOTH",
"533 126 OFFCURVE",
"489.667 133.833 OFFCURVE",
"451 149.5 CURVE SMOOTH",
"412.333 165.167 OFFCURVE",
"383 178 OFFCURVE",
"351 211 CURVE SMOOTH",
"333 229 OFFCURVE",
"301 271 OFFCURVE",
"285 316 CURVE SMOOTH",
"268 364 OFFCURVE",
"260 419 OFFCURVE",
"259 483 CURVE",
"980 483 LINE",
"979 553 LINE",
"979 625 OFFCURVE",
"968.333 712.167 OFFCURVE",
"947 768.5 CURVE SMOOTH",
"925.667 824.833 OFFCURVE",
"896.167 872.167 OFFCURVE",
"858.5 910.5 CURVE SMOOTH",
"820.833 948.833 OFFCURVE",
"776.167 978.167 OFFCURVE",
"724.5 998.5 CURVE SMOOTH",
"672.833 1018.83 OFFCURVE",
"616.667 1029 OFFCURVE",
"556 1029 CURVE SMOOTH"
);
},
{
closed = 1;
nodes = (
"600.667 898 OFFCURVE",
"637 891.167 OFFCURVE",
"669 877.5 CURVE SMOOTH",
"701 863.833 OFFCURVE",
"728.167 844.5 OFFCURVE",
"750.5 819.5 CURVE SMOOTH",
"772.833 794.5 OFFCURVE",
"789.833 764.833 OFFCURVE",
"801.5 730.5 CURVE SMOOTH",
"813.167 696.167 OFFCURVE",
"819 635 OFFCURVE",
"819 594 CURVE",
"265 594 LINE",
"277 682 OFFCURVE",
"307.667 773.833 OFFCURVE",
"357 823.5 CURVE SMOOTH",
"406.333 873.167 OFFCURVE",
"474 898 OFFCURVE",
"560 898 CURVE SMOOTH"
);
}
);
width = 1056;
}
);
leftKerningGroup = c;
rightKerningGroup = e;
unicode = 00EA;
},
{
glyphname = edieresis;
lastChange = "2014-08-24 05:54:04 -0500";
layers = (
{
layerId = "84BF924C-12BE-451A-A75C-68D6DFA13EBD";
name = Regular;
paths = (
{
closed = 1;
nodes = (
"482 1304.33 OFFCURVE",
"479 1319 OFFCURVE",
"473 1333 CURVE SMOOTH",
"467 1347 OFFCURVE",
"458.667 1359.17 OFFCURVE",
"448 1369.5 CURVE SMOOTH",
"437.333 1379.83 OFFCURVE",
"425.167 1388 OFFCURVE",
"411.5 1394 CURVE SMOOTH",
"397.833 1400 OFFCURVE",
"383.333 1403 OFFCURVE",
"368 1403 CURVE SMOOTH",
"353.333 1403 OFFCURVE",
"339.333 1400 OFFCURVE",
"326 1394 CURVE SMOOTH",
"312.667 1388 OFFCURVE",
"300.833 1379.83 OFFCURVE",
"290.5 1369.5 CURVE SMOOTH",
"280.167 1359.17 OFFCURVE",
"272 1347 OFFCURVE",
"266 1333 CURVE SMOOTH",
"260 1319 OFFCURVE",
"257 1304.33 OFFCURVE",
"257 1289 CURVE SMOOTH",
"257 1273.67 OFFCURVE",
"260 1259.33 OFFCURVE",
"266 1246 CURVE SMOOTH",
"272 1232.67 OFFCURVE",
"280.167 1221 OFFCURVE",
"290.5 1211 CURVE SMOOTH",
"300.833 1201 OFFCURVE",
"312.667 1193 OFFCURVE",
"326 1187 CURVE SMOOTH",
"339.333 1181 OFFCURVE",
"353.333 1178 OFFCURVE",
"368 1178 CURVE SMOOTH",
"383.333 1178 OFFCURVE",
"397.833 1181 OFFCURVE",
"411.5 1187 CURVE SMOOTH",
"425.167 1193 OFFCURVE",
"437.333 1201 OFFCURVE",
"448 1211 CURVE SMOOTH",
"458.667 1221 OFFCURVE",
"467 1232.67 OFFCURVE",
"473 1246 CURVE SMOOTH",
"479 1259.33 OFFCURVE",
"482 1273.67 OFFCURVE",
"482 1289 CURVE SMOOTH"
);
},
{
closed = 1;
nodes = (
"863 1304.33 OFFCURVE",
"860 1319 OFFCURVE",
"854 1333 CURVE SMOOTH",
"848 1347 OFFCURVE",
"839.833 1359.17 OFFCURVE",
"829.5 1369.5 CURVE SMOOTH",
"819.167 1379.83 OFFCURVE",
"807.167 1388 OFFCURVE",
"793.5 1394 CURVE SMOOTH",
"779.833 1400 OFFCURVE",
"765.333 1403 OFFCURVE",
"750 1403 CURVE SMOOTH",
"734.667 1403 OFFCURVE",
"720.167 1400 OFFCURVE",
"706.5 1394 CURVE SMOOTH",
"692.833 1388 OFFCURVE",
"681 1379.83 OFFCURVE",
"671 1369.5 CURVE SMOOTH",
"661 1359.17 OFFCURVE",
"653 1347 OFFCURVE",
"647 1333 CURVE SMOOTH",
"641 1319 OFFCURVE",
"638 1304.33 OFFCURVE",
"638 1289 CURVE SMOOTH",
"638 1273.67 OFFCURVE",
"641 1259.33 OFFCURVE",
"647 1246 CURVE SMOOTH",
"653 1232.67 OFFCURVE",
"661 1221 OFFCURVE",
"671 1211 CURVE SMOOTH",
"681 1201 OFFCURVE",
"692.833 1193 OFFCURVE",
"706.5 1187 CURVE SMOOTH",
"720.167 1181 OFFCURVE",
"734.667 1178 OFFCURVE",
"750 1178 CURVE SMOOTH",
"765.333 1178 OFFCURVE",
"779.833 1181 OFFCURVE",
"793.5 1187 CURVE SMOOTH",
"807.167 1193 OFFCURVE",
"819.167 1201 OFFCURVE",
"829.5 1211 CURVE SMOOTH",
"839.833 1221 OFFCURVE",
"848 1232.67 OFFCURVE",
"854 1246 CURVE SMOOTH",
"860 1259.33 OFFCURVE",
"863 1273.67 OFFCURVE",
"863 1289 CURVE SMOOTH"
);
},
{
closed = 1;
nodes = (
"482.667 1029 OFFCURVE",
"416.667 1016.17 OFFCURVE",
"358 990.5 CURVE SMOOTH",
"299.333 964.833 OFFCURVE",
"249.667 929.5 OFFCURVE",
"209 884.5 CURVE SMOOTH",
"168.333 839.5 OFFCURVE",
"137.167 786.333 OFFCURVE",
"115.5 725 CURVE SMOOTH",
"93.833 663.667 OFFCURVE",
"83 597.667 OFFCURVE",
"83 527 CURVE SMOOTH",
"83 439.667 OFFCURVE",
"95 362.333 OFFCURVE",
"119 295 CURVE SMOOTH",
"143 227.667 OFFCURVE",
"176.5 171.167 OFFCURVE",
"219.5 125.5 CURVE SMOOTH",
"262.5 79.833 OFFCURVE",
"313.5 45.167 OFFCURVE",
"372.5 21.5 CURVE SMOOTH",
"431.5 -2 OFFCURVE",
"496 -14 OFFCURVE",
"566 -14 CURVE SMOOTH",
"602.667 -14 OFFCURVE",
"639.667 -11 OFFCURVE",
"677 -5 CURVE SMOOTH",
"714.333 1.833 OFFCURVE",
"750.5 11.333 OFFCURVE",
"785.5 24 CURVE SMOOTH",
"820.5 36.667 OFFCURVE",
"853.333 52.833 OFFCURVE",
"884 72.5 CURVE SMOOTH",
"914.667 92.167 OFFCURVE",
"941 115.333 OFFCURVE",
"963 142 CURVE",
"886 240 LINE",
"838.5 208.5 LINE",
"822.833 198.167 OFFCURVE",
"803.333 187 OFFCURVE",
"780 175 CURVE SMOOTH",
"756.667 163 OFFCURVE",
"728.833 151.833 OFFCURVE",
"696.5 141.5 CURVE SMOOTH",
"664.167 131.167 OFFCURVE",
"625.667 126 OFFCURVE",
"581 126 CURVE SMOOTH",
"533 126 OFFCURVE",
"489.667 133.833 OFFCURVE",
"451 149.5 CURVE SMOOTH",
"412.333 165.167 OFFCURVE",
"383 178 OFFCURVE",
"351 211 CURVE SMOOTH",
"333 229 OFFCURVE",
"301 271 OFFCURVE",
"285 316 CURVE SMOOTH",
"268 364 OFFCURVE",
"260 419 OFFCURVE",
"259 483 CURVE",
"980 483 LINE",
"979 553 LINE",
"979 625 OFFCURVE",
"968.333 712.167 OFFCURVE",
"947 768.5 CURVE SMOOTH",
"925.667 824.833 OFFCURVE",
"896.167 872.167 OFFCURVE",
"858.5 910.5 CURVE SMOOTH",
"820.833 948.833 OFFCURVE",
"776.167 978.167 OFFCURVE",
"724.5 998.5 CURVE SMOOTH",
"672.833 1018.83 OFFCURVE",
"616.667 1029 OFFCURVE",
"556 1029 CURVE SMOOTH"
);
},
{
closed = 1;
nodes = (
"600.667 898 OFFCURVE",
"637 891.167 OFFCURVE",
"669 877.5 CURVE SMOOTH",
"701 863.833 OFFCURVE",
"728.167 844.5 OFFCURVE",
"750.5 819.5 CURVE SMOOTH",
"772.833 794.5 OFFCURVE",
"789.833 764.833 OFFCURVE",
"801.5 730.5 CURVE SMOOTH",
"813.167 696.167 OFFCURVE",
"819 635 OFFCURVE",
"819 594 CURVE",
"265 594 LINE",
"277 682 OFFCURVE",
"307.667 773.833 OFFCURVE",
"357 823.5 CURVE SMOOTH",
"406.333 873.167 OFFCURVE",
"474 898 OFFCURVE",
"560 898 CURVE SMOOTH"
);
}
);
width = 1056;
}
);
leftKerningGroup = c;
rightKerningGroup = e;
unicode = 00EB;
},
{
glyphname = egrave;
lastChange = "2014-08-24 05:54:09 -0500";
layers = (
{
layerId = "84BF924C-12BE-451A-A75C-68D6DFA13EBD";
name = Regular;
paths = (
{
closed = 1;
nodes = (
"291 1449 LINE",
"525 1191 LINE SMOOTH",
"534.333 1181 OFFCURVE",
"543.333 1173.83 OFFCURVE",
"552 1169.5 CURVE SMOOTH",
"560.667 1165.17 OFFCURVE",
"572 1163 OFFCURVE",
"586 1163 CURVE SMOOTH",
"688 1163 LINE",
"539 1405 LINE SMOOTH",
"529.667 1420.33 OFFCURVE",
"519.667 1431.5 OFFCURVE",
"509 1438.5 CURVE SMOOTH",
"498.333 1445.5 OFFCURVE",
"482 1449 OFFCURVE",
"460 1449 CURVE SMOOTH"
);
},
{
closed = 1;
nodes = (
"482.667 1029 OFFCURVE",
"416.667 1016.17 OFFCURVE",
"358 990.5 CURVE SMOOTH",
"299.333 964.833 OFFCURVE",
"249.667 929.5 OFFCURVE",
"209 884.5 CURVE SMOOTH",
"168.333 839.5 OFFCURVE",
"137.167 786.333 OFFCURVE",
"115.5 725 CURVE SMOOTH",
"93.833 663.667 OFFCURVE",
"83 597.667 OFFCURVE",
"83 527 CURVE SMOOTH",
"83 439.667 OFFCURVE",
"95 362.333 OFFCURVE",
"119 295 CURVE SMOOTH",
"143 227.667 OFFCURVE",
"176.5 171.167 OFFCURVE",
"219.5 125.5 CURVE SMOOTH",
"262.5 79.833 OFFCURVE",
"313.5 45.167 OFFCURVE",
"372.5 21.5 CURVE SMOOTH",
"431.5 -2 OFFCURVE",
"496 -14 OFFCURVE",
"566 -14 CURVE SMOOTH",
"602.667 -14 OFFCURVE",
"639.667 -11 OFFCURVE",
"677 -5 CURVE SMOOTH",
"714.333 1.833 OFFCURVE",
"750.5 11.333 OFFCURVE",
"785.5 24 CURVE SMOOTH",
"820.5 36.667 OFFCURVE",
"853.333 52.833 OFFCURVE",
"884 72.5 CURVE SMOOTH",
"914.667 92.167 OFFCURVE",
"941 115.333 OFFCURVE",
"963 142 CURVE",
"886 240 LINE",
"838.5 208.5 LINE",
"822.833 198.167 OFFCURVE",
"803.333 187 OFFCURVE",
"780 175 CURVE SMOOTH",
"756.667 163 OFFCURVE",
"728.833 151.833 OFFCURVE",
"696.5 141.5 CURVE SMOOTH",
"664.167 131.167 OFFCURVE",
"625.667 126 OFFCURVE",
"581 126 CURVE SMOOTH",
"533 126 OFFCURVE",
"489.667 133.833 OFFCURVE",
"451 149.5 CURVE SMOOTH",
"412.333 165.167 OFFCURVE",
"383 178 OFFCURVE",
"351 211 CURVE SMOOTH",
"333 229 OFFCURVE",
"301 271 OFFCURVE",
"285 316 CURVE SMOOTH",
"268 364 OFFCURVE",
"260 419 OFFCURVE",
"259 483 CURVE",
"980 483 LINE",
"979 553 LINE",
"979 625 OFFCURVE",
"968.333 712.167 OFFCURVE",
"947 768.5 CURVE SMOOTH",
"925.667 824.833 OFFCURVE",
"896.167 872.167 OFFCURVE",
"858.5 910.5 CURVE SMOOTH",
"820.833 948.833 OFFCURVE",
"776.167 978.167 OFFCURVE",
"724.5 998.5 CURVE SMOOTH",
"672.833 1018.83 OFFCURVE",
"616.667 1029 OFFCURVE",
"556 1029 CURVE SMOOTH"
);
},
{
closed = 1;
nodes = (
"600.667 898 OFFCURVE",
"637 891.167 OFFCURVE",
"669 877.5 CURVE SMOOTH",
"701 863.833 OFFCURVE",
"728.167 844.5 OFFCURVE",
"750.5 819.5 CURVE SMOOTH",
"772.833 794.5 OFFCURVE",
"789.833 764.833 OFFCURVE",
"801.5 730.5 CURVE SMOOTH",
"813.167 696.167 OFFCURVE",
"819 635 OFFCURVE",
"819 594 CURVE",
"265 594 LINE",
"277 682 OFFCURVE",
"307.667 773.833 OFFCURVE",
"357 823.5 CURVE SMOOTH",
"406.333 873.167 OFFCURVE",
"474 898 OFFCURVE",
"560 898 CURVE SMOOTH"
);
}
);
width = 1056;
}
);
leftKerningGroup = c;
rightKerningGroup = e;
unicode = 00E8;
},
{
glyphname = f;
lastChange = "2014-08-24 05:54:58 -0500";
layers = (
{
layerId = "84BF924C-12BE-451A-A75C-68D6DFA13EBD";
name = Regular;
paths = (
{
closed = 1;
nodes = (
"207 0 LINE",
"386 0 LINE",
"386 864 LINE",
"672 864 LINE",
"672 993 LINE",
"380 993 LINE",
"380 1086 LINE SMOOTH",
"380 1129.33 OFFCURVE",
"384.833 1165.67 OFFCURVE",
"394.5 1195 CURVE SMOOTH",
"404.167 1224.33 OFFCURVE",
"418 1248 OFFCURVE",
"436 1266 CURVE SMOOTH",
"454 1284 OFFCURVE",
"475.5 1297 OFFCURVE",
"500.5 1305 CURVE SMOOTH",
"525.5 1313 OFFCURVE",
"553.333 1317 OFFCURVE",
"584 1317 CURVE",
"682 1309 LINE",
"697 1431 LINE",
"659 1444 OFFCURVE",
"600.333 1454 OFFCURVE",
"555 1454 CURVE SMOOTH",
"501.667 1454 OFFCURVE",
"453.667 1446 OFFCURVE",
"411 1430 CURVE SMOOTH",
"368.333 1414 OFFCURVE",
"331.833 1390.5 OFFCURVE",
"301.5 1359.5 CURVE SMOOTH",
"271.167 1328.5 OFFCURVE",
"247.833 1290.5 OFFCURVE",
"231.5 1245.5 CURVE SMOOTH",
"215.167 1200.5 OFFCURVE",
"207 1149 OFFCURVE",
"207 1091 CURVE SMOOTH",
"207 993 LINE",
"47 993 LINE",
"47 861 LINE",
"207 861 LINE"
);
}
);
width = 701;
}
);
leftKerningGroup = f;
rightKerningGroup = f;
unicode = 0066;
},
{
glyphname = g;
lastChange = "2014-08-21 05:27:56 -0500";
layers = (
{
layerId = "84BF924C-12BE-451A-A75C-68D6DFA13EBD";
name = Regular;
paths = (
{
closed = 1;
nodes = (
"980 1013 LINE",
"816 1013 LINE",
"814 896 LINE",
"778.667 938.667 OFFCURVE",
"738 971.667 OFFCURVE",
"692 995 CURVE SMOOTH",
"646 1018.33 OFFCURVE",
"590 1030 OFFCURVE",
"524 1030 CURVE SMOOTH",
"456 1030 OFFCURVE",
"394.833 1016.83 OFFCURVE",
"340.5 990.5 CURVE SMOOTH",
"286.167 964.167 OFFCURVE",
"240.167 928.167 OFFCURVE",
"202.5 882.5 CURVE SMOOTH",
"164.833 836.833 OFFCURVE",
"136 782.833 OFFCURVE",
"116 720.5 CURVE SMOOTH",
"96 658.167 OFFCURVE",
"86 591 OFFCURVE",
"86 519 CURVE SMOOTH",
"86 437.667 OFFCURVE",
"95.1667 365.333 OFFCURVE",
"113.5 302 CURVE SMOOTH",
"131.833 238.667 OFFCURVE",
"158 185.5 OFFCURVE",
"192 142.5 CURVE SMOOTH",
"226 99.5 OFFCURVE",
"267.5 66.8333 OFFCURVE",
"316.5 44.5 CURVE SMOOTH",
"365.5 22.1667 OFFCURVE",
"420.667 11 OFFCURVE",
"482 11 CURVE SMOOTH",
"516.667 11 OFFCURVE",
"548.833 14.1667 OFFCURVE",
"578.5 20.5 CURVE SMOOTH",
"608.167 26.8333 OFFCURVE",
"635.667 36.5 OFFCURVE",
"661 49.5 CURVE SMOOTH",
"686.333 62.5 OFFCURVE",
"710.5 78.6667 OFFCURVE",
"733.5 98 CURVE SMOOTH",
"756.5 117.333 OFFCURVE",
"779 139.667 OFFCURVE",
"801 165 CURVE",
"801 48 LINE SMOOTH",
"801 8 OFFCURVE",
"794.833 -29 OFFCURVE",
"782.5 -63 CURVE SMOOTH",
"770.167 -97 OFFCURVE",
"751.667 -127 OFFCURVE",
"727 -152 CURVE SMOOTH",
"702.333 -177 OFFCURVE",
"671.5 -196 OFFCURVE",
"634.5 -210 CURVE SMOOTH",
"597.5 -224 OFFCURVE",
"523 -231 OFFCURVE",
"474 -231 CURVE SMOOTH",
"431 -231 OFFCURVE",
"396 -226 OFFCURVE",
"367 -217 CURVE SMOOTH",
"338 -208 OFFCURVE",
"313 -197 OFFCURVE",
"293 -186 CURVE SMOOTH",
"273 -175 OFFCURVE",
"256 -164 OFFCURVE",
"242 -156 CURVE SMOOTH",
"228 -148 OFFCURVE",
"217 -141 OFFCURVE",
"205 -134 CURVE",
"185 -122 LINE",
"114 -235 LINE",
"154 -271 OFFCURVE",
"204 -301 OFFCURVE",
"264 -326 CURVE SMOOTH",
"323 -350 OFFCURVE",
"395 -362 OFFCURVE",
"478 -362 CURVE SMOOTH",
"553 -362 OFFCURVE",
"651.167 -352 OFFCURVE",
"709.5 -331 CURVE SMOOTH",
"767.833 -310 OFFCURVE",
"817 -281 OFFCURVE",
"857 -244 CURVE SMOOTH",
"897 -207 OFFCURVE",
"927.5 -163 OFFCURVE",
"948.5 -112 CURVE SMOOTH",
"969.5 -61 OFFCURVE",
"980 -5 OFFCURVE",
"980 56 CURVE SMOOTH"
);
},
{
closed = 1;
nodes = (
"487.333 155 OFFCURVE",
"451 162 OFFCURVE",
"419 176 CURVE SMOOTH",
"387 190 OFFCURVE",
"360 211.833 OFFCURVE",
"338 241.5 CURVE SMOOTH",
"316 271.167 OFFCURVE",
"299.167 309 OFFCURVE",
"287.5 355 CURVE SMOOTH",
"275.833 401 OFFCURVE",
"270 455.667 OFFCURVE",
"270 519 CURVE SMOOTH",
"270 638.333 OFFCURVE",
"295.333 730.333 OFFCURVE",
"346 795 CURVE SMOOTH",
"396.667 859.667 OFFCURVE",
"469.333 892 OFFCURVE",
"564 892 CURVE SMOOTH",
"612 892 OFFCURVE",
"655.5 882.833 OFFCURVE",
"694.5 864.5 CURVE SMOOTH",
"733.5 846.167 OFFCURVE",
"769 815.667 OFFCURVE",
"801 773 CURVE",
"801 309 LINE",
"764.333 259.667 OFFCURVE",
"724.167 221.667 OFFCURVE",
"680.5 195 CURVE SMOOTH",
"636.833 168.333 OFFCURVE",
"586 155 OFFCURVE",
"528 155 CURVE SMOOTH"
);
}
);
width = 1120;
}
);
leftKerningGroup = g.salt;
rightKerningGroup = g.salt;
unicode = 0067;
},
{
glyphname = h;
lastChange = "2014-08-24 05:55:32 -0500";
layers = (
{
layerId = "84BF924C-12BE-451A-A75C-68D6DFA13EBD";
name = Regular;
paths = (
{
closed = 1;
nodes = (
"141 0 LINE",
"320 0 LINE",
"320 746 LINE",
"358 789.333 OFFCURVE",
"399.833 823.667 OFFCURVE",
"445.5 849 CURVE SMOOTH",
"491.167 874.333 OFFCURVE",
"540.667 887 OFFCURVE",
"594 887 CURVE SMOOTH",
"665.333 887 OFFCURVE",
"718.5 865.833 OFFCURVE",
"753.5 823.5 CURVE SMOOTH",
"788.5 781.167 OFFCURVE",
"806 721.667 OFFCURVE",
"806 645 CURVE SMOOTH",
"806 0 LINE",
"985 0 LINE",
"985 645 LINE SMOOTH",
"985 702.333 OFFCURVE",
"977.667 754.667 OFFCURVE",
"963 802 CURVE SMOOTH",
"948.333 849.333 OFFCURVE",
"926.833 889.833 OFFCURVE",
"898.5 923.5 CURVE SMOOTH",
"870.167 957.167 OFFCURVE",
"834.833 983.167 OFFCURVE",
"792.5 1001.5 CURVE SMOOTH",
"750.167 1019.83 OFFCURVE",
"701.333 1029 OFFCURVE",
"646 1029 CURVE SMOOTH",
"577.333 1029 OFFCURVE",
"516.667 1015.17 OFFCURVE",
"464 987.5 CURVE SMOOTH",
"411.333 959.833 OFFCURVE",
"363.333 923 OFFCURVE",
"320 877 CURVE",
"320 1473 LINE",
"141 1473 LINE"
);
}
);
width = 1116;
}
);
leftKerningGroup = b;
rightKerningGroup = h;
unicode = 0068;
},
{
glyphname = i;
layers = (
{
layerId = "84BF924C-12BE-451A-A75C-68D6DFA13EBD";
name = Regular;
paths = (
{
closed = 1;
nodes = (
"329 1013 LINE",
"151 1013 LINE",
"151 0 LINE",
"329 0 LINE"
);
},
{
closed = 1;
nodes = (
"367 1348.33 OFFCURVE",
"363.5 1364.83 OFFCURVE",
"356.5 1380.5 CURVE SMOOTH",
"349.5 1396.17 OFFCURVE",
"340.167 1409.83 OFFCURVE",
"328.5 1421.5 CURVE SMOOTH",
"316.833 1433.17 OFFCURVE",
"303.167 1442.33 OFFCURVE",
"287.5 1449 CURVE SMOOTH",
"271.833 1455.67 OFFCURVE",
"255.333 1459 OFFCURVE",
"238 1459 CURVE SMOOTH",
"220.667 1459 OFFCURVE",
"204.5 1455.67 OFFCURVE",
"189.5 1449 CURVE SMOOTH",
"174.5 1442.33 OFFCURVE",
"161.333 1433.17 OFFCURVE",
"150 1421.5 CURVE SMOOTH",
"138.667 1409.83 OFFCURVE",
"129.667 1396.17 OFFCURVE",
"123 1380.5 CURVE SMOOTH",
"116.333 1364.83 OFFCURVE",
"113 1348.33 OFFCURVE",
"113 1331 CURVE SMOOTH",
"113 1313.67 OFFCURVE",
"116.333 1297.5 OFFCURVE",
"123 1282.5 CURVE SMOOTH",
"129.667 1267.5 OFFCURVE",
"138.667 1254.17 OFFCURVE",
"150 1242.5 CURVE SMOOTH",
"161.333 1230.83 OFFCURVE",
"174.5 1221.67 OFFCURVE",
"189.5 1215 CURVE SMOOTH",
"204.5 1208.33 OFFCURVE",
"220.667 1205 OFFCURVE",
"238 1205 CURVE SMOOTH",
"255.333 1205 OFFCURVE",
"271.833 1208.33 OFFCURVE",
"287.5 1215 CURVE SMOOTH",
"303.167 1221.67 OFFCURVE",
"316.833 1230.83 OFFCURVE",
"328.5 1242.5 CURVE SMOOTH",
"340.167 1254.17 OFFCURVE",
"349.5 1267.5 OFFCURVE",
"356.5 1282.5 CURVE SMOOTH",
"363.5 1297.5 OFFCURVE",
"367 1313.67 OFFCURVE",
"367 1331 CURVE SMOOTH"
);
}
);
width = 480;
}
);
leftKerningGroup = i;
rightKerningGroup = i;
unicode = 0069;
},
{
glyphname = iacute;
layers = (
{
layerId = "84BF924C-12BE-451A-A75C-68D6DFA13EBD";
name = Regular;
paths = (
{
closed = 1;
nodes = (
"135 0 LINE"
);
},
{
closed = 1;
nodes = (
"330 1013 LINE",
"151 1013 LINE",
"151 0 LINE",
"330 0 LINE"
);
},
{
closed = 1;
nodes = (
"536 1449 LINE",
"362 1449 LINE SMOOTH",
"340.667 1449 OFFCURVE",
"324.5 1445.5 OFFCURVE",
"313.5 1438.5 CURVE SMOOTH",
"302.5 1431.5 OFFCURVE",
"292.333 1420.33 OFFCURVE",
"283 1405 CURVE SMOOTH",
"135 1163 LINE",
"241 1163 LINE SMOOTH",
"255 1163 OFFCURVE",
"266.5 1165.17 OFFCURVE",
"275.5 1169.5 CURVE SMOOTH",
"284.5 1173.83 OFFCURVE",
"293.667 1181 OFFCURVE",
"303 1191 CURVE SMOOTH"
);
}
);
width = 480;
}
);
leftKerningGroup = i;
rightKerningGroup = i;
unicode = 00ED;
},
{
glyphname = icircumflex;
layers = (
{
layerId = "84BF924C-12BE-451A-A75C-68D6DFA13EBD";
name = Regular;
paths = (
{
closed = 1;
nodes = (
"0 0 LINE"
);
},
{
closed = 1;
nodes = (
"329 1013 LINE",
"150 1013 LINE",
"150 0 LINE",
"329 0 LINE"
);
},
{
closed = 1;
nodes = (
"551 1169 LINE",
"328 1433 LINE",
"162 1433 LINE",
"-61 1169 LINE",
"62 1169 LINE SMOOTH",
"78 1169 OFFCURVE",
"93 1175.33 OFFCURVE",
"107 1188 CURVE",
"231 1320 LINE SMOOTH",
"236.333 1325.33 OFFCURVE",
"241.667 1331.67 OFFCURVE",
"247 1339 CURVE",
"250.333 1335.67 OFFCURVE",
"253.167 1332.33 OFFCURVE",
"255.5 1329 CURVE SMOOTH",
"257.833 1325.67 OFFCURVE",
"260.667 1322.67 OFFCURVE",
"264 1320 CURVE",
"387 1188 LINE",
"394.333 1180.67 OFFCURVE",
"401.833 1175.67 OFFCURVE",
"409.5 1173 CURVE SMOOTH",
"417.167 1170.33 OFFCURVE",
"424.667 1169 OFFCURVE",
"432 1169 CURVE SMOOTH"
);
}
);
width = 480;
}
);
leftKerningGroup = i;
rightKerningGroup = i;
unicode = 00EE;
},
{
glyphname = idieresis;
layers = (
{
layerId = "84BF924C-12BE-451A-A75C-68D6DFA13EBD";
name = Regular;
paths = (
{
closed = 1;
nodes = (
"0 0 LINE"
);
},
{
closed = 1;
nodes = (
"329 1013 LINE",
"150 1013 LINE",
"150 0 LINE",
"329 0 LINE"
);
},
{
closed = 1;
nodes = (
"202 1304.33 OFFCURVE",
"199 1319 OFFCURVE",
"193 1333 CURVE SMOOTH",
"187 1347 OFFCURVE",
"178.667 1359.17 OFFCURVE",
"168 1369.5 CURVE SMOOTH",
"157.333 1379.83 OFFCURVE",
"145.167 1388 OFFCURVE",
"131.5 1394 CURVE SMOOTH",
"117.833 1400 OFFCURVE",
"103.333 1403 OFFCURVE",
"88 1403 CURVE SMOOTH",
"72.6667 1403 OFFCURVE",
"58.3333 1400 OFFCURVE",
"45 1394 CURVE SMOOTH",
"31.6667 1388 OFFCURVE",
"19.8333 1379.83 OFFCURVE",
"9.5 1369.5 CURVE SMOOTH",
"-1 1359.17 OFFCURVE",
"-9 1347 OFFCURVE",
"-15 1333 CURVE SMOOTH",
"-21 1319 OFFCURVE",
"-24 1304.33 OFFCURVE",
"-24 1289 CURVE SMOOTH",
"-24 1273.67 OFFCURVE",
"-21 1259.33 OFFCURVE",
"-15 1246 CURVE SMOOTH",
"-9 1232.67 OFFCURVE",
"-1 1221 OFFCURVE",
"9.5 1211 CURVE SMOOTH",
"19.8333 1201 OFFCURVE",
"31.6667 1193 OFFCURVE",
"45 1187 CURVE SMOOTH",
"58.3333 1181 OFFCURVE",
"72.6667 1178 OFFCURVE",
"88 1178 CURVE SMOOTH",
"103.333 1178 OFFCURVE",
"117.833 1181 OFFCURVE",
"131.5 1187 CURVE SMOOTH",
"145.167 1193 OFFCURVE",
"157.333 1201 OFFCURVE",
"168 1211 CURVE SMOOTH",
"178.667 1221 OFFCURVE",
"187 1232.67 OFFCURVE",
"193 1246 CURVE SMOOTH",
"199 1259.33 OFFCURVE",
"202 1273.67 OFFCURVE",
"202 1289 CURVE SMOOTH"
);
},
{
closed = 1;
nodes = (
"514 1304.33 OFFCURVE",
"511 1319 OFFCURVE",
"505 1333 CURVE SMOOTH",
"499 1347 OFFCURVE",
"490.833 1359.17 OFFCURVE",
"480.5 1369.5 CURVE SMOOTH",
"470.167 1379.83 OFFCURVE",
"458 1388 OFFCURVE",
"444 1394 CURVE SMOOTH",
"430 1400 OFFCURVE",
"415.333 1403 OFFCURVE",
"400 1403 CURVE SMOOTH",
"384.667 1403 OFFCURVE",
"370.167 1400 OFFCURVE",
"356.5 1394 CURVE SMOOTH",
"342.833 1388 OFFCURVE",
"331 1379.83 OFFCURVE",
"321 1369.5 CURVE SMOOTH",
"311 1359.17 OFFCURVE",
"303 1347 OFFCURVE",
"297 1333 CURVE SMOOTH",
"291 1319 OFFCURVE",
"288 1304.33 OFFCURVE",
"288 1289 CURVE SMOOTH",
"288 1273.67 OFFCURVE",
"291 1259.33 OFFCURVE",
"297 1246 CURVE SMOOTH",
"303 1232.67 OFFCURVE",
"311 1221 OFFCURVE",
"321 1211 CURVE SMOOTH",
"331 1201 OFFCURVE",
"342.833 1193 OFFCURVE",
"356.5 1187 CURVE SMOOTH",
"370.167 1181 OFFCURVE",
"384.667 1178 OFFCURVE",
"400 1178 CURVE SMOOTH",
"415.333 1178 OFFCURVE",
"430 1181 OFFCURVE",
"444 1187 CURVE SMOOTH",
"458 1193 OFFCURVE",
"470.167 1201 OFFCURVE",
"480.5 1211 CURVE SMOOTH",
"490.833 1221 OFFCURVE",
"499 1232.67 OFFCURVE",
"505 1246 CURVE SMOOTH",
"511 1259.33 OFFCURVE",
"514 1273.67 OFFCURVE",
"514 1289 CURVE SMOOTH"
);
}
);
width = 480;
}
);
leftKerningGroup = i;
rightKerningGroup = i;
unicode = 00EF;
},
{
glyphname = igrave;
layers = (
{
layerId = "84BF924C-12BE-451A-A75C-68D6DFA13EBD";
name = Regular;
paths = (
{
closed = 1;
nodes = (
"0 0 LINE"
);
},
{
closed = 1;
nodes = (
"329 1013 LINE",
"150 1013 LINE",
"150 0 LINE",
"329 0 LINE"
);
},
{
closed = 1;
nodes = (
"-24 1449 LINE",
"210 1191 LINE SMOOTH",
"219.333 1181 OFFCURVE",
"228.333 1173.83 OFFCURVE",
"237 1169.5 CURVE SMOOTH",
"245.667 1165.17 OFFCURVE",
"257 1163 OFFCURVE",
"271 1163 CURVE SMOOTH",
"373 1163 LINE",
"224 1405 LINE SMOOTH",
"214.667 1420.33 OFFCURVE",
"204.667 1431.5 OFFCURVE",
"194 1438.5 CURVE SMOOTH",
"183.333 1445.5 OFFCURVE",
"167 1449 OFFCURVE",
"145 1449 CURVE SMOOTH"
);
}
);
width = 480;
}
);
leftKerningGroup = i;
rightKerningGroup = i;
unicode = 00EC;
},
{
glyphname = j;
lastChange = "2014-08-24 05:56:41 -0500";
layers = (
{
layerId = "84BF924C-12BE-451A-A75C-68D6DFA13EBD";
name = Regular;
paths = (
{
closed = 1;
nodes = (
"329 1013 LINE",
"151 1013 LINE",
"151 -75 LINE SMOOTH",
"151 -129 OFFCURVE",
"140 -168 OFFCURVE",
"118 -193 CURVE SMOOTH",
"96 -217 OFFCURVE",
"66 -234 OFFCURVE",
"14 -234 CURVE SMOOTH",
"1 -234 OFFCURVE",
"-16 -231 OFFCURVE",
"-25 -229 CURVE SMOOTH",
"-36 -227 OFFCURVE",
"-48 -224 OFFCURVE",
"-72 -209 CURVE",
"-103 -327 LINE",
"-78 -343 OFFCURVE",
"-35 -356 OFFCURVE",
"-17 -359 CURVE SMOOTH",
"1 -362 OFFCURVE",
"20.6667 -364 OFFCURVE",
"42 -364 CURVE SMOOTH",
"92.6667 -364 OFFCURVE",
"136.167 -357 OFFCURVE",
"172.5 -342 CURVE SMOOTH",
"208.833 -327 OFFCURVE",
"238.667 -306 OFFCURVE",
"262 -280 CURVE SMOOTH",
"285.333 -254 OFFCURVE",
"302.333 -224 OFFCURVE",
"313 -189 CURVE SMOOTH",
"323.667 -154 OFFCURVE",
"329 -116 OFFCURVE",
"329 -75 CURVE SMOOTH"
);
},
{
closed = 1;
nodes = (
"366 1348.33 OFFCURVE",
"362.5 1364.83 OFFCURVE",
"355.5 1380.5 CURVE SMOOTH",
"348.5 1396.17 OFFCURVE",
"339.167 1409.83 OFFCURVE",
"327.5 1421.5 CURVE SMOOTH",
"315.833 1433.17 OFFCURVE",
"302.333 1442.33 OFFCURVE",
"287 1449 CURVE SMOOTH",
"271.667 1455.67 OFFCURVE",
"255.333 1459 OFFCURVE",
"238 1459 CURVE SMOOTH",
"220.667 1459 OFFCURVE",
"204.5 1455.67 OFFCURVE",
"189.5 1449 CURVE SMOOTH",
"174.5 1442.33 OFFCURVE",
"161.333 1433.17 OFFCURVE",
"150 1421.5 CURVE SMOOTH",
"138.667 1409.83 OFFCURVE",
"129.667 1396.17 OFFCURVE",
"123 1380.5 CURVE SMOOTH",
"116.333 1364.83 OFFCURVE",
"113 1348.33 OFFCURVE",
"113 1331 CURVE SMOOTH",
"113 1313.67 OFFCURVE",
"116.333 1297.5 OFFCURVE",
"123 1282.5 CURVE SMOOTH",
"129.667 1267.5 OFFCURVE",
"138.667 1254.17 OFFCURVE",
"150 1242.5 CURVE SMOOTH",
"161.333 1230.83 OFFCURVE",
"174.5 1221.67 OFFCURVE",
"189.5 1215 CURVE SMOOTH",
"204.5 1208.33 OFFCURVE",
"220.667 1205 OFFCURVE",
"238 1205 CURVE SMOOTH",
"255.333 1205 OFFCURVE",
"271.667 1208.33 OFFCURVE",
"287 1215 CURVE SMOOTH",
"302.333 1221.67 OFFCURVE",
"315.833 1230.83 OFFCURVE",
"327.5 1242.5 CURVE SMOOTH",
"339.167 1254.17 OFFCURVE",
"348.5 1267.5 OFFCURVE",
"355.5 1282.5 CURVE SMOOTH",
"362.5 1297.5 OFFCURVE",
"366 1313.67 OFFCURVE",
"366 1331 CURVE SMOOTH"
);
}
);
width = 480;
}
);
leftKerningGroup = i;
rightKerningGroup = i;
unicode = 006A;
},
{
glyphname = k;
lastChange = "2014-08-24 05:59:06 -0500";
layers = (
{
layerId = "84BF924C-12BE-451A-A75C-68D6DFA13EBD";
name = Regular;
paths = (
{
closed = 1;
nodes = (
"320 1473 LINE",
"141 1473 LINE",
"141 0 LINE",
"320 0 LINE",
"320 308 LINE",
"449 448 LINE",
"807 0 LINE",
"1005 0 LINE",
"558 563 LINE",
"980 1013 LINE",
"782 1013 LINE",
"320 518 LINE"
);
}
);
width = 1016;
}
);
leftKerningGroup = b;
rightKerningGroup = k;
unicode = 006B;
},
{
glyphname = l;
layers = (
{
layerId = "84BF924C-12BE-451A-A75C-68D6DFA13EBD";
name = Regular;
paths = (
{
closed = 1;
nodes = (
"325 1473 LINE",
"147 1473 LINE",
"147 0 LINE",
"325 0 LINE"
);
}
);
width = 472;
}
);
leftKerningGroup = l;
rightKerningGroup = l;
unicode = 006C;
},
{
glyphname = m;
lastChange = "2014-08-24 06:00:01 -0500";
layers = (
{
layerId = "84BF924C-12BE-451A-A75C-68D6DFA13EBD";
name = Regular;
paths = (
{
closed = 1;
nodes = (
"141 0 LINE",
"320 0 LINE",
"320 755 LINE",
"351.333 795.667 OFFCURVE",
"385.667 827.833 OFFCURVE",
"423 851.5 CURVE SMOOTH",
"460.333 875.167 OFFCURVE",
"501 887 OFFCURVE",
"545 887 CURVE SMOOTH",
"607.667 887 OFFCURVE",
"655.333 867 OFFCURVE",
"688 827 CURVE SMOOTH",
"720.667 787 OFFCURVE",
"737 726.333 OFFCURVE",
"737 645 CURVE SMOOTH",
"737 1 LINE",
"916 1 LINE",
"916 645 LINE SMOOTH",
"916 685 OFFCURVE",
"921.833 720.167 OFFCURVE",
"933.5 750.5 CURVE SMOOTH",
"945.167 780.833 OFFCURVE",
"961 806 OFFCURVE",
"981 826 CURVE SMOOTH",
"1001 846 OFFCURVE",
"1024.17 861.167 OFFCURVE",
"1050.5 871.5 CURVE SMOOTH",
"1076.83 881.833 OFFCURVE",
"1104.67 887 OFFCURVE",
"1134 887 CURVE SMOOTH",
"1199.33 887 OFFCURVE",
"1249.33 866.5 OFFCURVE",
"1284 825.5 CURVE SMOOTH",
"1318.67 784.5 OFFCURVE",
"1336 724.333 OFFCURVE",
"1336 645 CURVE SMOOTH",
"1336 1 LINE",
"1515 1 LINE",
"1515 645 LINE SMOOTH",
"1515 706.333 OFFCURVE",
"1507.33 760.833 OFFCURVE",
"1492 808.5 CURVE SMOOTH",
"1476.67 856.167 OFFCURVE",
"1454.5 896.333 OFFCURVE",
"1425.5 929 CURVE SMOOTH",
"1396.5 961.667 OFFCURVE",
"1361.17 986.5 OFFCURVE",
"1319.5 1003.5 CURVE SMOOTH",
"1277.83 1020.5 OFFCURVE",
"1230.33 1029 OFFCURVE",
"1177 1029 CURVE SMOOTH",
"1143.67 1029 OFFCURVE",
"1110.83 1025 OFFCURVE",
"1078.5 1017 CURVE SMOOTH",
"1046.17 1009 OFFCURVE",
"1015.67 996.333 OFFCURVE",
"987 979 CURVE SMOOTH",
"958.333 961.667 OFFCURVE",
"932.5 939.667 OFFCURVE",
"909.5 913 CURVE SMOOTH",
"886.5 886.333 OFFCURVE",
"867.667 854.667 OFFCURVE",
"853 818 CURVE",
"834.333 882.667 OFFCURVE",
"803.833 934 OFFCURVE",
"761.5 972 CURVE SMOOTH",
"719.167 1010 OFFCURVE",
"664 1029 OFFCURVE",
"596 1029 CURVE SMOOTH",
"534.667 1029 OFFCURVE",
"480.667 1014.33 OFFCURVE",
"434 985 CURVE SMOOTH",
"387.333 955.667 OFFCURVE",
"357 918 OFFCURVE",
"320 872 CURVE",
"320 1013 LINE",
"141 1013 LINE"
);
}
);
width = 1645;
}
);
leftKerningGroup = m;
rightKerningGroup = h;
unicode = 006D;
},
{
glyphname = n;
lastChange = "2014-08-24 06:00:42 -0500";
layers = (
{
layerId = "84BF924C-12BE-451A-A75C-68D6DFA13EBD";
name = Regular;
paths = (
{
closed = 1;
nodes = (
"141 0 LINE",
"320 0 LINE",
"320 746 LINE",
"358 789.333 OFFCURVE",
"399.833 823.667 OFFCURVE",
"445.5 849 CURVE SMOOTH",
"491.167 874.333 OFFCURVE",
"540.667 887 OFFCURVE",
"594 887 CURVE SMOOTH",
"665.333 887 OFFCURVE",
"718.5 865.833 OFFCURVE",
"753.5 823.5 CURVE SMOOTH",
"788.5 781.167 OFFCURVE",
"806 721.667 OFFCURVE",
"806 645 CURVE SMOOTH",
"806 0 LINE",
"985 0 LINE",
"985 645 LINE SMOOTH",
"985 702.333 OFFCURVE",
"977.667 754.667 OFFCURVE",
"963 802 CURVE SMOOTH",
"948.333 849.333 OFFCURVE",
"926.833 889.833 OFFCURVE",
"898.5 923.5 CURVE SMOOTH",
"870.167 957.167 OFFCURVE",
"834.833 983.167 OFFCURVE",
"792.5 1001.5 CURVE SMOOTH",
"750.167 1019.83 OFFCURVE",
"701.333 1029 OFFCURVE",
"646 1029 CURVE SMOOTH",
"574.667 1029 OFFCURVE",
"511.667 1014 OFFCURVE",
"457 984 CURVE SMOOTH",
"402.333 954 OFFCURVE",
"364 915 OFFCURVE",
"320 866 CURVE",
"320 1013 LINE",
"141 1013 LINE"
);
}
);
width = 1116;
}
);
leftKerningGroup = m;
rightKerningGroup = h;
unicode = 006E;
},
{
glyphname = ntilde;
lastChange = "2014-08-24 06:00:55 -0500";
layers = (
{
layerId = "84BF924C-12BE-451A-A75C-68D6DFA13EBD";
name = Regular;
paths = (
{
closed = 1;
nodes = (
"141 0 LINE"
);
},
{
closed = 1;
nodes = (
"658.667 1325 OFFCURVE",
"643.167 1329.83 OFFCURVE",
"627.5 1339.5 CURVE SMOOTH",
"611.833 1349.17 OFFCURVE",
"595 1359.67 OFFCURVE",
"577 1371 CURVE SMOOTH",
"559 1382.33 OFFCURVE",
"539.833 1392.83 OFFCURVE",
"519.5 1402.5 CURVE SMOOTH",
"499.167 1412.17 OFFCURVE",
"477.333 1417 OFFCURVE",
"454 1417 CURVE SMOOTH",
"428 1417 OFFCURVE",
"404 1411.83 OFFCURVE",
"382 1401.5 CURVE SMOOTH",
"360 1391.17 OFFCURVE",
"341 1376.5 OFFCURVE",
"325 1357.5 CURVE SMOOTH",
"309 1338.5 OFFCURVE",
"296.667 1315.83 OFFCURVE",
"288 1289.5 CURVE SMOOTH",
"279.333 1263.17 OFFCURVE",
"275 1234 OFFCURVE",
"275 1202 CURVE",
"386 1202 LINE",
"387.333 1260.67 OFFCURVE",
"412 1290 OFFCURVE",
"460 1290 CURVE SMOOTH",
"475.333 1290 OFFCURVE",
"491 1285.17 OFFCURVE",
"507 1275.5 CURVE SMOOTH",
"523 1265.83 OFFCURVE",
"540 1255.33 OFFCURVE",
"558 1244 CURVE SMOOTH",
"576 1232.67 OFFCURVE",
"595.167 1222.17 OFFCURVE",
"615.5 1212.5 CURVE SMOOTH",
"635.833 1202.83 OFFCURVE",
"657.667 1198 OFFCURVE",
"681 1198 CURVE SMOOTH",
"707.667 1198 OFFCURVE",
"731.833 1203.17 OFFCURVE",
"753.5 1213.5 CURVE SMOOTH",
"775.167 1223.83 OFFCURVE",
"793.833 1238.33 OFFCURVE",
"809.5 1257 CURVE SMOOTH",
"825.167 1275.67 OFFCURVE",
"837.167 1298.17 OFFCURVE",
"845.5 1324.5 CURVE SMOOTH",
"853.833 1350.83 OFFCURVE",
"858 1379.67 OFFCURVE",
"858 1411 CURVE",
"750 1411 LINE",
"749.333 1381.67 OFFCURVE",
"742.5 1360 OFFCURVE",
"729.5 1346 CURVE SMOOTH",
"716.5 1332 OFFCURVE",
"698 1325 OFFCURVE",
"674 1325 CURVE SMOOTH"
);
},
{
closed = 1;
nodes = (
"141 0 LINE",
"320 0 LINE",
"320 746 LINE",
"358 789.333 OFFCURVE",
"399.833 823.667 OFFCURVE",
"445.5 849 CURVE SMOOTH",
"491.167 874.333 OFFCURVE",
"540.667 887 OFFCURVE",
"594 887 CURVE SMOOTH",
"665.333 887 OFFCURVE",
"718.5 865.833 OFFCURVE",
"753.5 823.5 CURVE SMOOTH",
"788.5 781.167 OFFCURVE",
"806 721.667 OFFCURVE",
"806 645 CURVE SMOOTH",
"806 0 LINE",
"985 0 LINE",
"985 645 LINE SMOOTH",
"985 702.333 OFFCURVE",
"977.667 754.667 OFFCURVE",
"963 802 CURVE SMOOTH",
"948.333 849.333 OFFCURVE",
"926.833 889.833 OFFCURVE",
"898.5 923.5 CURVE SMOOTH",
"870.167 957.167 OFFCURVE",
"834.833 983.167 OFFCURVE",
"792.5 1001.5 CURVE SMOOTH",
"750.167 1019.83 OFFCURVE",
"701.333 1029 OFFCURVE",
"646 1029 CURVE SMOOTH",
"574.667 1029 OFFCURVE",
"511.667 1014 OFFCURVE",
"457 984 CURVE SMOOTH",
"402.333 954 OFFCURVE",
"364 915 OFFCURVE",
"320 866 CURVE",
"320 1013 LINE",
"141 1013 LINE"
);
}
);
width = 1116;
}
);
leftKerningGroup = m;
rightKerningGroup = h;
unicode = 00F1;
},
{
glyphname = o;
layers = (
{
layerId = "84BF924C-12BE-451A-A75C-68D6DFA13EBD";
name = Regular;
paths = (
{
closed = 1;
nodes = (
"493.333 1029 OFFCURVE",
"426.167 1016.67 OFFCURVE",
"366.5 992 CURVE SMOOTH",
"306.833 967.333 OFFCURVE",
"256 932.333 OFFCURVE",
"214 887 CURVE SMOOTH",
"172 841.667 OFFCURVE",
"139.833 786.833 OFFCURVE",
"117.5 722.5 CURVE SMOOTH",
"95.1667 658.167 OFFCURVE",
"84 586.333 OFFCURVE",
"84 507 CURVE SMOOTH",
"84 427 OFFCURVE",
"95.1667 355 OFFCURVE",
"117.5 291 CURVE SMOOTH",
"139.833 227 OFFCURVE",
"172 172.333 OFFCURVE",
"214 127 CURVE SMOOTH",
"256 81.6667 OFFCURVE",
"306.833 46.8334 OFFCURVE",
"366.5 22.5001 CURVE SMOOTH",
"426.167 -2 OFFCURVE",
"493.333 -14 OFFCURVE",
"568 -14 CURVE SMOOTH",
"642 -14 OFFCURVE",
"708.667 -2 OFFCURVE",
"768 22.5001 CURVE SMOOTH",
"827.333 46.8334 OFFCURVE",
"878 81.6667 OFFCURVE",
"920 127 CURVE SMOOTH",
"962 172.333 OFFCURVE",
"994.167 227 OFFCURVE",
"1016.5 291 CURVE SMOOTH",
"1038.83 355 OFFCURVE",
"1050 427 OFFCURVE",
"1050 507 CURVE SMOOTH",
"1050 586.333 OFFCURVE",
"1038.83 658.167 OFFCURVE",
"1016.5 722.5 CURVE SMOOTH",
"994.167 786.833 OFFCURVE",
"962 841.667 OFFCURVE",
"920 887 CURVE SMOOTH",
"878 932.333 OFFCURVE",
"827.333 967.333 OFFCURVE",
"768 992 CURVE SMOOTH",
"708.667 1016.67 OFFCURVE",
"642 1029 OFFCURVE",
"568 1029 CURVE SMOOTH"
);
},
{
closed = 1;
nodes = (
"466.667 125 OFFCURVE",
"391.167 158.5 OFFCURVE",
"341.5 225.5 CURVE SMOOTH",
"291.833 292.5 OFFCURVE",
"267 386 OFFCURVE",
"267 506 CURVE SMOOTH",
"267 566 OFFCURVE",
"273.167 619.833 OFFCURVE",
"285.5 667.5 CURVE SMOOTH",
"297.833 715.167 OFFCURVE",
"316.5 755.333 OFFCURVE",
"341.5 788 CURVE SMOOTH",
"366.5 820.667 OFFCURVE",
"397.833 845.667 OFFCURVE",
"435.5 863 CURVE SMOOTH",
"473.167 880.333 OFFCURVE",
"517.333 889 OFFCURVE",
"568 889 CURVE SMOOTH",
"668 889 OFFCURVE",
"742.667 855.333 OFFCURVE",
"792 788 CURVE SMOOTH",
"841.333 720.667 OFFCURVE",
"866 626.667 OFFCURVE",
"866 506 CURVE SMOOTH",
"866 386 OFFCURVE",
"841.333 292.5 OFFCURVE",
"792 225.5 CURVE SMOOTH",
"742.667 158.5 OFFCURVE",
"668 125 OFFCURVE",
"568 125 CURVE SMOOTH"
);
}
);
width = 1134;
}
);
leftKerningGroup = c;
rightKerningGroup = o;
unicode = 006F;
},
{
glyphname = oacute;
layers = (
{
layerId = "84BF924C-12BE-451A-A75C-68D6DFA13EBD";
name = Regular;
paths = (
{
closed = 1;
nodes = (
"84 0 LINE"
);
},
{
closed = 1;
nodes = (
"493.333 1029 OFFCURVE",
"426.167 1016.67 OFFCURVE",
"366.5 992 CURVE SMOOTH",
"306.833 967.333 OFFCURVE",
"256 932.333 OFFCURVE",
"214 887 CURVE SMOOTH",
"172 841.667 OFFCURVE",
"139.833 786.833 OFFCURVE",
"117.5 722.5 CURVE SMOOTH",
"95.1667 658.167 OFFCURVE",
"84 586.333 OFFCURVE",
"84 507 CURVE SMOOTH",
"84 427 OFFCURVE",
"95.1667 355 OFFCURVE",
"117.5 291 CURVE SMOOTH",
"139.833 227 OFFCURVE",
"172 172.333 OFFCURVE",
"214 127 CURVE SMOOTH",
"256 81.6667 OFFCURVE",
"306.833 46.8334 OFFCURVE",
"366.5 22.5001 CURVE SMOOTH",
"426.167 -2 OFFCURVE",
"493.333 -14 OFFCURVE",
"568 -14 CURVE SMOOTH",
"642 -14 OFFCURVE",
"708.667 -2 OFFCURVE",
"768 22.5001 CURVE SMOOTH",
"827.333 46.8334 OFFCURVE",
"878 81.6667 OFFCURVE",
"920 127 CURVE SMOOTH",
"962 172.333 OFFCURVE",
"994.167 227 OFFCURVE",
"1016.5 291 CURVE SMOOTH",
"1038.83 355 OFFCURVE",
"1050 427 OFFCURVE",
"1050 507 CURVE SMOOTH",
"1050 586.333 OFFCURVE",
"1038.83 658.167 OFFCURVE",
"1016.5 722.5 CURVE SMOOTH",
"994.167 786.833 OFFCURVE",
"962 841.667 OFFCURVE",
"920 887 CURVE SMOOTH",
"878 932.333 OFFCURVE",
"827.333 967.333 OFFCURVE",
"768 992 CURVE SMOOTH",
"708.667 1016.67 OFFCURVE",
"642 1029 OFFCURVE",
"568 1029 CURVE SMOOTH"
);
},
{
closed = 1;
nodes = (
"466.667 125 OFFCURVE",
"391.167 158.5 OFFCURVE",
"341.5 225.5 CURVE SMOOTH",
"291.833 292.5 OFFCURVE",
"267 386 OFFCURVE",
"267 506 CURVE SMOOTH",
"267 566 OFFCURVE",
"273.167 619.833 OFFCURVE",
"285.5 667.5 CURVE SMOOTH",
"297.833 715.167 OFFCURVE",
"316.5 755.333 OFFCURVE",
"341.5 788 CURVE SMOOTH",
"366.5 820.667 OFFCURVE",
"397.833 845.667 OFFCURVE",
"435.5 863 CURVE SMOOTH",
"473.167 880.333 OFFCURVE",
"517.333 889 OFFCURVE",
"568 889 CURVE SMOOTH",
"668 889 OFFCURVE",
"742.667 855.333 OFFCURVE",
"792 788 CURVE SMOOTH",
"841.333 720.667 OFFCURVE",
"866 626.667 OFFCURVE",
"866 506 CURVE SMOOTH",
"866 386 OFFCURVE",
"841.333 292.5 OFFCURVE",
"792 225.5 CURVE SMOOTH",
"742.667 158.5 OFFCURVE",
"668 125 OFFCURVE",
"568 125 CURVE SMOOTH"
);
},
{
closed = 1;
nodes = (
"860 1449 LINE",
"686 1449 LINE SMOOTH",
"664.667 1449 OFFCURVE",
"648.5 1445.5 OFFCURVE",
"637.5 1438.5 CURVE SMOOTH",
"626.5 1431.5 OFFCURVE",
"616.333 1420.33 OFFCURVE",
"607 1405 CURVE SMOOTH",
"459 1163 LINE",
"565 1163 LINE SMOOTH",
"579 1163 OFFCURVE",
"590.5 1165.17 OFFCURVE",
"599.5 1169.5 CURVE SMOOTH",
"608.5 1173.83 OFFCURVE",
"617.667 1181 OFFCURVE",
"627 1191 CURVE SMOOTH"
);
}
);
width = 1134;
}
);
leftKerningGroup = c;
rightKerningGroup = o;
unicode = 00F3;
},
{
glyphname = ocircumflex;
layers = (
{
layerId = "84BF924C-12BE-451A-A75C-68D6DFA13EBD";
name = Regular;
paths = (
{
closed = 1;
nodes = (
"84 0 LINE"
);
},
{
closed = 1;
nodes = (
"493.333 1029 OFFCURVE",
"426.167 1016.67 OFFCURVE",
"366.5 992 CURVE SMOOTH",
"306.833 967.333 OFFCURVE",
"256 932.333 OFFCURVE",
"214 887 CURVE SMOOTH",
"172 841.667 OFFCURVE",
"139.833 786.833 OFFCURVE",
"117.5 722.5 CURVE SMOOTH",
"95.1667 658.167 OFFCURVE",
"84 586.333 OFFCURVE",
"84 507 CURVE SMOOTH",
"84 427 OFFCURVE",
"95.1667 355 OFFCURVE",
"117.5 291 CURVE SMOOTH",
"139.833 227 OFFCURVE",
"172 172.333 OFFCURVE",
"214 127 CURVE SMOOTH",
"256 81.6667 OFFCURVE",
"306.833 46.8334 OFFCURVE",
"366.5 22.5001 CURVE SMOOTH",
"426.167 -2 OFFCURVE",
"493.333 -14 OFFCURVE",
"568 -14 CURVE SMOOTH",
"642 -14 OFFCURVE",
"708.667 -2 OFFCURVE",
"768 22.5001 CURVE SMOOTH",
"827.333 46.8334 OFFCURVE",
"878 81.6667 OFFCURVE",
"920 127 CURVE SMOOTH",
"962 172.333 OFFCURVE",
"994.167 227 OFFCURVE",
"1016.5 291 CURVE SMOOTH",
"1038.83 355 OFFCURVE",
"1050 427 OFFCURVE",
"1050 507 CURVE SMOOTH",
"1050 586.333 OFFCURVE",
"1038.83 658.167 OFFCURVE",
"1016.5 722.5 CURVE SMOOTH",
"994.167 786.833 OFFCURVE",
"962 841.667 OFFCURVE",
"920 887 CURVE SMOOTH",
"878 932.333 OFFCURVE",
"827.333 967.333 OFFCURVE",
"768 992 CURVE SMOOTH",
"708.667 1016.67 OFFCURVE",
"642 1029 OFFCURVE",
"568 1029 CURVE SMOOTH"
);
},
{
closed = 1;
nodes = (
"466.667 125 OFFCURVE",
"391.167 158.5 OFFCURVE",
"341.5 225.5 CURVE SMOOTH",
"291.833 292.5 OFFCURVE",
"267 386 OFFCURVE",
"267 506 CURVE SMOOTH",
"267 566 OFFCURVE",
"273.167 619.833 OFFCURVE",
"285.5 667.5 CURVE SMOOTH",
"297.833 715.167 OFFCURVE",
"316.5 755.333 OFFCURVE",
"341.5 788 CURVE SMOOTH",
"366.5 820.667 OFFCURVE",
"397.833 845.667 OFFCURVE",
"435.5 863 CURVE SMOOTH",
"473.167 880.333 OFFCURVE",
"517.333 889 OFFCURVE",
"568 889 CURVE SMOOTH",
"668 889 OFFCURVE",
"742.667 855.333 OFFCURVE",
"792 788 CURVE SMOOTH",
"841.333 720.667 OFFCURVE",
"866 626.667 OFFCURVE",
"866 506 CURVE SMOOTH",
"866 386 OFFCURVE",
"841.333 292.5 OFFCURVE",
"792 225.5 CURVE SMOOTH",
"742.667 158.5 OFFCURVE",
"668 125 OFFCURVE",
"568 125 CURVE SMOOTH"
);
},
{
closed = 1;
nodes = (
"875 1169 LINE",
"652 1433 LINE",
"486 1433 LINE",
"263 1169 LINE",
"386 1169 LINE SMOOTH",
"402 1169 OFFCURVE",
"417 1175.33 OFFCURVE",
"431 1188 CURVE",
"555 1320 LINE SMOOTH",
"560.333 1325.33 OFFCURVE",
"565.667 1331.67 OFFCURVE",
"571 1339 CURVE",
"574.333 1335.67 OFFCURVE",
"577.167 1332.33 OFFCURVE",
"579.5 1329 CURVE SMOOTH",
"581.833 1325.67 OFFCURVE",
"584.667 1322.67 OFFCURVE",
"588 1320 CURVE",
"711 1188 LINE",
"718.333 1180.67 OFFCURVE",
"725.833 1175.67 OFFCURVE",
"733.5 1173 CURVE SMOOTH",
"741.167 1170.33 OFFCURVE",
"748.667 1169 OFFCURVE",
"756 1169 CURVE SMOOTH"
);
}
);
width = 1134;
}
);
leftKerningGroup = c;
rightKerningGroup = o;
unicode = 00F4;
},
{
glyphname = odieresis;
layers = (
{
layerId = "84BF924C-12BE-451A-A75C-68D6DFA13EBD";
name = Regular;
paths = (
{
closed = 1;
nodes = (
"84 0 LINE"
);
},
{
closed = 1;
nodes = (
"493.333 1029 OFFCURVE",
"426.167 1016.67 OFFCURVE",
"366.5 992 CURVE SMOOTH",
"306.833 967.333 OFFCURVE",
"256 932.333 OFFCURVE",
"214 887 CURVE SMOOTH",
"172 841.667 OFFCURVE",
"139.833 786.833 OFFCURVE",
"117.5 722.5 CURVE SMOOTH",
"95.1667 658.167 OFFCURVE",
"84 586.333 OFFCURVE",
"84 507 CURVE SMOOTH",
"84 427 OFFCURVE",
"95.1667 355 OFFCURVE",
"117.5 291 CURVE SMOOTH",
"139.833 227 OFFCURVE",
"172 172.333 OFFCURVE",
"214 127 CURVE SMOOTH",
"256 81.6667 OFFCURVE",
"306.833 46.8334 OFFCURVE",
"366.5 22.5001 CURVE SMOOTH",
"426.167 -2 OFFCURVE",
"493.333 -14 OFFCURVE",
"568 -14 CURVE SMOOTH",
"642 -14 OFFCURVE",
"708.667 -2 OFFCURVE",
"768 22.5001 CURVE SMOOTH",
"827.333 46.8334 OFFCURVE",
"878 81.6667 OFFCURVE",
"920 127 CURVE SMOOTH",
"962 172.333 OFFCURVE",
"994.167 227 OFFCURVE",
"1016.5 291 CURVE SMOOTH",
"1038.83 355 OFFCURVE",
"1050 427 OFFCURVE",
"1050 507 CURVE SMOOTH",
"1050 586.333 OFFCURVE",
"1038.83 658.167 OFFCURVE",
"1016.5 722.5 CURVE SMOOTH",
"994.167 786.833 OFFCURVE",
"962 841.667 OFFCURVE",
"920 887 CURVE SMOOTH",
"878 932.333 OFFCURVE",
"827.333 967.333 OFFCURVE",
"768 992 CURVE SMOOTH",
"708.667 1016.67 OFFCURVE",
"642 1029 OFFCURVE",
"568 1029 CURVE SMOOTH"
);
},
{
closed = 1;
nodes = (
"466.667 125 OFFCURVE",
"391.167 158.5 OFFCURVE",
"341.5 225.5 CURVE SMOOTH",
"291.833 292.5 OFFCURVE",
"267 386 OFFCURVE",
"267 506 CURVE SMOOTH",
"267 566 OFFCURVE",
"273.167 619.833 OFFCURVE",
"285.5 667.5 CURVE SMOOTH",
"297.833 715.167 OFFCURVE",
"316.5 755.333 OFFCURVE",
"341.5 788 CURVE SMOOTH",
"366.5 820.667 OFFCURVE",
"397.833 845.667 OFFCURVE",
"435.5 863 CURVE SMOOTH",
"473.167 880.333 OFFCURVE",
"517.333 889 OFFCURVE",
"568 889 CURVE SMOOTH",
"668 889 OFFCURVE",
"742.667 855.333 OFFCURVE",
"792 788 CURVE SMOOTH",
"841.333 720.667 OFFCURVE",
"866 626.667 OFFCURVE",
"866 506 CURVE SMOOTH",
"866 386 OFFCURVE",
"841.333 292.5 OFFCURVE",
"792 225.5 CURVE SMOOTH",
"742.667 158.5 OFFCURVE",
"668 125 OFFCURVE",
"568 125 CURVE SMOOTH"
);
},
{
closed = 1;
nodes = (
"491 1304.33 OFFCURVE",
"488 1319 OFFCURVE",
"482 1333 CURVE SMOOTH",
"476 1347 OFFCURVE",
"467.667 1359.17 OFFCURVE",
"457 1369.5 CURVE SMOOTH",
"446.333 1379.83 OFFCURVE",
"434.167 1388 OFFCURVE",
"420.5 1394 CURVE SMOOTH",
"406.833 1400 OFFCURVE",
"392.333 1403 OFFCURVE",
"377 1403 CURVE SMOOTH",
"362.333 1403 OFFCURVE",
"348.333 1400 OFFCURVE",
"335 1394 CURVE SMOOTH",
"321.667 1388 OFFCURVE",
"309.833 1379.83 OFFCURVE",
"299.5 1369.5 CURVE SMOOTH",
"289.167 1359.17 OFFCURVE",
"281 1347 OFFCURVE",
"275 1333 CURVE SMOOTH",
"269 1319 OFFCURVE",
"266 1304.33 OFFCURVE",
"266 1289 CURVE SMOOTH",
"266 1273.67 OFFCURVE",
"269 1259.33 OFFCURVE",
"275 1246 CURVE SMOOTH",
"281 1232.67 OFFCURVE",
"289.167 1221 OFFCURVE",
"299.5 1211 CURVE SMOOTH",
"309.833 1201 OFFCURVE",
"321.667 1193 OFFCURVE",
"335 1187 CURVE SMOOTH",
"348.333 1181 OFFCURVE",
"362.333 1178 OFFCURVE",
"377 1178 CURVE SMOOTH",
"392.333 1178 OFFCURVE",
"406.833 1181 OFFCURVE",
"420.5 1187 CURVE SMOOTH",
"434.167 1193 OFFCURVE",
"446.333 1201 OFFCURVE",
"457 1211 CURVE SMOOTH",
"467.667 1221 OFFCURVE",
"476 1232.67 OFFCURVE",
"482 1246 CURVE SMOOTH",
"488 1259.33 OFFCURVE",
"491 1273.67 OFFCURVE",
"491 1289 CURVE SMOOTH"
);
},
{
closed = 1;
nodes = (
"872 1304.33 OFFCURVE",
"869 1319 OFFCURVE",
"863 1333 CURVE SMOOTH",
"857 1347 OFFCURVE",
"848.833 1359.17 OFFCURVE",
"838.5 1369.5 CURVE SMOOTH",
"828.167 1379.83 OFFCURVE",
"816.167 1388 OFFCURVE",
"802.5 1394 CURVE SMOOTH",
"788.833 1400 OFFCURVE",
"774.333 1403 OFFCURVE",
"759 1403 CURVE SMOOTH",
"743.667 1403 OFFCURVE",
"729.167 1400 OFFCURVE",
"715.5 1394 CURVE SMOOTH",
"701.833 1388 OFFCURVE",
"690 1379.83 OFFCURVE",
"680 1369.5 CURVE SMOOTH",
"670 1359.17 OFFCURVE",
"662 1347 OFFCURVE",
"656 1333 CURVE SMOOTH",
"650 1319 OFFCURVE",
"647 1304.33 OFFCURVE",
"647 1289 CURVE SMOOTH",
"647 1273.67 OFFCURVE",
"650 1259.33 OFFCURVE",
"656 1246 CURVE SMOOTH",
"662 1232.67 OFFCURVE",
"670 1221 OFFCURVE",
"680 1211 CURVE SMOOTH",
"690 1201 OFFCURVE",
"701.833 1193 OFFCURVE",
"715.5 1187 CURVE SMOOTH",
"729.167 1181 OFFCURVE",
"743.667 1178 OFFCURVE",
"759 1178 CURVE SMOOTH",
"774.333 1178 OFFCURVE",
"788.833 1181 OFFCURVE",
"802.5 1187 CURVE SMOOTH",
"816.167 1193 OFFCURVE",
"828.167 1201 OFFCURVE",
"838.5 1211 CURVE SMOOTH",
"848.833 1221 OFFCURVE",
"857 1232.67 OFFCURVE",
"863 1246 CURVE SMOOTH",
"869 1259.33 OFFCURVE",
"872 1273.67 OFFCURVE",
"872 1289 CURVE SMOOTH"
);
}
);
width = 1134;
}
);
leftKerningGroup = c;
rightKerningGroup = o;
unicode = 00F6;
},
{
glyphname = ograve;
layers = (
{
layerId = "84BF924C-12BE-451A-A75C-68D6DFA13EBD";
name = Regular;
paths = (
{
closed = 1;
nodes = (
"84 0 LINE"
);
},
{
closed = 1;
nodes = (
"493.333 1029 OFFCURVE",
"426.167 1016.67 OFFCURVE",
"366.5 992 CURVE SMOOTH",
"306.833 967.333 OFFCURVE",
"256 932.333 OFFCURVE",
"214 887 CURVE SMOOTH",
"172 841.667 OFFCURVE",
"139.833 786.833 OFFCURVE",
"117.5 722.5 CURVE SMOOTH",
"95.1667 658.167 OFFCURVE",
"84 586.333 OFFCURVE",
"84 507 CURVE SMOOTH",
"84 427 OFFCURVE",
"95.1667 355 OFFCURVE",
"117.5 291 CURVE SMOOTH",
"139.833 227 OFFCURVE",
"172 172.333 OFFCURVE",
"214 127 CURVE SMOOTH",
"256 81.6667 OFFCURVE",
"306.833 46.8334 OFFCURVE",
"366.5 22.5001 CURVE SMOOTH",
"426.167 -2 OFFCURVE",
"493.333 -14 OFFCURVE",
"568 -14 CURVE SMOOTH",
"642 -14 OFFCURVE",
"708.667 -2 OFFCURVE",
"768 22.5001 CURVE SMOOTH",
"827.333 46.8334 OFFCURVE",
"878 81.6667 OFFCURVE",
"920 127 CURVE SMOOTH",
"962 172.333 OFFCURVE",
"994.167 227 OFFCURVE",
"1016.5 291 CURVE SMOOTH",
"1038.83 355 OFFCURVE",
"1050 427 OFFCURVE",
"1050 507 CURVE SMOOTH",
"1050 586.333 OFFCURVE",
"1038.83 658.167 OFFCURVE",
"1016.5 722.5 CURVE SMOOTH",
"994.167 786.833 OFFCURVE",
"962 841.667 OFFCURVE",
"920 887 CURVE SMOOTH",
"878 932.333 OFFCURVE",
"827.333 967.333 OFFCURVE",
"768 992 CURVE SMOOTH",
"708.667 1016.67 OFFCURVE",
"642 1029 OFFCURVE",
"568 1029 CURVE SMOOTH"
);
},
{
closed = 1;
nodes = (
"466.667 125 OFFCURVE",
"391.167 158.5 OFFCURVE",
"341.5 225.5 CURVE SMOOTH",
"291.833 292.5 OFFCURVE",
"267 386 OFFCURVE",
"267 506 CURVE SMOOTH",
"267 566 OFFCURVE",
"273.167 619.833 OFFCURVE",
"285.5 667.5 CURVE SMOOTH",
"297.833 715.167 OFFCURVE",
"316.5 755.333 OFFCURVE",
"341.5 788 CURVE SMOOTH",
"366.5 820.667 OFFCURVE",
"397.833 845.667 OFFCURVE",
"435.5 863 CURVE SMOOTH",
"473.167 880.333 OFFCURVE",
"517.333 889 OFFCURVE",
"568 889 CURVE SMOOTH",
"668 889 OFFCURVE",
"742.667 855.333 OFFCURVE",
"792 788 CURVE SMOOTH",
"841.333 720.667 OFFCURVE",
"866 626.667 OFFCURVE",
"866 506 CURVE SMOOTH",
"866 386 OFFCURVE",
"841.333 292.5 OFFCURVE",
"792 225.5 CURVE SMOOTH",
"742.667 158.5 OFFCURVE",
"668 125 OFFCURVE",
"568 125 CURVE SMOOTH"
);
},
{
closed = 1;
nodes = (
"300 1449 LINE",
"534 1191 LINE SMOOTH",
"543.333 1181 OFFCURVE",
"552.333 1173.83 OFFCURVE",
"561 1169.5 CURVE SMOOTH",
"569.667 1165.17 OFFCURVE",
"581 1163 OFFCURVE",
"595 1163 CURVE SMOOTH",
"697 1163 LINE",
"548 1405 LINE SMOOTH",
"538.667 1420.33 OFFCURVE",
"528.667 1431.5 OFFCURVE",
"518 1438.5 CURVE SMOOTH",
"507.333 1445.5 OFFCURVE",
"491 1449 OFFCURVE",
"469 1449 CURVE SMOOTH"
);
}
);
width = 1134;
}
);
leftKerningGroup = c;
rightKerningGroup = o;
unicode = 00F2;
},
